<svg viewBox="0 0 330 200" xmlns="http://www.w3.org/2000/svg"><g><g><g><g><g><line x1="29.992000579833984" y1="178.57499980926514" x2="24.992000579833984" y2="178.57499980926514" style="visibility: inherit;" fill="rgb(0, 0, 0)" stroke="rgb(204, 204, 204)" stroke-width="1px"></line><line x1="29.992000579833984" y1="158.73333316379123" x2="24.992000579833984" y2="158.73333316379123" style="visibility: inherit;" fill="rgb(0, 0, 0)" stroke="rgb(204, 204, 204)" stroke-width="1px"></line><line x1="29.992000579833984" y1="138.89166651831732" x2="24.992000579833984" y2="138.89166651831732" style="visibility: inherit;" fill="rgb(0, 0, 0)" stroke="rgb(204, 204, 204)" stroke-width="1px"></line><line x1="29.992000579833984" y1="119.04999987284343" x2="24.992000579833984" y2="119.04999987284343" style="visibility: inherit;" fill="rgb(0, 0, 0)" stroke="rgb(204, 204, 204)" stroke-width="1px"></line><line x1="29.992000579833984" y1="99.20833322736952" x2="24.992000579833984" y2="99.20833322736952" style="visibility: inherit;" fill="rgb(0, 0, 0)" stroke="rgb(204, 204, 204)" stroke-width="1px"></line><line x1="29.992000579833984" y1="79.36666658189561" x2="24.992000579833984" y2="79.36666658189561" style="visibility: inherit;" fill="rgb(0, 0, 0)" stroke="rgb(204, 204, 204)" stroke-width="1px"></line><line x1="29.992000579833984" y1="59.52499993642172" x2="24.992000579833984" y2="59.52499993642172" style="visibility: inherit;" fill="rgb(0, 0, 0)" stroke="rgb(204, 204, 204)" stroke-width="1px"></line><line x1="29.992000579833984" y1="39.683333290947814" x2="24.992000579833984" y2="39.683333290947814" style="visibility: inherit;" fill="rgb(0, 0, 0)" stroke="rgb(204, 204, 204)" stroke-width="1px"></line><line x1="29.992000579833984" y1="19.841666645473907" x2="24.992000579833984" y2="19.841666645473907" style="visibility: inherit;" fill="rgb(0, 0, 0)" stroke="rgb(204, 204, 204)" stroke-width="1px"></line><line x1="29.992000579833984" y1="0" x2="24.992000579833984" y2="0" style="visibility: inherit;" fill="rgb(0, 0, 0)" stroke="rgb(204, 204, 204)" stroke-width="1px"></line></g><g transform="translate(19.992000579833984, 0)"><text style="text-anchor: end; visibility: hidden; font-family: &quot;Helvetica Neue&quot;, sans-serif; font-size: 12px; font-weight: 200;" x="0" y="178.57499980926514" dx="0em" dy="0.3em" fill="rgb(50, 49, 63)" stroke="none" stroke-width="1px">-1</text><text style="text-anchor: end; visibility: inherit; font-family: &quot;Helvetica Neue&quot;, sans-serif; font-size: 12px; font-weight: 200;" x="0" y="158.73333316379123" dx="0em" dy="0.3em" fill="rgb(50, 49, 63)" stroke="none" stroke-width="1px">0</text><text style="text-anchor: end; visibility: hidden; font-family: &quot;Helvetica Neue&quot;, sans-serif; font-size: 12px; font-weight: 200;" x="0" y="138.89166651831732" dx="0em" dy="0.3em" fill="rgb(50, 49, 63)" stroke="none" stroke-width="1px">1</text><text style="text-anchor: end; visibility: inherit; font-family: &quot;Helvetica Neue&quot;, sans-serif; font-size: 12px; font-weight: 200;" x="0" y="119.04999987284343" dx="0em" dy="0.3em" fill="rgb(50, 49, 63)" stroke="none" stroke-width="1px">2</text><text style="text-anchor: end; visibility: hidden; font-family: &quot;Helvetica Neue&quot;, sans-serif; font-size: 12px; font-weight: 200;" x="0" y="99.20833322736952" dx="0em" dy="0.3em" fill="rgb(50, 49, 63)" stroke="none" stroke-width="1px">3</text><text style="text-anchor: end; visibility: inherit; font-family: &quot;Helvetica Neue&quot;, sans-serif; font-size: 12px; font-weight: 200;" x="0" y="79.36666658189561" dx="0em" dy="0.3em" fill="rgb(50, 49, 63)" stroke="none" stroke-width="1px">4</text><text style="text-anchor: end; visibility: hidden; font-family: &quot;Helvetica Neue&quot;, sans-serif; font-size: 12px; font-weight: 200;" x="0" y="59.52499993642172" dx="0em" dy="0.3em" fill="rgb(50, 49, 63)" stroke="none" stroke-width="1px">5</text><text style="text-anchor: end; visibility: inherit; font-family: &quot;Helvetica Neue&quot;, sans-serif; font-size: 12px; font-weight: 200;" x="0" y="39.683333290947814" dx="0em" dy="0.3em" fill="rgb(50, 49, 63)" stroke="none" stroke-width="1px">6</text><text style="text-anchor: end; visibility: hidden; font-family: &quot;Helvetica Neue&quot;, sans-serif; font-size: 12px; font-weight: 200;" x="0" y="19.841666645473907" dx="0em" dy="0.3em" fill="rgb(50, 49, 63)" stroke="none" stroke-width="1px">7</text><text style="text-anchor: end; visibility: hidden; font-family: &quot;Helvetica Neue&quot;, sans-serif; font-size: 12px; font-weight: 200;" x="0" y="0" dx="0em" dy="0.3em" fill="rgb(50, 49, 63)" stroke="none" stroke-width="1px">8</text></g><line x1="29.992000579833984" y1="0" x2="29.992000579833984" y2="178.57499980926514" fill="rgb(0, 0, 0)" stroke="rgb(204, 204, 204)" stroke-width="1px"></line></g></g><g transform="translate(30, 0)" clip-path="url(#clip_0)"><clipPath id="clip_0"><rect width="300" height="178"></rect></clipPath><g><g><g><line x1="0" y1="0" x2="0" y2="178.57499980926514" fill="rgb(0, 0, 0)" stroke="rgb(60, 60, 60)" stroke-width="1px" opacity="0.25"></line><line x1="33.33422215779622" y1="0" x2="33.33422215779622" y2="178.57499980926514" fill="rgb(0, 0, 0)" stroke="rgb(60, 60, 60)" stroke-width="1px" opacity="0.25"></line><line x1="66.66844431559244" y1="0" x2="66.66844431559244" y2="178.57499980926514" fill="rgb(0, 0, 0)" stroke="rgb(60, 60, 60)" stroke-width="1px" opacity="0.25"></line><line x1="100.00266647338867" y1="0" x2="100.00266647338867" y2="178.57499980926514" fill="rgb(0, 0, 0)" stroke="rgb(60, 60, 60)" stroke-width="1px" opacity="0.25"></line><line x1="133.33688863118488" y1="0" x2="133.33688863118488" y2="178.57499980926514" fill="rgb(0, 0, 0)" stroke="rgb(60, 60, 60)" stroke-width="1px" opacity="0.25"></line><line x1="166.67111078898114" y1="0" x2="166.67111078898114" y2="178.57499980926514" fill="rgb(0, 0, 0)" stroke="rgb(60, 60, 60)" stroke-width="1px" opacity="0.25"></line><line x1="200.00533294677734" y1="0" x2="200.00533294677734" y2="178.57499980926514" fill="rgb(0, 0, 0)" stroke="rgb(60, 60, 60)" stroke-width="1px" opacity="0.25"></line><line x1="233.33955510457358" y1="0" x2="233.33955510457358" y2="178.57499980926514" fill="rgb(0, 0, 0)" stroke="rgb(60, 60, 60)" stroke-width="1px" opacity="0.25"></line><line x1="266.67377726236975" y1="0" x2="266.67377726236975" y2="178.57499980926514" fill="rgb(0, 0, 0)" stroke="rgb(60, 60, 60)" stroke-width="1px" opacity="0.25"></line><line x1="300.007999420166" y1="0" x2="300.007999420166" y2="178.57499980926514" fill="rgb(0, 0, 0)" stroke="rgb(60, 60, 60)" stroke-width="1px" opacity="0.25"></line></g><g><line x1="0" y1="178.57499980926514" x2="300.007999420166" y2="178.57499980926514" fill="rgb(0, 0, 0)" stroke="rgb(60, 60, 60)" stroke-width="1px" opacity="0.25"></line><line x1="0" y1="158.73333316379123" x2="300.007999420166" y2="158.73333316379123" fill="rgb(0, 0, 0)" stroke="rgb(60, 60, 60)" stroke-width="1px" opacity="0.25"></line><line x1="0" y1="138.89166651831732" x2="300.007999420166" y2="138.89166651831732" fill="rgb(0, 0, 0)" stroke="rgb(60, 60, 60)" stroke-width="1px" opacity="0.25"></line><line x1="0" y1="119.04999987284343" x2="300.007999420166" y2="119.04999987284343" fill="rgb(0, 0, 0)" stroke="rgb(60, 60, 60)" stroke-width="1px" opacity="0.25"></line><line x1="0" y1="99.20833322736952" x2="300.007999420166" y2="99.20833322736952" fill="rgb(0, 0, 0)" stroke="rgb(60, 60, 60)" stroke-width="1px" opacity="0.25"></line><line x1="0" y1="79.36666658189561" x2="300.007999420166" y2="79.36666658189561" fill="rgb(0, 0, 0)" stroke="rgb(60, 60, 60)" stroke-width="1px" opacity="0.25"></line><line x1="0" y1="59.52499993642172" x2="300.007999420166" y2="59.52499993642172" fill="rgb(0, 0, 0)" stroke="rgb(60, 60, 60)" stroke-width="1px" opacity="0.25"></line><line x1="0" y1="39.683333290947814" x2="300.007999420166" y2="39.683333290947814" fill="rgb(0, 0, 0)" stroke="rgb(60, 60, 60)" stroke-width="1px" opacity="0.25"></line><line x1="0" y1="19.841666645473907" x2="300.007999420166" y2="19.841666645473907" fill="rgb(0, 0, 0)" stroke="rgb(60, 60, 60)" stroke-width="1px" opacity="0.25"></line><line x1="0" y1="0" x2="300.007999420166" y2="0" fill="rgb(0, 0, 0)" stroke="rgb(60, 60, 60)" stroke-width="1px" opacity="0.25"></line></g></g></g><g><g><line x1="0" y1="158.73333316379123" x2="300.007999420166" y2="158.73333316379123" fill="rgb(0, 0, 0)" stroke="rgb(153, 153, 153)" stroke-width="1.5px"></line></g></g><g><g><line x1="33.33422215779622" y1="0" x2="33.33422215779622" y2="178.57499980926514" fill="rgb(0, 0, 0)" stroke="rgb(153, 153, 153)" stroke-width="1.5px"></line></g></g><g><g><g><g><g><path style="fill: none;" stroke="rgb(0, 119, 187)" stroke-width="2px" d="M33.33422215779622,6.4998272786652365L35.00093326568604,21.304261423244185L36.66764437357585,22.76365830056369L38.33435548146566,24.60660454585505L40.00106658935547,27.442215043797802L41.667777697245285,29.769898660969773L43.33448880513509,27.98291567356722L45.0011999130249,31.617499838278235L46.667911020914715,33.89777316208068L48.334622128804526,36.04519169851639L50.001333236694336,37.82066035204733L51.668044344584146,39.26424749074769L53.33475545247396,40.71933004083181L55.00146656036377,41.87304358778297L56.66817766825358,42.87880220204357L58.334888776143394,43.791045881228456L60.001599884033205,45.25277968580045L61.668310991923015,46.67357468785602L63.335022099812825,47.97730571867609L65.00173320770264,49.26803700032639L66.66844431559244,50.16729039158545L68.33515542348226,51.07345049091869L70.00186653137207,51.311012864938874L71.66857763926188,50.43718183613919L73.3352887471517,52.658539993944444L75.0019998550415,54.21718532016561L76.66871096293131,55.261706650837056L78.33542207082112,56.2447393571604L80.00213317871093,57.12958327390302L81.66884428660074,58.157254129122265L83.33555539449057,59.1628235185041L85.00226650238037,59.78209977917231L86.66897761027018,58.74765467329402L88.33568871816,60.3421770365252L90.0023998260498,61.52149270957054L91.66911093393962,62.516418199522974L93.33582204182943,63.373304140431074L95.00253314971923,64.23761715782989L96.66924425760905,65.1234166602102L98.33595536549886,65.81390770399402L100.00266647338867,66.59552944938136L101.66937758127848,67.31026966137632L103.33608868916829,68.0330897756937L105.0027997970581,68.68609537099817L106.66951090494793,69.37560244541251L108.33622201283772,69.98934387837744L110.00293312072753,70.63333290820972L111.66964422861736,71.22556893370529" fill="none"></path></g><g><path style="fill: none;" stroke="rgb(0, 153, 136)" stroke-width="2px" d="M33.33422215779622,4.211909269761492L35.00093326568604,15.90226012359284L36.66764437357585,18.162437765272585L38.33435548146566,20.976571239477835L40.00106658935547,22.519037838566334L41.667777697245285,21.643579475809418L43.33448880513509,24.34490653855093L45.0011999130249,26.290365361902275L46.667911020914715,28.40819858854624L48.334622128804526,30.367357293118715L50.001333236694336,32.33744373443869L51.668044344584146,33.5733281849848L53.33475545247396,34.782806303702074L55.00146656036377,35.66618372763443L56.66817766825358,37.54078729513978L58.334888776143394,38.09667322142846L60.001599884033205,38.94792026094996L61.668310991923015,40.48254348881446L63.335022099812825,42.0625239201141L65.00173320770264,43.49524955077453L66.66844431559244,44.832605842547565L68.33515542348226,45.36680659773211L70.00186653137207,47.455366735634215L71.66857763926188,48.858753048845244L73.3352887471517,49.70421926832108L75.0019998550415,49.935253384024605L76.66871096293131,51.1131120255036L78.33542207082112,52.646571520363835L80.00213317871093,54.39835868031983L81.66884428660074,55.67759455058639L83.33555539449057,57.013881721794505L85.00226650238037,57.70112755890786L86.66897761027018,57.532338967067474L88.33568871816,57.93990097215202L90.0023998260498,59.51523593267848L91.66911093393962,60.84923348285379L93.33582204182943,62.08726563577365L95.00253314971923,63.29083047703014L96.66924425760905,64.53472860119109L98.33595536549886,65.68761901991971L100.00266647338867,66.75845206998065L101.66937758127848,67.87391380769354L103.33608868916829,69.00301865916394" fill="none"></path></g><g><path style="fill: none;" stroke="rgb(238, 51, 119)" stroke-width="2px" d="M33.33422215779622,-0.038582952776067714L35.00093326568604,15.769963549618382L36.66764437357585,18.0751483287076L38.33435548146566,19.098911690180756L40.00106658935547,20.750844881623124L41.667777697245285,22.727402813796203L43.33448880513509,24.790862271532802L45.0011999130249,26.5798888876258L46.667911020914715,28.12802277183269L48.334622128804526,29.645549531902617L50.001333236694336,31.37898187862038L51.668044344584146,33.148177727420915L53.33475545247396,34.72803516254939L55.00146656036377,36.15476236455359L56.66817766825358,37.40773382165034L58.334888776143394,38.59302900086405L60.001599884033205,40.00099455614068L61.668310991923015,41.30338209032166L63.335022099812825,42.64217649117316L65.00173320770264,43.86469220403595L66.66844431559244,45.17098723196301L68.33515542348226,46.43587039517675L70.00186653137207,47.67600294425068L71.66857763926188,48.8443624968167L73.3352887471517,50.21662131747422L75.0019998550415,51.420063162559515L76.66871096293131,52.7358383569117L78.33542207082112,53.88908830290994L80.00213317871093,55.24895289400966L81.66884428660074,56.47429751880968L83.33555539449057,57.760809085663965" fill="none"></path></g><g><path style="fill: none;" stroke="rgb(51, 187, 238)" stroke-width="2px" d="M33.33422215779622,-8.418614855357475L35.00093326568604,15.909488513960895L36.66764437357585,18.015305960804568L38.33435548146566,19.465714656383682L40.00106658935547,21.050813620653372L41.667777697245285,22.110463480380474L43.33448880513509,22.827900146897576L45.0011999130249,23.488455814863954L46.667911020914715,24.389081086493917L48.334622128804526,25.370145854078288L50.001333236694336,26.21712587258409L51.668044344584146,27.454789036990405L53.33475545247396,28.779041505910357L55.00146656036377,30.13101541956641L56.66817766825358,31.335933218705947L58.334888776143394,32.4226043911178L60.001599884033205,33.46934911411452L61.668310991923015,34.46419891411546L63.335022099812825,35.3484846174658L65.00173320770264,36.147827272747605L66.66844431559244,36.95491868681398L68.33515542348226,37.65773773144801L70.00186653137207,38.475605502358945L71.66857763926188,39.42518325012017L73.3352887471517,40.158533728939716L75.0019998550415,41.021503249699435L76.66871096293131,42.11140070629389L78.33542207082112,43.09759346809227L80.00213317871093,44.11012633301192L81.66884428660074,45.04289145029671L83.33555539449057,45.92236138048298L85.00226650238037,47.017623362389855L86.66897761027018,47.86501021438497L88.33568871816,48.759088305210355L90.0023998260498,49.717181172515126L91.66911093393962,50.64845141325779L93.33582204182943,51.52152554254249L95.00253314971923,52.503820271838734L96.66924425760905,53.406763548233315L98.33595536549886,54.22439478804577L100.00266647338867,55.27649457511097L101.66937758127848,56.24535433801631L103.33608868916829,57.139385122622016L105.0027997970581,58.03523246606366L106.66951090494793,58.96004067719721L108.33622201283772,59.76859858407387L110.00293312072753,60.74379738041716L111.66964422861736,61.721465561428076L113.33635533650715,62.598428261970994L115.00306644439698,63.53575369883352L116.66977755228679,64.61494102729102L118.33648866017658,65.53158418490673L120.00319976806641,66.40147933622852L121.66991087595622,67.49852949323954L123.33662198384603,68.43317739806784L125.00333309173584,69.41529236372925L126.67004419962565,70.41475925077157L128.33675530751546,71.18760096178514L130.00346641540528,72.35527930478767L131.67017752329508,73.27996451975004L133.33688863118488,74.2627985399507L135.0035997390747,75.24692875057073L136.67031084696453,76.24451285006954L138.33702195485435,77.17917967738569L140.00373306274415,78.10553007128101L141.67044417063394,79.01354457442595L143.33715527852377,80.09983256645837L145.00386638641356,80.78738116337772L146.6705774943034,81.81341522339581L148.3372886021932,82.6260083508117L150.003999710083,83.5695167105872L151.6707108179728,84.43905233463938L153.33742192586263,85.15203275526201L155.00413303375245,85.8320218182755L156.67084414164225,86.80332258211665L158.33755524953207,87.49356290293613L160.00426635742187,88.34040100278288L161.67097746531167,88.82418278902585L163.3376885732015,89.6854161715231L165.00439968109131,90.22800905007996L166.67111078898114,90.94307094436881L168.33782189687093,91.74344487523975L170.00453300476073,92.35431482066971L171.67124411265056,93.17895211161772L173.33795522054035,93.63066501153541L175.00466632843018,94.25934101805527L176.67137743632,94.89957393404445L178.3380885442098,95.79765886167726L180.0047996520996,96.18568812865338L181.67151075998942,96.85326403962121L183.33822186787924,97.18562334727059L185.00493297576907,97.77805805888885L186.67164408365886,98.29994500508906L188.33835519154866,99.0054321205134L190.00506629943845,99.2945393515037L191.67177740732828,99.79057344864539L193.3384885152181,100.40074799264598L195.00519962310793,101.11784405438132L196.67191073099772,101.46483990640162L198.33862183888752,101.79050065334344L200.00533294677734,102.21394335637665L201.67204405466717,102.76263400665107L203.33875516255696,103.28153119976712L205.0054662704468,103.56583684945925L206.67217737833658,104.13203553163953L208.33888848622638,104.65448069123204L210.0055995941162,105.01695040771169L211.67231070200603,105.39883459675058L213.33902180989585,105.81671881897066L215.00573291778565,106.29989981622361L216.67244402567545,106.53252342090857L218.33915513356527,107.00359402592186L220.00586624145507,107.45655581003926L221.6725773493449,107.7800593933634L223.33928845723472,107.98519808441067L225.0059995651245,108.4594571286308L226.6727106730143,108.8068456222745L228.33942178090413,109.01931204675115L230.00613288879396,109.49085571396131L231.67284399668375,109.83879295975336L233.33955510457358,110.27699520332867L235.00626621246337,110.41044604906347L236.67297732035317,110.76968475073856L238.339688428243,110.93771644306396L240.00639953613282,111.5180786074183L241.67311064402264,111.8524862743801L243.33982175191244,112.06627254238602L245.00653285980223,112.1581128372848L246.67324396769206,112.72548471371331L248.33995507558186,113.03600747035554L250.00666618347168,113.43119416837018L251.6733772913615,113.5363275110008L253.3400883992513,113.94452815005113L255.0067995071411,114.24014471687023L256.6735106150309,114.66824235192058L258.3402217229208,114.67610464563242L260.00693283081057,114.96398191491087L261.67364393870037,115.22548596671426L263.34035504659016,115.62382798958197L265.00706615447996,115.8826119337534L266.67377726236975,116.01275607473212L268.3404883702596,116.40539296750568L270.0071994781494,116.75694440848176L271.6739105860392,116.72698537955449L273.34062169392905,117.02974991616819L275.00733280181885,117.32558409159785L276.6740439097087,117.47921577065078L278.3407550175985,117.57098037559808L280.0074661254883,117.97323462283384L281.6741772333781,117.99031216814056" fill="none"></path></g></g></g></g></g></g><g transform="translate(30, 178)" clip-path="url(#clip_1)"><clipPath id="clip_1"><rect width="300" height="21"></rect></clipPath><g><g><line x1="0" y1="0" x2="0" y2="5" style="visibility: inherit;" fill="rgb(0, 0, 0)" stroke="rgb(204, 204, 204)" stroke-width="1px"></line><line x1="33.33422215779622" y1="0" x2="33.33422215779622" y2="5" style="visibility: inherit;" fill="rgb(0, 0, 0)" stroke="rgb(204, 204, 204)" stroke-width="1px"></line><line x1="66.66844431559244" y1="0" x2="66.66844431559244" y2="5" style="visibility: inherit;" fill="rgb(0, 0, 0)" stroke="rgb(204, 204, 204)" stroke-width="1px"></line><line x1="100.00266647338867" y1="0" x2="100.00266647338867" y2="5" style="visibility: inherit;" fill="rgb(0, 0, 0)" stroke="rgb(204, 204, 204)" stroke-width="1px"></line><line x1="133.33688863118488" y1="0" x2="133.33688863118488" y2="5" style="visibility: inherit;" fill="rgb(0, 0, 0)" stroke="rgb(204, 204, 204)" stroke-width="1px"></line><line x1="166.67111078898114" y1="0" x2="166.67111078898114" y2="5" style="visibility: inherit;" fill="rgb(0, 0, 0)" stroke="rgb(204, 204, 204)" stroke-width="1px"></line><line x1="200.00533294677734" y1="0" x2="200.00533294677734" y2="5" style="visibility: inherit;" fill="rgb(0, 0, 0)" stroke="rgb(204, 204, 204)" stroke-width="1px"></line><line x1="233.33955510457358" y1="0" x2="233.33955510457358" y2="5" style="visibility: inherit;" fill="rgb(0, 0, 0)" stroke="rgb(204, 204, 204)" stroke-width="1px"></line><line x1="266.67377726236975" y1="0" x2="266.67377726236975" y2="5" style="visibility: inherit;" fill="rgb(0, 0, 0)" stroke="rgb(204, 204, 204)" stroke-width="1px"></line><line x1="300.007999420166" y1="0" x2="300.007999420166" y2="5" style="visibility: inherit;" fill="rgb(0, 0, 0)" stroke="rgb(204, 204, 204)" stroke-width="1px"></line></g><g transform="translate(0, 8)"><text style="text-anchor: middle; visibility: hidden; font-family: &quot;Helvetica Neue&quot;, sans-serif; font-size: 12px; font-weight: 200;" x="0" y="0" dx="0em" dy="0.95em" fill="rgb(50, 49, 63)" stroke="none" stroke-width="1px">-20</text><text style="text-anchor: middle; visibility: hidden; font-family: &quot;Helvetica Neue&quot;, sans-serif; font-size: 12px; font-weight: 200;" x="33.33422215779622" y="0" dx="0em" dy="0.95em" fill="rgb(50, 49, 63)" stroke="none" stroke-width="1px">0</text><text style="text-anchor: middle; visibility: hidden; font-family: &quot;Helvetica Neue&quot;, sans-serif; font-size: 12px; font-weight: 200;" x="66.66844431559244" y="0" dx="0em" dy="0.95em" fill="rgb(50, 49, 63)" stroke="none" stroke-width="1px">20</text><text style="text-anchor: middle; visibility: hidden; font-family: &quot;Helvetica Neue&quot;, sans-serif; font-size: 12px; font-weight: 200;" x="100.00266647338867" y="0" dx="0em" dy="0.95em" fill="rgb(50, 49, 63)" stroke="none" stroke-width="1px">40</text><text style="text-anchor: middle; visibility: hidden; font-family: &quot;Helvetica Neue&quot;, sans-serif; font-size: 12px; font-weight: 200;" x="133.33688863118488" y="0" dx="0em" dy="0.95em" fill="rgb(50, 49, 63)" stroke="none" stroke-width="1px">60</text><text style="text-anchor: middle; visibility: hidden; font-family: &quot;Helvetica Neue&quot;, sans-serif; font-size: 12px; font-weight: 200;" x="166.67111078898114" y="0" dx="0em" dy="0.95em" fill="rgb(50, 49, 63)" stroke="none" stroke-width="1px">80</text><text style="text-anchor: middle; visibility: hidden; font-family: &quot;Helvetica Neue&quot;, sans-serif; font-size: 12px; font-weight: 200;" x="200.00533294677734" y="0" dx="0em" dy="0.95em" fill="rgb(50, 49, 63)" stroke="none" stroke-width="1px">100</text><text style="text-anchor: middle; visibility: hidden; font-family: &quot;Helvetica Neue&quot;, sans-serif; font-size: 12px; font-weight: 200;" x="233.33955510457358" y="0" dx="0em" dy="0.95em" fill="rgb(50, 49, 63)" stroke="none" stroke-width="1px">120</text><text style="text-anchor: middle; visibility: hidden; font-family: &quot;Helvetica Neue&quot;, sans-serif; font-size: 12px; font-weight: 200;" x="266.67377726236975" y="0" dx="0em" dy="0.95em" fill="rgb(50, 49, 63)" stroke="none" stroke-width="1px">140</text><text style="text-anchor: middle; visibility: hidden; font-family: &quot;Helvetica Neue&quot;, sans-serif; font-size: 12px; font-weight: 200;" x="300.007999420166" y="0" dx="0em" dy="0.95em" fill="rgb(50, 49, 63)" stroke="none" stroke-width="1px">160</text></g><line x1="0" y1="0" x2="300.007999420166" y2="0" fill="rgb(0, 0, 0)" stroke="rgb(204, 204, 204)" stroke-width="1px"></line></g></g></g></g></svg>