<svg viewBox="0 0 330 200" xmlns="http://www.w3.org/2000/svg"><g><g><g><g><g><line x1="29.992000579833984" y1="178.57499980926514" x2="24.992000579833984" y2="178.57499980926514" style="visibility: inherit;" fill="rgb(0, 0, 0)" stroke="rgb(204, 204, 204)" stroke-width="1px"></line><line x1="29.992000579833984" y1="158.73333316379123" x2="24.992000579833984" y2="158.73333316379123" style="visibility: inherit;" fill="rgb(0, 0, 0)" stroke="rgb(204, 204, 204)" stroke-width="1px"></line><line x1="29.992000579833984" y1="138.89166651831732" x2="24.992000579833984" y2="138.89166651831732" style="visibility: inherit;" fill="rgb(0, 0, 0)" stroke="rgb(204, 204, 204)" stroke-width="1px"></line><line x1="29.992000579833984" y1="119.04999987284343" x2="24.992000579833984" y2="119.04999987284343" style="visibility: inherit;" fill="rgb(0, 0, 0)" stroke="rgb(204, 204, 204)" stroke-width="1px"></line><line x1="29.992000579833984" y1="99.20833322736952" x2="24.992000579833984" y2="99.20833322736952" style="visibility: inherit;" fill="rgb(0, 0, 0)" stroke="rgb(204, 204, 204)" stroke-width="1px"></line><line x1="29.992000579833984" y1="79.36666658189561" x2="24.992000579833984" y2="79.36666658189561" style="visibility: inherit;" fill="rgb(0, 0, 0)" stroke="rgb(204, 204, 204)" stroke-width="1px"></line><line x1="29.992000579833984" y1="59.52499993642172" x2="24.992000579833984" y2="59.52499993642172" style="visibility: inherit;" fill="rgb(0, 0, 0)" stroke="rgb(204, 204, 204)" stroke-width="1px"></line><line x1="29.992000579833984" y1="39.683333290947814" x2="24.992000579833984" y2="39.683333290947814" style="visibility: inherit;" fill="rgb(0, 0, 0)" stroke="rgb(204, 204, 204)" stroke-width="1px"></line><line x1="29.992000579833984" y1="19.841666645473907" x2="24.992000579833984" y2="19.841666645473907" style="visibility: inherit;" fill="rgb(0, 0, 0)" stroke="rgb(204, 204, 204)" stroke-width="1px"></line><line x1="29.992000579833984" y1="0" x2="24.992000579833984" y2="0" style="visibility: inherit;" fill="rgb(0, 0, 0)" stroke="rgb(204, 204, 204)" stroke-width="1px"></line></g><g transform="translate(19.992000579833984, 0)"><text style="text-anchor: end; visibility: hidden; font-family: &quot;Helvetica Neue&quot;, sans-serif; font-size: 12px; font-weight: 200;" x="0" y="178.57499980926514" dx="0em" dy="0.3em" fill="rgb(50, 49, 63)" stroke="none" stroke-width="1px">-1</text><text style="text-anchor: end; visibility: inherit; font-family: &quot;Helvetica Neue&quot;, sans-serif; font-size: 12px; font-weight: 200;" x="0" y="158.73333316379123" dx="0em" dy="0.3em" fill="rgb(50, 49, 63)" stroke="none" stroke-width="1px">0</text><text style="text-anchor: end; visibility: hidden; font-family: &quot;Helvetica Neue&quot;, sans-serif; font-size: 12px; font-weight: 200;" x="0" y="138.89166651831732" dx="0em" dy="0.3em" fill="rgb(50, 49, 63)" stroke="none" stroke-width="1px">1</text><text style="text-anchor: end; visibility: inherit; font-family: &quot;Helvetica Neue&quot;, sans-serif; font-size: 12px; font-weight: 200;" x="0" y="119.04999987284343" dx="0em" dy="0.3em" fill="rgb(50, 49, 63)" stroke="none" stroke-width="1px">2</text><text style="text-anchor: end; visibility: hidden; font-family: &quot;Helvetica Neue&quot;, sans-serif; font-size: 12px; font-weight: 200;" x="0" y="99.20833322736952" dx="0em" dy="0.3em" fill="rgb(50, 49, 63)" stroke="none" stroke-width="1px">3</text><text style="text-anchor: end; visibility: inherit; font-family: &quot;Helvetica Neue&quot;, sans-serif; font-size: 12px; font-weight: 200;" x="0" y="79.36666658189561" dx="0em" dy="0.3em" fill="rgb(50, 49, 63)" stroke="none" stroke-width="1px">4</text><text style="text-anchor: end; visibility: hidden; font-family: &quot;Helvetica Neue&quot;, sans-serif; font-size: 12px; font-weight: 200;" x="0" y="59.52499993642172" dx="0em" dy="0.3em" fill="rgb(50, 49, 63)" stroke="none" stroke-width="1px">5</text><text style="text-anchor: end; visibility: inherit; font-family: &quot;Helvetica Neue&quot;, sans-serif; font-size: 12px; font-weight: 200;" x="0" y="39.683333290947814" dx="0em" dy="0.3em" fill="rgb(50, 49, 63)" stroke="none" stroke-width="1px">6</text><text style="text-anchor: end; visibility: hidden; font-family: &quot;Helvetica Neue&quot;, sans-serif; font-size: 12px; font-weight: 200;" x="0" y="19.841666645473907" dx="0em" dy="0.3em" fill="rgb(50, 49, 63)" stroke="none" stroke-width="1px">7</text><text style="text-anchor: end; visibility: hidden; font-family: &quot;Helvetica Neue&quot;, sans-serif; font-size: 12px; font-weight: 200;" x="0" y="0" dx="0em" dy="0.3em" fill="rgb(50, 49, 63)" stroke="none" stroke-width="1px">8</text></g><line x1="29.992000579833984" y1="0" x2="29.992000579833984" y2="178.57499980926514" fill="rgb(0, 0, 0)" stroke="rgb(204, 204, 204)" stroke-width="1px"></line></g></g><g transform="translate(30, 0)" clip-path="url(#clip_0)"><clipPath id="clip_0"><rect width="300" height="178"></rect></clipPath><g><g><g><line x1="0" y1="0" x2="0" y2="178.57499980926514" fill="rgb(0, 0, 0)" stroke="rgb(60, 60, 60)" stroke-width="1px" opacity="0.25"></line><line x1="25.000666618347168" y1="0" x2="25.000666618347168" y2="178.57499980926514" fill="rgb(0, 0, 0)" stroke="rgb(60, 60, 60)" stroke-width="1px" opacity="0.25"></line><line x1="50.001333236694336" y1="0" x2="50.001333236694336" y2="178.57499980926514" fill="rgb(0, 0, 0)" stroke="rgb(60, 60, 60)" stroke-width="1px" opacity="0.25"></line><line x1="75.0019998550415" y1="0" x2="75.0019998550415" y2="178.57499980926514" fill="rgb(0, 0, 0)" stroke="rgb(60, 60, 60)" stroke-width="1px" opacity="0.25"></line><line x1="100.00266647338867" y1="0" x2="100.00266647338867" y2="178.57499980926514" fill="rgb(0, 0, 0)" stroke="rgb(60, 60, 60)" stroke-width="1px" opacity="0.25"></line><line x1="125.00333309173584" y1="0" x2="125.00333309173584" y2="178.57499980926514" fill="rgb(0, 0, 0)" stroke="rgb(60, 60, 60)" stroke-width="1px" opacity="0.25"></line><line x1="150.003999710083" y1="0" x2="150.003999710083" y2="178.57499980926514" fill="rgb(0, 0, 0)" stroke="rgb(60, 60, 60)" stroke-width="1px" opacity="0.25"></line><line x1="175.00466632843018" y1="0" x2="175.00466632843018" y2="178.57499980926514" fill="rgb(0, 0, 0)" stroke="rgb(60, 60, 60)" stroke-width="1px" opacity="0.25"></line><line x1="200.00533294677734" y1="0" x2="200.00533294677734" y2="178.57499980926514" fill="rgb(0, 0, 0)" stroke="rgb(60, 60, 60)" stroke-width="1px" opacity="0.25"></line><line x1="225.0059995651245" y1="0" x2="225.0059995651245" y2="178.57499980926514" fill="rgb(0, 0, 0)" stroke="rgb(60, 60, 60)" stroke-width="1px" opacity="0.25"></line><line x1="250.00666618347168" y1="0" x2="250.00666618347168" y2="178.57499980926514" fill="rgb(0, 0, 0)" stroke="rgb(60, 60, 60)" stroke-width="1px" opacity="0.25"></line><line x1="275.00733280181885" y1="0" x2="275.00733280181885" y2="178.57499980926514" fill="rgb(0, 0, 0)" stroke="rgb(60, 60, 60)" stroke-width="1px" opacity="0.25"></line><line x1="300.007999420166" y1="0" x2="300.007999420166" y2="178.57499980926514" fill="rgb(0, 0, 0)" stroke="rgb(60, 60, 60)" stroke-width="1px" opacity="0.25"></line></g><g><line x1="0" y1="178.57499980926514" x2="300.007999420166" y2="178.57499980926514" fill="rgb(0, 0, 0)" stroke="rgb(60, 60, 60)" stroke-width="1px" opacity="0.25"></line><line x1="0" y1="158.73333316379123" x2="300.007999420166" y2="158.73333316379123" fill="rgb(0, 0, 0)" stroke="rgb(60, 60, 60)" stroke-width="1px" opacity="0.25"></line><line x1="0" y1="138.89166651831732" x2="300.007999420166" y2="138.89166651831732" fill="rgb(0, 0, 0)" stroke="rgb(60, 60, 60)" stroke-width="1px" opacity="0.25"></line><line x1="0" y1="119.04999987284343" x2="300.007999420166" y2="119.04999987284343" fill="rgb(0, 0, 0)" stroke="rgb(60, 60, 60)" stroke-width="1px" opacity="0.25"></line><line x1="0" y1="99.20833322736952" x2="300.007999420166" y2="99.20833322736952" fill="rgb(0, 0, 0)" stroke="rgb(60, 60, 60)" stroke-width="1px" opacity="0.25"></line><line x1="0" y1="79.36666658189561" x2="300.007999420166" y2="79.36666658189561" fill="rgb(0, 0, 0)" stroke="rgb(60, 60, 60)" stroke-width="1px" opacity="0.25"></line><line x1="0" y1="59.52499993642172" x2="300.007999420166" y2="59.52499993642172" fill="rgb(0, 0, 0)" stroke="rgb(60, 60, 60)" stroke-width="1px" opacity="0.25"></line><line x1="0" y1="39.683333290947814" x2="300.007999420166" y2="39.683333290947814" fill="rgb(0, 0, 0)" stroke="rgb(60, 60, 60)" stroke-width="1px" opacity="0.25"></line><line x1="0" y1="19.841666645473907" x2="300.007999420166" y2="19.841666645473907" fill="rgb(0, 0, 0)" stroke="rgb(60, 60, 60)" stroke-width="1px" opacity="0.25"></line><line x1="0" y1="0" x2="300.007999420166" y2="0" fill="rgb(0, 0, 0)" stroke="rgb(60, 60, 60)" stroke-width="1px" opacity="0.25"></line></g></g></g><g><g><line x1="0" y1="158.73333316379123" x2="300.007999420166" y2="158.73333316379123" fill="rgb(0, 0, 0)" stroke="rgb(153, 153, 153)" stroke-width="1.5px"></line></g></g><g><g><line x1="25.000666618347168" y1="0" x2="25.000666618347168" y2="178.57499980926514" fill="rgb(0, 0, 0)" stroke="rgb(153, 153, 153)" stroke-width="1.5px"></line></g></g><g><g><g><g><g><path style="fill: none;" stroke="rgb(0, 119, 187)" stroke-width="2px" d="M25.000666618347168,6.4998272786652365L27.500733280181883,21.304261423244185L30.000799942016602,22.76365830056369L32.50086660385132,24.60660454585505L35.00093326568604,27.442215043797802L37.50099992752075,29.769898660969773L40.00106658935547,27.98291567356722L42.50113325119018,31.617499838278235L45.0011999130249,33.89777316208068L47.50126657485961,36.04519169851639L50.001333236694336,37.82066035204733L52.50139989852905,39.26424749074769L55.00146656036377,40.71933004083181L57.50153322219849,41.87304358778297L60.001599884033205,42.87880220204357L62.50166654586792,43.791045881228456L65.00173320770264,45.25277968580045L67.50179986953735,46.67357468785602L70.00186653137207,47.97730571867609L72.50193319320678,49.26803700032639L75.0019998550415,50.16729039158545L77.50206651687623,51.07345049091869L80.00213317871093,51.311012864938874L82.50219984054566,50.43718183613919L85.00226650238037,52.658539993944444L87.50233316421509,54.21718532016561L90.0023998260498,55.261706650837056L92.50246648788453,56.2447393571604L95.00253314971923,57.12958327390302L97.50259981155396,58.157254129122265L100.00266647338867,59.1628235185041L102.5027331352234,59.78209977917231L105.0027997970581,58.74765467329402L107.50286645889283,60.3421770365252L110.00293312072753,61.52149270957054L112.50299978256226,62.516418199522974L115.00306644439698,63.373304140431074L117.50313310623169,64.23761715782989L120.00319976806641,65.1234166602102L122.50326642990112,65.81390770399402L125.00333309173584,66.59552944938136L127.50339975357055,67.31026966137632L130.00346641540528,68.0330897756937L132.50353307723998,68.68609537099817L135.0035997390747,69.37560244541251L137.50366640090942,69.98934387837744L140.00373306274415,70.63333290820972L142.50379972457884,71.22556893370529" fill="none"></path></g><g><path style="fill: none;" stroke="rgb(0, 119, 187)" stroke-width="2px" d="M25.000666618347168,2.090272623054773L27.500733280181883,17.193700998538446L30.000799942016602,19.384575028377895L32.50086660385132,20.6418513514661L35.00093326568604,22.520967932329512L37.50099992752075,24.665103417119013L40.00106658935547,26.455937130804017L42.50113325119018,27.909931637835342L45.0011999130249,29.28699677041297L47.50126657485961,30.728067218226045L50.001333236694336,32.29252174822469L52.50139989852905,33.86778101879963L55.00146656036377,35.410105699229064L57.50153322219849,36.929941002819675L60.001599884033205,38.401523962330344L62.50166654586792,39.83949112213199L65.00173320770264,40.75173480131687L67.50179986953735,21.825935491455823L70.00186653137207,36.03293938761766L72.50193319320678,42.89763007747868L75.0019998550415,44.29809286631311L77.50206651687623,45.455231383569554L80.00213317871093,46.62678883658637L82.50219984054566,47.726336761996805L85.00226650238037,48.72983413895639L87.50233316421509,49.83794449013007L90.0023998260498,50.87488736440778L92.50246648788453,51.87858342749006L95.00253314971923,52.91718201945682L97.50259981155396,53.87657107718097L100.00266647338867,54.94139623734176L102.5027331352234,55.97637117288055L105.0027997970581,56.94489033100413L107.50286645889283,57.93437560569268L110.00293312072753,58.899450871023106L112.50299978256226,59.77857073518372L115.00306644439698,60.731355844639694L117.50313310623169,61.65957956483457L120.00319976806641,62.58649763336612L122.50326642990112,63.445862420185776L125.00333309173584,64.43200787576447L127.50339975357055,65.21495419530301L130.00346641540528,66.10221072924965L132.50353307723998,66.93245380723046L135.0035997390747,67.72604402619841L137.50366640090942,68.5090565744445L140.00373306274415,69.24095948294163L142.50379972457884,69.94722242036883L145.00386638641356,70.62676680491727L147.50393304824829,71.30337820384516L150.003999710083,72.05394814663046L152.5040663719177,72.73222472449132L155.00413303375245,73.36350730371588L157.50419969558718,74.02682565491195L160.00426635742187,74.63845723047885L162.5043330192566,75.21006774419125L165.00439968109131,75.72568661628303L167.50446634292604,76.31160253082852L170.00453300476073,76.84987162090606L172.50459966659545,77.414916031326L175.00466632843018,78.0512887597888L177.5047329902649,78.56825112851968L180.0047996520996,79.01677085860855L182.50486631393431,79.51202440312542L185.00493297576907,79.95147553090045L187.50499963760376,80.25200248332298L190.00506629943845,80.91538706322662L192.5051329612732,81.24510668381751L195.00519962310793,81.68289736328155L197.50526628494262,82.088817842543L200.00533294677734,82.48567918073454L202.50539960861207,82.9792722769404L205.0054662704468,83.30355641288938L207.50553293228148,83.69884718458732L210.0055995941162,84.18536327032815L212.50566625595093,84.50943452828851L215.00573291778565,84.83553522307342L217.50579957962034,85.30254695443763L220.00586624145507,85.6227580248716L222.50593290328982,86.01031422965085L225.0059995651245,86.38763336849001L227.5060662269592,86.6119310785102L230.00613288879396,87.01971542282728L232.50619955062868,87.34070231526411L235.00626621246337,87.68609448643704L237.5063328742981,87.89726472049429L240.00639953613282,88.33493240378716L242.50646619796754,88.54473075747352L245.00653285980223,88.90632057826701L247.50659952163696,89.17730479649552L250.00666618347168,89.37506371727174L252.5067328453064,89.77421467649609L255.0067995071411,90.06072952664756L257.5068661689758,90.37019262396883L260.00693283081057,90.57072841984063L262.50699949264526,90.81116228139578L265.00706615447996,91.27745022759879L267.5071328163147,91.48119338516533L270.0071994781494,91.73276786145657L272.50726613998415,92.00113604573643L275.00733280181885,92.2966532694942L277.5073994636536,92.53065821579399L280.0074661254883,92.78167447869295" fill="none"></path></g><g><path style="fill: none;" stroke="rgb(204, 51, 17)" stroke-width="2px" d="M25.000666618347168,-5.292222486247539L27.500733280181883,17.570457193363325L30.000799942016602,19.328403623122483L32.50086660385132,20.880463923563326L35.00093326568604,22.400204614714568L37.50099992752075,23.24858489732307L40.00106658935547,23.95313534959763L42.50113325119018,25.013371806448873L45.0011999130249,26.242046789114795L47.50126657485961,27.349750306799166L50.001333236694336,28.422418838183916L52.50139989852905,29.470100224330423L55.00146656036377,30.545484132725136L57.50153322219849,31.656309860908806L60.001599884033205,32.71223199052466L62.50166654586792,33.77156962920182L65.00173320770264,32.11985404637002L67.50179986953735,32.891494179403566L70.00186653137207,34.1499720804718L72.50193319320678,34.98803960718871L75.0019998550415,35.83594682760037L77.50206651687623,36.6520926521147L80.00213317871093,37.39773328680869L82.50219984054566,38.20991485011331L85.00226650238037,38.853118596698806L87.50233316421509,39.65224364337004L90.0023998260498,40.386455095387845L92.50246648788453,41.14057300464961L95.00253314971923,42.000022942664685L97.50259981155396,42.779865974191836L100.00266647338867,42.99657576657435L102.5027331352234,43.557381539710406L105.0027997970581,43.93887781774785L107.50286645889283,43.32587436181004L110.00293312072753,44.21649909859835L112.50299978256226,45.48917832681636L115.00306644439698,46.6370637475022L117.50313310623169,47.576943720227774L120.00319976806641,48.37909636495891L122.50326642990112,49.346177414004075L125.00333309173584,50.035788562101715L127.50339975357055,50.846834776133875L130.00346641540528,51.60941103747554L132.50353307723998,52.4627868568829L135.0035997390747,53.315046249505684L137.50366640090942,54.03077989211407L140.00373306274415,54.78576823581807L142.50379972457884,55.557455675071296L145.00386638641356,56.49659767076977L147.50393304824829,57.247621753264056L150.003999710083,57.905991873880936L152.5040663719177,58.680735294925896L155.00413303375245,59.67040979449317L157.50419969558718,60.48549595968653L160.00426635742187,61.10256775051735L162.5043330192566,61.27876449636061L165.00439968109131,62.406175785166255L167.50446634292604,62.6704567120652L170.00453300476073,63.48031080936127L172.50459966659545,64.42638789686575L175.00466632843018,65.15718383982221L177.5047329902649,65.15862194890067L180.0047996520996,66.61351527410605L182.50486631393431,67.13109262369285L185.00493297576907,68.23403713567677L187.50499963760376,69.25603124453366L190.00506629943845,69.44353417688191L192.5051329612732,70.34327009158177L195.00519962310793,71.29599843357411L197.50526628494262,70.42174164879725L200.00533294677734,68.37281466174822L202.50539960861207,69.24439391449086L205.0054662704468,69.82657263768114L207.50553293228148,70.81450626836396L210.0055995941162,67.95817564619861L212.50566625595093,67.40182611895702L215.00573291778565,67.76571502202725L217.50579957962034,68.04015732491482L220.00586624145507,69.14462509717264L222.50593290328982,69.91919821582674" fill="none"></path></g><g><path style="fill: none;" stroke="rgb(187, 187, 187)" stroke-width="2px" d="M25.000666618347168,7.34160361300556L27.500733280181883,17.74029598328076L30.000799942016602,21.06417289709276L32.50086660385132,24.08867713024256L35.00093326568604,23.68221262945471L37.50099992752075,25.17715540024645L40.00106658935547,27.993067588311902L42.50113325119018,30.28278323356372L45.0011999130249,32.22943417365113L47.50126657485961,34.004760908523025L50.001333236694336,35.654764006202186L52.50139989852905,37.19329472781277L55.00146656036377,38.8311401270326L57.50153322219849,40.384345237989834L60.001599884033205,42.025322308952894L62.50166654586792,43.71046446661498L65.00173320770264,45.43486132537268L67.50179986953735,47.168350439554075L70.00186653137207,48.818012932451495L72.50193319320678,50.56154988769421L75.0019998550415,52.3973150488372L77.50206651687623,54.1369823553096L80.00213317871093,55.879724566061626L82.50219984054566,57.62815298441991L85.00226650238037,59.32227386257844L87.50233316421509,60.97788747791239L90.0023998260498,62.73743285789695L92.50246648788453,64.36809717296839L95.00253314971923,66.04573656418825L97.50259981155396,67.69460431259495L100.00266647338867,69.29195558776337L102.5027331352234,70.75366100860356L105.0027997970581,72.30756625161216L107.50286645889283,73.84697686890891L110.00293312072753,75.39405109379484L112.50299978256226,76.87598465417285L115.00306644439698,78.26166897997732L117.50313310623169,79.65266106363056L120.00319976806641,80.99903865149773L122.50326642990112,82.28339305473433L125.00333309173584,83.55964390253868L127.50339975357055,84.80509840132731L130.00346641540528,85.9740965878591L132.50353307723998,87.07367762762333L135.0035997390747,88.055603368406L137.50366640090942,89.14046744322586L140.00373306274415,90.22778671084744L142.50379972457884,91.11351998452018L145.00386638641356,92.08874243397331L147.50393304824829,92.88869533948905L150.003999710083,93.69526165451693L152.5040663719177,94.51308684983012L155.00413303375245,95.27333091454125L157.50419969558718,96.07672771285014L160.00426635742187,96.84160305646856L162.5043330192566,97.48679366428087L165.00439968109131,98.17789495829864L167.50446634292604,98.68257190177701L170.00453300476073,99.39017360522134L172.50459966659545,99.93328685219474L175.00466632843018,100.45247734387284L177.5047329902649,101.03902716176212L180.0047996520996,101.58352175035039L182.50486631393431,102.14671648758058L185.00493297576907,102.62765990064239L187.50499963760376,103.11969662222059L190.00506629943845,103.5805301612938L192.5051329612732,104.10582788593338L195.00519962310793,104.49048895006783L197.50526628494262,104.92668540992845L200.00533294677734,105.31701375918131L202.50539960861207,105.75825306206048" fill="none"></path></g><g><path style="fill: none;" stroke="rgb(255, 112, 67)" stroke-width="2px" d="M25.000666618347168,6.280326419321227L27.500733280181883,17.764441077808584L30.000799942016602,20.122334446872173L32.50086660385132,23.176338838618307L35.00093326568604,25.579939477142688L37.50099992752075,27.80227214307348L40.00106658935547,30.137174689369573L42.50113325119018,32.69277967298967L45.0011999130249,35.02250691885209L47.50126657485961,36.96561935370701L50.001333236694336,38.80605836935496L52.50139989852905,40.65572209784173L55.00146656036377,42.31881009588611L57.50153322219849,43.83693291432408L60.001599884033205,45.321837305298374L62.50166654586792,46.63855862404429L65.00173320770264,47.87285358560894L67.50179986953735,49.14550443009517L70.00186653137207,50.40900625169408L72.50193319320678,51.65354774044276L75.0019998550415,52.80631516300022L77.50206651687623,53.9433958431097L80.00213317871093,55.091650252309094L82.50219984054566,56.264749888087664L85.00226650238037,57.32711512482476L87.50233316421509,58.36585563545057L90.0023998260498,59.43212836593375L92.50246648788453,60.53012464733851L95.00253314971923,61.55701021931095L97.50259981155396,62.569703925377524L100.00266647338867,63.67175908043136L102.5027331352234,64.68658156638381L105.0027997970581,65.6213335448954L107.50286645889283,66.66821072530725L110.00293312072753,67.5981563918987L112.50299978256226,68.53583189478691L115.00306644439698,69.40410917339543L117.50313310623169,70.2270481710567L120.00319976806641,70.98791194724572L122.50326642990112,71.76146325155459L125.00333309173584,72.59066559270231L127.50339975357055,73.37104791513386L130.00346641540528,74.0556729876766L132.50353307723998,74.7552279031523L135.0035997390747,75.4752096442885L137.50366640090942,76.11463835454302L140.00373306274415,76.74722658543092L142.50379972457884,77.34181846066687" fill="none"></path></g></g></g></g></g></g><g transform="translate(30, 178)" clip-path="url(#clip_1)"><clipPath id="clip_1"><rect width="300" height="21"></rect></clipPath><g><g><line x1="0" y1="0" x2="0" y2="5" style="visibility: inherit;" fill="rgb(0, 0, 0)" stroke="rgb(204, 204, 204)" stroke-width="1px"></line><line x1="25.000666618347168" y1="0" x2="25.000666618347168" y2="5" style="visibility: inherit;" fill="rgb(0, 0, 0)" stroke="rgb(204, 204, 204)" stroke-width="1px"></line><line x1="50.001333236694336" y1="0" x2="50.001333236694336" y2="5" style="visibility: inherit;" fill="rgb(0, 0, 0)" stroke="rgb(204, 204, 204)" stroke-width="1px"></line><line x1="75.0019998550415" y1="0" x2="75.0019998550415" y2="5" style="visibility: inherit;" fill="rgb(0, 0, 0)" stroke="rgb(204, 204, 204)" stroke-width="1px"></line><line x1="100.00266647338867" y1="0" x2="100.00266647338867" y2="5" style="visibility: inherit;" fill="rgb(0, 0, 0)" stroke="rgb(204, 204, 204)" stroke-width="1px"></line><line x1="125.00333309173584" y1="0" x2="125.00333309173584" y2="5" style="visibility: inherit;" fill="rgb(0, 0, 0)" stroke="rgb(204, 204, 204)" stroke-width="1px"></line><line x1="150.003999710083" y1="0" x2="150.003999710083" y2="5" style="visibility: inherit;" fill="rgb(0, 0, 0)" stroke="rgb(204, 204, 204)" stroke-width="1px"></line><line x1="175.00466632843018" y1="0" x2="175.00466632843018" y2="5" style="visibility: inherit;" fill="rgb(0, 0, 0)" stroke="rgb(204, 204, 204)" stroke-width="1px"></line><line x1="200.00533294677734" y1="0" x2="200.00533294677734" y2="5" style="visibility: inherit;" fill="rgb(0, 0, 0)" stroke="rgb(204, 204, 204)" stroke-width="1px"></line><line x1="225.0059995651245" y1="0" x2="225.0059995651245" y2="5" style="visibility: inherit;" fill="rgb(0, 0, 0)" stroke="rgb(204, 204, 204)" stroke-width="1px"></line><line x1="250.00666618347168" y1="0" x2="250.00666618347168" y2="5" style="visibility: inherit;" fill="rgb(0, 0, 0)" stroke="rgb(204, 204, 204)" stroke-width="1px"></line><line x1="275.00733280181885" y1="0" x2="275.00733280181885" y2="5" style="visibility: inherit;" fill="rgb(0, 0, 0)" stroke="rgb(204, 204, 204)" stroke-width="1px"></line><line x1="300.007999420166" y1="0" x2="300.007999420166" y2="5" style="visibility: inherit;" fill="rgb(0, 0, 0)" stroke="rgb(204, 204, 204)" stroke-width="1px"></line></g><g transform="translate(0, 8)"><text style="text-anchor: middle; visibility: hidden; font-family: &quot;Helvetica Neue&quot;, sans-serif; font-size: 12px; font-weight: 200;" x="0" y="0" dx="0em" dy="0.95em" fill="rgb(50, 49, 63)" stroke="none" stroke-width="1px">-10</text><text style="text-anchor: middle; visibility: hidden; font-family: &quot;Helvetica Neue&quot;, sans-serif; font-size: 12px; font-weight: 200;" x="25.000666618347168" y="0" dx="0em" dy="0.95em" fill="rgb(50, 49, 63)" stroke="none" stroke-width="1px">0</text><text style="text-anchor: middle; visibility: hidden; font-family: &quot;Helvetica Neue&quot;, sans-serif; font-size: 12px; font-weight: 200;" x="50.001333236694336" y="0" dx="0em" dy="0.95em" fill="rgb(50, 49, 63)" stroke="none" stroke-width="1px">10</text><text style="text-anchor: middle; visibility: hidden; font-family: &quot;Helvetica Neue&quot;, sans-serif; font-size: 12px; font-weight: 200;" x="75.0019998550415" y="0" dx="0em" dy="0.95em" fill="rgb(50, 49, 63)" stroke="none" stroke-width="1px">20</text><text style="text-anchor: middle; visibility: hidden; font-family: &quot;Helvetica Neue&quot;, sans-serif; font-size: 12px; font-weight: 200;" x="100.00266647338867" y="0" dx="0em" dy="0.95em" fill="rgb(50, 49, 63)" stroke="none" stroke-width="1px">30</text><text style="text-anchor: middle; visibility: hidden; font-family: &quot;Helvetica Neue&quot;, sans-serif; font-size: 12px; font-weight: 200;" x="125.00333309173584" y="0" dx="0em" dy="0.95em" fill="rgb(50, 49, 63)" stroke="none" stroke-width="1px">40</text><text style="text-anchor: middle; visibility: hidden; font-family: &quot;Helvetica Neue&quot;, sans-serif; font-size: 12px; font-weight: 200;" x="150.003999710083" y="0" dx="0em" dy="0.95em" fill="rgb(50, 49, 63)" stroke="none" stroke-width="1px">50</text><text style="text-anchor: middle; visibility: hidden; font-family: &quot;Helvetica Neue&quot;, sans-serif; font-size: 12px; font-weight: 200;" x="175.00466632843018" y="0" dx="0em" dy="0.95em" fill="rgb(50, 49, 63)" stroke="none" stroke-width="1px">60</text><text style="text-anchor: middle; visibility: hidden; font-family: &quot;Helvetica Neue&quot;, sans-serif; font-size: 12px; font-weight: 200;" x="200.00533294677734" y="0" dx="0em" dy="0.95em" fill="rgb(50, 49, 63)" stroke="none" stroke-width="1px">70</text><text style="text-anchor: middle; visibility: hidden; font-family: &quot;Helvetica Neue&quot;, sans-serif; font-size: 12px; font-weight: 200;" x="225.0059995651245" y="0" dx="0em" dy="0.95em" fill="rgb(50, 49, 63)" stroke="none" stroke-width="1px">80</text><text style="text-anchor: middle; visibility: hidden; font-family: &quot;Helvetica Neue&quot;, sans-serif; font-size: 12px; font-weight: 200;" x="250.00666618347168" y="0" dx="0em" dy="0.95em" fill="rgb(50, 49, 63)" stroke="none" stroke-width="1px">90</text><text style="text-anchor: middle; visibility: hidden; font-family: &quot;Helvetica Neue&quot;, sans-serif; font-size: 12px; font-weight: 200;" x="275.00733280181885" y="0" dx="0em" dy="0.95em" fill="rgb(50, 49, 63)" stroke="none" stroke-width="1px">100</text><text style="text-anchor: middle; visibility: hidden; font-family: &quot;Helvetica Neue&quot;, sans-serif; font-size: 12px; font-weight: 200;" x="300.007999420166" y="0" dx="0em" dy="0.95em" fill="rgb(50, 49, 63)" stroke="none" stroke-width="1px">110</text></g><line x1="0" y1="0" x2="300.007999420166" y2="0" fill="rgb(0, 0, 0)" stroke="rgb(204, 204, 204)" stroke-width="1px"></line></g></g></g></g></svg>