<svg viewBox="0 0 330 200" xmlns="http://www.w3.org/2000/svg"><g><g><g><g><g><line x1="39.98800086975098" y1="178.57499980926514" x2="34.98800086975098" y2="178.57499980926514" style="visibility: inherit;" fill="rgb(0, 0, 0)" stroke="rgb(204, 204, 204)" stroke-width="1px"></line><line x1="39.98800086975098" y1="156.253124833107" x2="34.98800086975098" y2="156.253124833107" style="visibility: inherit;" fill="rgb(0, 0, 0)" stroke="rgb(204, 204, 204)" stroke-width="1px"></line><line x1="39.98800086975098" y1="133.93124985694885" x2="34.98800086975098" y2="133.93124985694885" style="visibility: inherit;" fill="rgb(0, 0, 0)" stroke="rgb(204, 204, 204)" stroke-width="1px"></line><line x1="39.98800086975098" y1="111.60937488079071" x2="34.98800086975098" y2="111.60937488079071" style="visibility: inherit;" fill="rgb(0, 0, 0)" stroke="rgb(204, 204, 204)" stroke-width="1px"></line><line x1="39.98800086975098" y1="89.28749990463257" x2="34.98800086975098" y2="89.28749990463257" style="visibility: inherit;" fill="rgb(0, 0, 0)" stroke="rgb(204, 204, 204)" stroke-width="1px"></line><line x1="39.98800086975098" y1="66.96562492847443" x2="34.98800086975098" y2="66.96562492847443" style="visibility: inherit;" fill="rgb(0, 0, 0)" stroke="rgb(204, 204, 204)" stroke-width="1px"></line><line x1="39.98800086975098" y1="44.643749952316284" x2="34.98800086975098" y2="44.643749952316284" style="visibility: inherit;" fill="rgb(0, 0, 0)" stroke="rgb(204, 204, 204)" stroke-width="1px"></line><line x1="39.98800086975098" y1="22.321874976158142" x2="34.98800086975098" y2="22.321874976158142" style="visibility: inherit;" fill="rgb(0, 0, 0)" stroke="rgb(204, 204, 204)" stroke-width="1px"></line><line x1="39.98800086975098" y1="0" x2="34.98800086975098" y2="0" style="visibility: inherit;" fill="rgb(0, 0, 0)" stroke="rgb(204, 204, 204)" stroke-width="1px"></line></g><g transform="translate(29.988000869750977, 0)"><text style="text-anchor: end; visibility: hidden; font-family: &quot;Helvetica Neue&quot;, sans-serif; font-size: 12px; font-weight: 200;" x="0" y="178.57499980926514" dx="0em" dy="0.3em" fill="rgb(50, 49, 63)" stroke="none" stroke-width="1px">3.5</text><text style="text-anchor: end; visibility: inherit; font-family: &quot;Helvetica Neue&quot;, sans-serif; font-size: 12px; font-weight: 200;" x="0" y="156.253124833107" dx="0em" dy="0.3em" fill="rgb(50, 49, 63)" stroke="none" stroke-width="1px">4</text><text style="text-anchor: end; visibility: hidden; font-family: &quot;Helvetica Neue&quot;, sans-serif; font-size: 12px; font-weight: 200;" x="0" y="133.93124985694885" dx="0em" dy="0.3em" fill="rgb(50, 49, 63)" stroke="none" stroke-width="1px">4.5</text><text style="text-anchor: end; visibility: inherit; font-family: &quot;Helvetica Neue&quot;, sans-serif; font-size: 12px; font-weight: 200;" x="0" y="111.60937488079071" dx="0em" dy="0.3em" fill="rgb(50, 49, 63)" stroke="none" stroke-width="1px">5</text><text style="text-anchor: end; visibility: hidden; font-family: &quot;Helvetica Neue&quot;, sans-serif; font-size: 12px; font-weight: 200;" x="0" y="89.28749990463257" dx="0em" dy="0.3em" fill="rgb(50, 49, 63)" stroke="none" stroke-width="1px">5.5</text><text style="text-anchor: end; visibility: inherit; font-family: &quot;Helvetica Neue&quot;, sans-serif; font-size: 12px; font-weight: 200;" x="0" y="66.96562492847443" dx="0em" dy="0.3em" fill="rgb(50, 49, 63)" stroke="none" stroke-width="1px">6</text><text style="text-anchor: end; visibility: hidden; font-family: &quot;Helvetica Neue&quot;, sans-serif; font-size: 12px; font-weight: 200;" x="0" y="44.643749952316284" dx="0em" dy="0.3em" fill="rgb(50, 49, 63)" stroke="none" stroke-width="1px">6.5</text><text style="text-anchor: end; visibility: inherit; font-family: &quot;Helvetica Neue&quot;, sans-serif; font-size: 12px; font-weight: 200;" x="0" y="22.321874976158142" dx="0em" dy="0.3em" fill="rgb(50, 49, 63)" stroke="none" stroke-width="1px">7</text><text style="text-anchor: end; visibility: hidden; font-family: &quot;Helvetica Neue&quot;, sans-serif; font-size: 12px; font-weight: 200;" x="0" y="0" dx="0em" dy="0.3em" fill="rgb(50, 49, 63)" stroke="none" stroke-width="1px">7.5</text></g><line x1="39.98800086975098" y1="0" x2="39.98800086975098" y2="178.57499980926514" fill="rgb(0, 0, 0)" stroke="rgb(204, 204, 204)" stroke-width="1px"></line></g></g><g transform="translate(39, 0)" clip-path="url(#clip_0)"><clipPath id="clip_0"><rect width="290" height="178"></rect></clipPath><g><g><g><line x1="0" y1="0" x2="0" y2="178.57499980926514" fill="rgb(0, 0, 0)" stroke="rgb(60, 60, 60)" stroke-width="1px" opacity="0.25"></line><line x1="32.22355545891656" y1="0" x2="32.22355545891656" y2="178.57499980926514" fill="rgb(0, 0, 0)" stroke="rgb(60, 60, 60)" stroke-width="1px" opacity="0.25"></line><line x1="64.44711091783311" y1="0" x2="64.44711091783311" y2="178.57499980926514" fill="rgb(0, 0, 0)" stroke="rgb(60, 60, 60)" stroke-width="1px" opacity="0.25"></line><line x1="96.67066637674967" y1="0" x2="96.67066637674967" y2="178.57499980926514" fill="rgb(0, 0, 0)" stroke="rgb(60, 60, 60)" stroke-width="1px" opacity="0.25"></line><line x1="128.89422183566623" y1="0" x2="128.89422183566623" y2="178.57499980926514" fill="rgb(0, 0, 0)" stroke="rgb(60, 60, 60)" stroke-width="1px" opacity="0.25"></line><line x1="161.1177772945828" y1="0" x2="161.1177772945828" y2="178.57499980926514" fill="rgb(0, 0, 0)" stroke="rgb(60, 60, 60)" stroke-width="1px" opacity="0.25"></line><line x1="193.34133275349933" y1="0" x2="193.34133275349933" y2="178.57499980926514" fill="rgb(0, 0, 0)" stroke="rgb(60, 60, 60)" stroke-width="1px" opacity="0.25"></line><line x1="225.56488821241592" y1="0" x2="225.56488821241592" y2="178.57499980926514" fill="rgb(0, 0, 0)" stroke="rgb(60, 60, 60)" stroke-width="1px" opacity="0.25"></line><line x1="257.78844367133246" y1="0" x2="257.78844367133246" y2="178.57499980926514" fill="rgb(0, 0, 0)" stroke="rgb(60, 60, 60)" stroke-width="1px" opacity="0.25"></line><line x1="290.011999130249" y1="0" x2="290.011999130249" y2="178.57499980926514" fill="rgb(0, 0, 0)" stroke="rgb(60, 60, 60)" stroke-width="1px" opacity="0.25"></line></g><g><line x1="0" y1="178.57499980926514" x2="290.011999130249" y2="178.57499980926514" fill="rgb(0, 0, 0)" stroke="rgb(60, 60, 60)" stroke-width="1px" opacity="0.25"></line><line x1="0" y1="156.253124833107" x2="290.011999130249" y2="156.253124833107" fill="rgb(0, 0, 0)" stroke="rgb(60, 60, 60)" stroke-width="1px" opacity="0.25"></line><line x1="0" y1="133.93124985694885" x2="290.011999130249" y2="133.93124985694885" fill="rgb(0, 0, 0)" stroke="rgb(60, 60, 60)" stroke-width="1px" opacity="0.25"></line><line x1="0" y1="111.60937488079071" x2="290.011999130249" y2="111.60937488079071" fill="rgb(0, 0, 0)" stroke="rgb(60, 60, 60)" stroke-width="1px" opacity="0.25"></line><line x1="0" y1="89.28749990463257" x2="290.011999130249" y2="89.28749990463257" fill="rgb(0, 0, 0)" stroke="rgb(60, 60, 60)" stroke-width="1px" opacity="0.25"></line><line x1="0" y1="66.96562492847443" x2="290.011999130249" y2="66.96562492847443" fill="rgb(0, 0, 0)" stroke="rgb(60, 60, 60)" stroke-width="1px" opacity="0.25"></line><line x1="0" y1="44.643749952316284" x2="290.011999130249" y2="44.643749952316284" fill="rgb(0, 0, 0)" stroke="rgb(60, 60, 60)" stroke-width="1px" opacity="0.25"></line><line x1="0" y1="22.321874976158142" x2="290.011999130249" y2="22.321874976158142" fill="rgb(0, 0, 0)" stroke="rgb(60, 60, 60)" stroke-width="1px" opacity="0.25"></line><line x1="0" y1="0" x2="290.011999130249" y2="0" fill="rgb(0, 0, 0)" stroke="rgb(60, 60, 60)" stroke-width="1px" opacity="0.25"></line></g></g></g><g><g><line x1="0" y1="334.82812464237213" x2="290.011999130249" y2="334.82812464237213" fill="rgb(0, 0, 0)" stroke="rgb(153, 153, 153)" stroke-width="1.5px"></line></g></g><g><g><line x1="32.22355545891656" y1="0" x2="32.22355545891656" y2="178.57499980926514" fill="rgb(0, 0, 0)" stroke="rgb(153, 153, 153)" stroke-width="1.5px"></line></g></g><g><g><g><g><g><path style="fill: none;" stroke="rgb(0, 119, 187)" stroke-width="2px" d="M32.22355545891656,-7.697263599161374L33.83473323186239,25.612713226141295L35.44591100480821,28.896356200110176L37.05708877775404,33.04298525201568L38.66826655069987,39.42310887238693L40.2794443236457,44.66039701102386L41.89062209659152,40.63968528936812L43.50179986953735,48.81749965996789L45.11297764248318,53.94811463852341L46.72415541542901,58.779806345503744L48.33533318837483,62.774610815948336L49.94651096132066,66.02268187802417L51.55768873426649,69.29661761571344L53.168866507212314,71.89247309635357L54.780044280158144,74.15542997843988L56.39122205310398,76.20797825660588L58.00239982604981,79.49687931689289L59.61357759899563,82.69366807151789L61.22475537194146,85.62706289086304L62.83593314488729,88.53120827457622L64.44711091783311,90.55452840490909L66.05828869077894,92.59338862840889L67.66946646372477,93.12790396995433L69.2806442366706,91.16178415515503L70.89182200961642,96.15984001021684L72.50299978256226,99.66679199421446L74.11417755550808,102.01696498822525L75.72535532845392,104.22878857745275L77.33653310139974,106.21968739012368L78.94771087434556,108.53194681436696L80.5588886472914,110.7944779404761L82.17006642023722,112.18784952697956L83.78124419318304,109.86034803875339L85.39242196612888,113.44802335602355L87.0035997390747,116.10148362037557L88.61477751202054,118.34006597276857L90.22595528496636,120.26805933981177L91.83713305791218,122.21276362895912L93.44831083085802,124.2058125093148L95.05948860380384,125.7594173578284L96.67066637674967,127.5180662849499L98.2818441496955,129.12623176193858L99.89302192264132,130.75257701915268L101.50419969558715,132.22183960858774L103.11537746853298,133.77323052602003L104.7265552414788,135.1541487501911L106.33773301442463,136.60312406731373L107.94891078737048,137.93565512467876" fill="none"></path></g><g><path style="fill: none;" stroke="rgb(238, 51, 119)" stroke-width="2px" d="M32.22355545891656,-19.52182692886447L33.83473323186239,19.923250951944738L35.44591100480821,25.039454090672848L37.05708877775404,27.465539375414096L38.66826655069987,29.952784506276657L40.2794443236457,33.151084694620636L41.89062209659152,36.62497672699055L43.50179986953735,39.517839577308564L45.11297764248318,34.233824720176585L46.72415541542901,36.4597408322486L48.33533318837483,38.08114732012746L49.94651096132066,40.04952364160579L51.55768873426649,40.89807659191615L53.168866507212314,40.57292675214694L54.780044280158144,41.774665573323546L56.39122205310398,45.40259611823569L58.00239982604981,48.27348996013143L59.61357759899563,50.49853327245023L61.22475537194146,52.85262322145104L62.83593314488729,54.68399126947418L64.44711091783311,56.27157144496641L66.05828869077894,57.877714581063515L67.66946646372477,59.4738950272947L69.2806442366706,60.795079687868L70.89182200961642,62.7374848947386L72.50299978256226,66.29925296079762L74.11417755550808,69.26268486433253L75.72535532845392,71.96182874503552L77.33653310139974,74.76309019686414L78.94771087434556,77.54534164431186L80.5588886472914,80.00853156246399L82.17006642023722,79.32672594061455L83.78124419318304,81.13218673742654L85.39242196612888,82.30884853154748L87.0035997390747,84.3987356089118L88.61477751202054,86.3798420341077L90.22595528496636,88.87888060553803L91.83713305791218,88.51517856203554L93.44831083085802,88.52467292032657L95.05948860380384,91.01751674228899L96.67066637674967,92.72358480622927L98.2818441496955,94.98613722013727L99.89302192264132,97.0239969170907L101.50419969558715,99.03445921691286L103.11537746853298,101.32947552408052L104.7265552414788,103.64511970834235L106.33773301442463,104.68149490798385L107.94891078737048,106.19124689084833L109.56008856031629,106.86764541178763L111.17126633326214,109.6617541631997L112.78244410620796,111.99368351358851L114.39362187915378,114.4335420041914L116.00479965209962,115.5923007594721L117.61597742504544,117.48037950365506L119.22715519799127,116.17554387260532L120.8383329709371,116.89981865317804L122.44951074388293,117.60942614033706L124.06068851682875,119.72436895695819L125.67186628977458,122.41369916238727L127.2830440627204,124.59163257583157L128.89422183566623,126.51743329959231L130.50539960861207,128.49798624201787L132.11657738155787,130.13210154581543L133.7277551545037,131.4922003027026L135.33893292744955,131.99629537967883L136.95011070039536,132.6625821961602L138.5612884733412,135.06295181988003L140.17246624628703,135.03363852085147L141.78364401923284,135.7643209288807L143.3948217921787,137.24258825723302L145.0059995651245,135.38601545536108L146.61717733807032,120.24792108209135L148.22835511101616,127.37739651009099L149.83953288396202,130.6647435610613L151.45071065690783,131.50642055234027L153.06188842985367,133.8975938469531L154.67306620279948,134.54621179038168L156.2842439757453,134.8331287434005L157.89542174869112,135.6266953092586L159.50659952163699,136.53408773561466L161.1177772945828,137.10500521320864L162.72895506752863,137.47215588012625L164.34013284047444,137.66097865600375L165.95131061342028,137.87898700411665L167.56248838636608,138.0744515732381L169.17366615931195,138.59559817710021L170.78484393225776,138.73418174767096L172.3960217052036,138.99523402507634L174.0071994781494,139.05956575322762L175.61837725109524,139.58250053219388L177.22955502404108,139.57790236764038L178.8407327969869,139.75733722422115L180.45191056993272,139.54237303134505L182.06308834287856,139.8794866140729L183.67426611582437,139.83961456681038L185.2854438887702,140.33057507189073L186.89662166171604,140.62111095071555L188.50779943466188,140.89585128278713L190.11897720760768,141.22589731629387L191.73015498055352,141.39824333585466L193.34133275349933,141.40330983198305L194.9525105264452,141.81448366694065L196.563688299391,141.773121473758L198.17486607233684,142.05033119049722L199.78604384528265,142.07370519364417L201.39722161822849,142.47036074978007L203.0083993911743,142.45399043245766L204.61957716412016,142.59868360130088L206.23075493706597,142.79851216918837L207.8419327100118,142.9813317857877L209.4531104829576,143.49558114281956L211.06428825590345,143.76191279434192L212.67546602884926,143.52319141793942L214.28664380179512,144.1633368174222L215.89782157474096,144.2706273236705L217.50899934768677,144.30228228057354L219.12017712063258,144.1727886001155L220.7313548935784,143.9555466127615L222.34253266652428,143.6260114864274L223.9537104394701,143.6795290127584L225.56488821241592,143.85521721674002L227.17606598536173,144.00604127165457L228.78724375830757,144.11990970775025L230.39842153125338,144.33796063146087L232.00959930419924,143.47165365690228L233.62077707714505,143.32119149456832L235.2319548500909,143.57085479958425L236.8431326230367,143.47714590900785L238.45431039598253,143.550844268657L240.06548816892834,145.22960008666143L241.6766659418742,145.48362739044342L243.28784371482,146.00126150749384L244.89902148776585,145.98755216502877L246.51019926071166,146.0973120559447L248.1213770336575,145.9879992088048L249.73255480660333,146.31072223950412L251.34373257954917,146.37873675685796L252.95491035249498,146.3687953547909L254.5660881254408,146.26486832076228L256.1772658983866,146.21860993384212L257.78844367133246,146.36604922873812L259.3996214442783,146.9516339997458L261.01079921722413,147.0059391746346L262.62197699016997,147.17924314514403L264.23315476311575,147.47056667252662L265.8443325360616,148.01604523048434L267.4555103090074,148.31556456042756L269.06668808195326,148.4410348469013L270.6778658548991,148.7027470460713L272.28904362784493,148.92284159847236" fill="none"></path></g><g><path style="fill: none;" stroke="rgb(0, 153, 136)" stroke-width="2px" d="M32.22355545891656,-42.695958932334406L33.83473323186239,18.75987274431168L35.44591100480821,24.867171934508633L37.05708877775404,27.30847799543392L38.66826655069987,30.034487078296706L40.2794443236457,33.229253492030125L41.89062209659152,34.972000433404105L43.50179986953735,36.65690842527874L45.11297764248318,37.83114341032979L46.72415541542901,39.14845369151078L48.33533318837483,40.971562073576706L49.94651096132066,43.53231397389868L51.55768873426649,45.75886871993646L53.168866507212314,45.35276138110726L54.780044280158144,44.603494724674306L56.39122205310398,47.99076670348779L58.00239982604981,50.440758186347466L59.61357759899563,52.62062878948791L61.22475537194146,54.13855528711417L62.83593314488729,55.64458190517837L64.44711091783311,57.10060348372326L66.05828869077894,59.01135373369084L67.66946646372477,61.07963369521349L69.2806442366706,62.54715068514213L70.89182200961642,63.72743140506907L72.50299978256226,65.11147893567238L74.11417755550808,66.534525713785L75.72535532845392,68.08338338315309L77.33653310139974,69.61680739834856L78.94771087434556,71.03970516186916L80.5588886472914,72.6544059931075L82.17006642023722,73.00969935606076L83.78124419318304,74.82486738915236L85.39242196612888,76.52369760148065L87.0035997390747,77.1385956715169L88.61477751202054,78.3776307162941L90.22595528496636,79.67791075838807L91.83713305791218,78.2540124683211L93.44831083085802,81.5665216975425L95.05948860380384,83.59407809984828L96.67066637674967,85.99344719702174L98.2818441496955,88.14687835397956L99.89302192264132,89.8035800123663L101.50419969558715,91.68339909059205L103.11537746853298,93.54316506229281L104.7265552414788,95.24976532120456L106.33773301442463,96.75953859186791L107.94891078737048,98.37604888600924L109.56008856031629,100.03417682691952L111.17126633326214,101.60415199275553L112.78244410620796,103.36499356315949L114.39362187915378,104.72890283604238L116.00479965209962,106.84376050146807L117.61597742504544,108.11796298996L119.22715519799127,109.89161981527695L120.8383329709371,111.21906308871473L122.44951074388293,113.10305457551681L124.06068851682875,114.73297618293918L125.67186628977458,116.3904654898837L127.2830440627204,117.85102136958551L128.89422183566623,119.17429223444697L130.50539960861207,120.96708679093797L132.11657738155787,122.3635238204771L133.7277551545037,124.15608421118066L135.33893292744955,125.72312166077415L136.95011070039536,126.99900588537594L138.5612884733412,128.70034805796956L140.17246624628703,130.2299189815716" fill="none"></path></g><g><path style="fill: none;" stroke="rgb(51, 187, 238)" stroke-width="2px" d="M32.22355545891656,1.6138067436862684L33.83473323186239,22.391124185845797L35.44591100480821,30.96280541093097L37.05708877775404,38.299922028999276L38.66826655069987,47.358263623795324L40.2794443236457,56.077086114592475L41.89062209659152,63.23936604063351L43.50179986953735,69.25178551131683L45.11297764248318,74.55736490869276L46.72415541542901,79.4380824164449L48.33533318837483,84.09764098185303L49.94651096132066,88.60139414741366L51.55768873426649,92.97211985790568L53.168866507212314,97.23474612579275L54.780044280158144,101.32047078516325L56.39122205310398,105.2787241049673L58.00239982604981,109.01362583914488L59.61357759899563,112.52153577409115L61.22475537194146,115.83202266242097L62.83593314488729,118.94708755722706L64.44711091783311,121.87814071869775L66.05828869077894,124.82017838437957L67.66946646372477,127.4683166990169L69.2806442366706,130.03543365119765L70.89182200961642,132.45930500485758L72.50299978256226,134.91161685779286L74.11417755550808,137.15554244769942L75.72535532845392,139.42503468403538L77.33653310139974,141.36269271176047L78.94771087434556,143.39073873344L80.5588886472914,145.37680521577L82.17006642023722,147.09036658490857L83.78124419318304,149.00079751789326L85.39242196612888,150.59227336057666L87.0035997390747,152.2077405525739L88.61477751202054,153.73920609027437L90.22595528496636,155.40925519854557L91.83713305791218,156.88184932850203L93.44831083085802,158.35990377886577L95.05948860380384,159.62333464113516L96.67066637674967,160.99781330615144L98.2818441496955,162.40578832267204L99.89302192264132,163.621268418012L101.50419969558715,164.7267331688497L103.11537746853298,165.9644270822988L104.7265552414788,167.21556424072725L106.33773301442463,168.24871433884164L107.94891078737048,169.37645677118508" fill="none"></path></g></g></g></g></g></g><g transform="translate(39, 178)" clip-path="url(#clip_1)"><clipPath id="clip_1"><rect width="290" height="21"></rect></clipPath><g><g><line x1="0" y1="0" x2="0" y2="5" style="visibility: inherit;" fill="rgb(0, 0, 0)" stroke="rgb(204, 204, 204)" stroke-width="1px"></line><line x1="32.22355545891656" y1="0" x2="32.22355545891656" y2="5" style="visibility: inherit;" fill="rgb(0, 0, 0)" stroke="rgb(204, 204, 204)" stroke-width="1px"></line><line x1="64.44711091783311" y1="0" x2="64.44711091783311" y2="5" style="visibility: inherit;" fill="rgb(0, 0, 0)" stroke="rgb(204, 204, 204)" stroke-width="1px"></line><line x1="96.67066637674967" y1="0" x2="96.67066637674967" y2="5" style="visibility: inherit;" fill="rgb(0, 0, 0)" stroke="rgb(204, 204, 204)" stroke-width="1px"></line><line x1="128.89422183566623" y1="0" x2="128.89422183566623" y2="5" style="visibility: inherit;" fill="rgb(0, 0, 0)" stroke="rgb(204, 204, 204)" stroke-width="1px"></line><line x1="161.1177772945828" y1="0" x2="161.1177772945828" y2="5" style="visibility: inherit;" fill="rgb(0, 0, 0)" stroke="rgb(204, 204, 204)" stroke-width="1px"></line><line x1="193.34133275349933" y1="0" x2="193.34133275349933" y2="5" style="visibility: inherit;" fill="rgb(0, 0, 0)" stroke="rgb(204, 204, 204)" stroke-width="1px"></line><line x1="225.56488821241592" y1="0" x2="225.56488821241592" y2="5" style="visibility: inherit;" fill="rgb(0, 0, 0)" stroke="rgb(204, 204, 204)" stroke-width="1px"></line><line x1="257.78844367133246" y1="0" x2="257.78844367133246" y2="5" style="visibility: inherit;" fill="rgb(0, 0, 0)" stroke="rgb(204, 204, 204)" stroke-width="1px"></line><line x1="290.011999130249" y1="0" x2="290.011999130249" y2="5" style="visibility: inherit;" fill="rgb(0, 0, 0)" stroke="rgb(204, 204, 204)" stroke-width="1px"></line></g><g transform="translate(0, 8)"><text style="text-anchor: middle; visibility: hidden; font-family: &quot;Helvetica Neue&quot;, sans-serif; font-size: 12px; font-weight: 200;" x="0" y="0" dx="0em" dy="0.95em" fill="rgb(50, 49, 63)" stroke="none" stroke-width="1px">-20</text><text style="text-anchor: middle; visibility: hidden; font-family: &quot;Helvetica Neue&quot;, sans-serif; font-size: 12px; font-weight: 200;" x="32.22355545891656" y="0" dx="0em" dy="0.95em" fill="rgb(50, 49, 63)" stroke="none" stroke-width="1px">0</text><text style="text-anchor: middle; visibility: hidden; font-family: &quot;Helvetica Neue&quot;, sans-serif; font-size: 12px; font-weight: 200;" x="64.44711091783311" y="0" dx="0em" dy="0.95em" fill="rgb(50, 49, 63)" stroke="none" stroke-width="1px">20</text><text style="text-anchor: middle; visibility: hidden; font-family: &quot;Helvetica Neue&quot;, sans-serif; font-size: 12px; font-weight: 200;" x="96.67066637674967" y="0" dx="0em" dy="0.95em" fill="rgb(50, 49, 63)" stroke="none" stroke-width="1px">40</text><text style="text-anchor: middle; visibility: hidden; font-family: &quot;Helvetica Neue&quot;, sans-serif; font-size: 12px; font-weight: 200;" x="128.89422183566623" y="0" dx="0em" dy="0.95em" fill="rgb(50, 49, 63)" stroke="none" stroke-width="1px">60</text><text style="text-anchor: middle; visibility: hidden; font-family: &quot;Helvetica Neue&quot;, sans-serif; font-size: 12px; font-weight: 200;" x="161.1177772945828" y="0" dx="0em" dy="0.95em" fill="rgb(50, 49, 63)" stroke="none" stroke-width="1px">80</text><text style="text-anchor: middle; visibility: hidden; font-family: &quot;Helvetica Neue&quot;, sans-serif; font-size: 12px; font-weight: 200;" x="193.34133275349933" y="0" dx="0em" dy="0.95em" fill="rgb(50, 49, 63)" stroke="none" stroke-width="1px">100</text><text style="text-anchor: middle; visibility: hidden; font-family: &quot;Helvetica Neue&quot;, sans-serif; font-size: 12px; font-weight: 200;" x="225.56488821241592" y="0" dx="0em" dy="0.95em" fill="rgb(50, 49, 63)" stroke="none" stroke-width="1px">120</text><text style="text-anchor: middle; visibility: hidden; font-family: &quot;Helvetica Neue&quot;, sans-serif; font-size: 12px; font-weight: 200;" x="257.78844367133246" y="0" dx="0em" dy="0.95em" fill="rgb(50, 49, 63)" stroke="none" stroke-width="1px">140</text><text style="text-anchor: middle; visibility: hidden; font-family: &quot;Helvetica Neue&quot;, sans-serif; font-size: 12px; font-weight: 200;" x="290.011999130249" y="0" dx="0em" dy="0.95em" fill="rgb(50, 49, 63)" stroke="none" stroke-width="1px">160</text></g><line x1="0" y1="0" x2="290.011999130249" y2="0" fill="rgb(0, 0, 0)" stroke="rgb(204, 204, 204)" stroke-width="1px"></line></g></g></g></g></svg>