<svg viewBox="0 0 330 200" xmlns="http://www.w3.org/2000/svg"><g><g><g><g><g><line x1="59.98000144958496" y1="178.57499980926514" x2="54.98000144958496" y2="178.57499980926514" style="visibility: inherit;" fill="rgb(0, 0, 0)" stroke="rgb(204, 204, 204)" stroke-width="1px"></line><line x1="59.98000144958496" y1="158.73333316379123" x2="54.98000144958496" y2="158.73333316379123" style="visibility: inherit;" fill="rgb(0, 0, 0)" stroke="rgb(204, 204, 204)" stroke-width="1px"></line><line x1="59.98000144958496" y1="138.89166651831732" x2="54.98000144958496" y2="138.89166651831732" style="visibility: inherit;" fill="rgb(0, 0, 0)" stroke="rgb(204, 204, 204)" stroke-width="1px"></line><line x1="59.98000144958496" y1="119.04999987284342" x2="54.98000144958496" y2="119.04999987284342" style="visibility: inherit;" fill="rgb(0, 0, 0)" stroke="rgb(204, 204, 204)" stroke-width="1px"></line><line x1="59.98000144958496" y1="99.20833322736952" x2="54.98000144958496" y2="99.20833322736952" style="visibility: inherit;" fill="rgb(0, 0, 0)" stroke="rgb(204, 204, 204)" stroke-width="1px"></line><line x1="59.98000144958496" y1="79.36666658189561" x2="54.98000144958496" y2="79.36666658189561" style="visibility: inherit;" fill="rgb(0, 0, 0)" stroke="rgb(204, 204, 204)" stroke-width="1px"></line><line x1="59.98000144958496" y1="59.52499993642172" x2="54.98000144958496" y2="59.52499993642172" style="visibility: inherit;" fill="rgb(0, 0, 0)" stroke="rgb(204, 204, 204)" stroke-width="1px"></line><line x1="59.98000144958496" y1="39.683333290947814" x2="54.98000144958496" y2="39.683333290947814" style="visibility: inherit;" fill="rgb(0, 0, 0)" stroke="rgb(204, 204, 204)" stroke-width="1px"></line><line x1="59.98000144958496" y1="19.841666645473907" x2="54.98000144958496" y2="19.841666645473907" style="visibility: inherit;" fill="rgb(0, 0, 0)" stroke="rgb(204, 204, 204)" stroke-width="1px"></line><line x1="59.98000144958496" y1="0" x2="54.98000144958496" y2="0" style="visibility: inherit;" fill="rgb(0, 0, 0)" stroke="rgb(204, 204, 204)" stroke-width="1px"></line></g><g transform="translate(49.98000144958496, 0)"><text style="text-anchor: end; visibility: hidden; font-family: &quot;Helvetica Neue&quot;, sans-serif; font-size: 12px; font-weight: 200;" x="0" y="178.57499980926514" dx="0em" dy="0.3em" fill="rgb(50, 49, 63)" stroke="none" stroke-width="1px">-0.05</text><text style="text-anchor: end; visibility: inherit; font-family: &quot;Helvetica Neue&quot;, sans-serif; font-size: 12px; font-weight: 200;" x="0" y="158.73333316379123" dx="0em" dy="0.3em" fill="rgb(50, 49, 63)" stroke="none" stroke-width="1px">0</text><text style="text-anchor: end; visibility: hidden; font-family: &quot;Helvetica Neue&quot;, sans-serif; font-size: 12px; font-weight: 200;" x="0" y="138.89166651831732" dx="0em" dy="0.3em" fill="rgb(50, 49, 63)" stroke="none" stroke-width="1px">0.05</text><text style="text-anchor: end; visibility: inherit; font-family: &quot;Helvetica Neue&quot;, sans-serif; font-size: 12px; font-weight: 200;" x="0" y="119.04999987284342" dx="0em" dy="0.3em" fill="rgb(50, 49, 63)" stroke="none" stroke-width="1px">0.1</text><text style="text-anchor: end; visibility: hidden; font-family: &quot;Helvetica Neue&quot;, sans-serif; font-size: 12px; font-weight: 200;" x="0" y="99.20833322736952" dx="0em" dy="0.3em" fill="rgb(50, 49, 63)" stroke="none" stroke-width="1px">0.15</text><text style="text-anchor: end; visibility: inherit; font-family: &quot;Helvetica Neue&quot;, sans-serif; font-size: 12px; font-weight: 200;" x="0" y="79.36666658189561" dx="0em" dy="0.3em" fill="rgb(50, 49, 63)" stroke="none" stroke-width="1px">0.2</text><text style="text-anchor: end; visibility: hidden; font-family: &quot;Helvetica Neue&quot;, sans-serif; font-size: 12px; font-weight: 200;" x="0" y="59.52499993642172" dx="0em" dy="0.3em" fill="rgb(50, 49, 63)" stroke="none" stroke-width="1px">0.25</text><text style="text-anchor: end; visibility: inherit; font-family: &quot;Helvetica Neue&quot;, sans-serif; font-size: 12px; font-weight: 200;" x="0" y="39.683333290947814" dx="0em" dy="0.3em" fill="rgb(50, 49, 63)" stroke="none" stroke-width="1px">0.3</text><text style="text-anchor: end; visibility: hidden; font-family: &quot;Helvetica Neue&quot;, sans-serif; font-size: 12px; font-weight: 200;" x="0" y="19.841666645473907" dx="0em" dy="0.3em" fill="rgb(50, 49, 63)" stroke="none" stroke-width="1px">0.35</text><text style="text-anchor: end; visibility: hidden; font-family: &quot;Helvetica Neue&quot;, sans-serif; font-size: 12px; font-weight: 200;" x="0" y="0" dx="0em" dy="0.3em" fill="rgb(50, 49, 63)" stroke="none" stroke-width="1px">0.4</text></g><line x1="59.98000144958496" y1="0" x2="59.98000144958496" y2="178.57499980926514" fill="rgb(0, 0, 0)" stroke="rgb(204, 204, 204)" stroke-width="1px"></line></g></g><g transform="translate(59, 0)" clip-path="url(#clip_0)"><clipPath id="clip_0"><rect width="270" height="178"></rect></clipPath><g><g><g><line x1="0" y1="0" x2="0" y2="178.57499980926514" fill="rgb(0, 0, 0)" stroke="rgb(60, 60, 60)" stroke-width="1px" opacity="0.25"></line><line x1="33.75249981880188" y1="0" x2="33.75249981880188" y2="178.57499980926514" fill="rgb(0, 0, 0)" stroke="rgb(60, 60, 60)" stroke-width="1px" opacity="0.25"></line><line x1="67.50499963760376" y1="0" x2="67.50499963760376" y2="178.57499980926514" fill="rgb(0, 0, 0)" stroke="rgb(60, 60, 60)" stroke-width="1px" opacity="0.25"></line><line x1="101.25749945640564" y1="0" x2="101.25749945640564" y2="178.57499980926514" fill="rgb(0, 0, 0)" stroke="rgb(60, 60, 60)" stroke-width="1px" opacity="0.25"></line><line x1="135.00999927520752" y1="0" x2="135.00999927520752" y2="178.57499980926514" fill="rgb(0, 0, 0)" stroke="rgb(60, 60, 60)" stroke-width="1px" opacity="0.25"></line><line x1="168.7624990940094" y1="0" x2="168.7624990940094" y2="178.57499980926514" fill="rgb(0, 0, 0)" stroke="rgb(60, 60, 60)" stroke-width="1px" opacity="0.25"></line><line x1="202.51499891281128" y1="0" x2="202.51499891281128" y2="178.57499980926514" fill="rgb(0, 0, 0)" stroke="rgb(60, 60, 60)" stroke-width="1px" opacity="0.25"></line><line x1="236.26749873161316" y1="0" x2="236.26749873161316" y2="178.57499980926514" fill="rgb(0, 0, 0)" stroke="rgb(60, 60, 60)" stroke-width="1px" opacity="0.25"></line><line x1="270.01999855041504" y1="0" x2="270.01999855041504" y2="178.57499980926514" fill="rgb(0, 0, 0)" stroke="rgb(60, 60, 60)" stroke-width="1px" opacity="0.25"></line></g><g><line x1="0" y1="178.57499980926514" x2="270.01999855041504" y2="178.57499980926514" fill="rgb(0, 0, 0)" stroke="rgb(60, 60, 60)" stroke-width="1px" opacity="0.25"></line><line x1="0" y1="158.73333316379123" x2="270.01999855041504" y2="158.73333316379123" fill="rgb(0, 0, 0)" stroke="rgb(60, 60, 60)" stroke-width="1px" opacity="0.25"></line><line x1="0" y1="138.89166651831732" x2="270.01999855041504" y2="138.89166651831732" fill="rgb(0, 0, 0)" stroke="rgb(60, 60, 60)" stroke-width="1px" opacity="0.25"></line><line x1="0" y1="119.04999987284342" x2="270.01999855041504" y2="119.04999987284342" fill="rgb(0, 0, 0)" stroke="rgb(60, 60, 60)" stroke-width="1px" opacity="0.25"></line><line x1="0" y1="99.20833322736952" x2="270.01999855041504" y2="99.20833322736952" fill="rgb(0, 0, 0)" stroke="rgb(60, 60, 60)" stroke-width="1px" opacity="0.25"></line><line x1="0" y1="79.36666658189561" x2="270.01999855041504" y2="79.36666658189561" fill="rgb(0, 0, 0)" stroke="rgb(60, 60, 60)" stroke-width="1px" opacity="0.25"></line><line x1="0" y1="59.52499993642172" x2="270.01999855041504" y2="59.52499993642172" fill="rgb(0, 0, 0)" stroke="rgb(60, 60, 60)" stroke-width="1px" opacity="0.25"></line><line x1="0" y1="39.683333290947814" x2="270.01999855041504" y2="39.683333290947814" fill="rgb(0, 0, 0)" stroke="rgb(60, 60, 60)" stroke-width="1px" opacity="0.25"></line><line x1="0" y1="19.841666645473907" x2="270.01999855041504" y2="19.841666645473907" fill="rgb(0, 0, 0)" stroke="rgb(60, 60, 60)" stroke-width="1px" opacity="0.25"></line><line x1="0" y1="0" x2="270.01999855041504" y2="0" fill="rgb(0, 0, 0)" stroke="rgb(60, 60, 60)" stroke-width="1px" opacity="0.25"></line></g></g></g><g><g><line x1="0" y1="158.73333316379123" x2="270.01999855041504" y2="158.73333316379123" fill="rgb(0, 0, 0)" stroke="rgb(153, 153, 153)" stroke-width="1.5px"></line></g></g><g><g><line x1="33.75249981880188" y1="0" x2="33.75249981880188" y2="178.57499980926514" fill="rgb(0, 0, 0)" stroke="rgb(153, 153, 153)" stroke-width="1.5px"></line></g></g><g><g><g><g><g><path style="fill: none;" stroke="rgb(0, 119, 187)" stroke-width="2px" d="M33.75249981880188,141.48524893510154L37.12774980068207,137.11699260927713L40.502999782562256,136.0095924427265L43.878249764442444,131.97009660388886L47.25349974632263,126.69421132060995L50.62874972820282,123.18010131424606L54.00399971008301,122.41247215731417L57.379249691963196,117.96399039617941L60.754499673843384,114.76448449056119L64.12974965572357,112.16744103247919L67.50499963760376,110.42611386902355L70.88024961948395,108.16727144539443L74.25549960136414,106.61470496840295L77.63074958324432,104.52889095655361L81.00599956512451,103.00149730171265L84.3812495470047,101.73994094839831L87.75649952888489,99.60378720552539L91.13174951076508,97.04764293100085L94.50699949264526,94.76205475341666L97.88224947452545,92.85398794876077L101.25749945640564,91.41153852464386L104.63274943828583,89.76145027576926L108.00799942016602,89.05830836618586L111.3832494020462,89.56954076905724L114.75849938392639,86.33070861168612L118.13374936580658,84.39904782996175L121.50899934768677,83.24917554804908L124.88424932956696,81.85863287348286L128.25949931144714,80.39730235443368L131.63474929332733,79.49596512419745L135.00999927520752,78.28160263829758L138.3852492570877,77.29374824553275L141.7604992389679,77.742057462944L145.13574922084808,76.04162948304582L148.51099920272827,74.62434696780196L151.88624918460846,73.44930777701626L155.26149916648865,72.93492951053574L158.63674914836884,71.69540011576281L162.01199913024902,70.79406288552657L165.3872491121292,69.81721901539369L168.7624990940094,69.10936422367405L172.1377490758896,68.50690177613781L175.51299905776978,67.73926966256718L178.88824903964996,66.77658809195286L182.26349902153015,66.15209868587523L185.63874900341034,65.29323652763973L189.01399898529053,64.18426047264583L192.38924896717072,64.02224258349804" fill="none"></path></g><g><path style="fill: none;" stroke="rgb(204, 51, 17)" stroke-width="2px" d="M33.75249981880188,145.33489604442224L37.12774980068207,142.43718460225026L40.502999782562256,142.816812580274L43.878249764442444,140.40669521432395L47.25349974632263,134.97696862630613L50.62874972820282,130.89857820497022L54.00399971008301,127.25205808970463L57.379249691963196,123.94685530611378L60.754499673843384,121.2581116978088L64.12974965572357,119.67342429765037L67.50499963760376,117.67428119354362L70.88024961948395,115.15968064981976L74.25549960136414,112.60676798142754L77.63074958324432,110.47875977825683L81.00599956512451,108.43782162905732L84.3812495470047,107.03772901139193L87.75649952888489,105.90580943985022L91.13174951076508,104.4743646250878L94.50699949264526,102.98023315596369L97.88224947452545,101.78213809635842L101.25749945640564,100.01634474740881L104.63274943828583,98.49086699446514L108.00799942016602,96.70765904339355L111.3832494020462,94.95231445571713L114.75849938392639,93.13776613410342L118.13374936580658,91.51128368885223L121.50899934768677,89.33800047680309L124.88424932956696,87.48861703766795L128.25949931144714,85.99796848896825L131.63474929332733,84.51428578111734L135.00999927520752,82.92959838095892L138.3852492570877,81.83599093408556L141.7604992389679,80.49858497078186L145.13574922084808,78.6875136563151L148.51099920272827,77.04361660894193L151.88624918460846,76.31919281377719L155.26149916648865,74.89471383986356L158.63674914836884,73.32744104182711L162.01199913024902,72.31742368513929L165.3872491121292,71.43975139130107L168.7624990940094,70.12324295054377L172.1377490758896,69.14108304397365L175.51299905776978,67.53549812126884L178.88824903964996,66.33044313409223L182.26349902153015,65.4806342036492L185.63874900341034,64.32085126871229L189.01399898529053,62.83020272001259L192.38924896717072,61.72962943229044L195.7644989490509,60.77881580953988L199.1397489309311,59.51106825472414L202.51499891281128,57.689542265706706L205.89024889469147,56.59245189840895L209.26549887657166,55.48491868311545L212.64074885845184,53.95595800974739L216.01599884033203,53.50319018113069L219.39124882221222,51.928945628967995" fill="none"></path></g><g><path style="fill: none;" stroke="rgb(0, 119, 187)" stroke-width="2px" d="M33.75249981880188,145.13031881906986L37.12774980068207,144.1521622013407L40.502999782562256,142.46940013785655L43.878249764442444,142.39479527277268L47.25349974632263,142.5357160662598L50.62874972820282,142.46940013785655L54.00399971008301,141.27571638323704L57.379249691963196,139.60124473475292L60.754499673843384,135.81295822732332L64.12974965572357,133.84835457686495L67.50499963760376,131.91690962976793L70.88024961948395,130.6154623067032L74.25549960136414,129.42177855208365L77.63074958324432,128.12862164401895L81.00599956512451,126.86862343931554L84.3812495470047,124.92888807721849L87.75649952888489,123.2129702670118L91.13174951076508,121.52191778852766L94.50699949264526,119.73968257159837L97.88224947452545,122.50836482125683L101.25749945640564,123.29586259045695L104.63274943828583,122.61612838970203L108.00799942016602,122.30941851436648L111.3832494020462,121.12402221810824L114.75849938392639,121.12402221810824L118.13374936580658,121.19863003983085L121.50899934768677,120.62665645088236L124.88424932956696,120.9002076228566L128.25949931144714,120.80073446941142L131.63474929332733,120.42770718735329L135.00999927520752,120.50231500907591L138.3852492570877,119.49099968798544L141.7604992389679,118.95218480239825L145.13574922084808,118.85270869231435L148.51099920272827,117.63415960597226L151.88624918460846,117.52639603752706L155.26149916648865,116.896395456856L158.63674914836884,116.05915815429458L162.01199913024902,115.38771141190094L165.3872491121292,114.93179180639765L168.7624990940094,115.39600182690094L172.1377490758896,114.90692351803636L175.51299905776978,114.6748185077847L178.88824903964996,114.62508193106211L182.26349902153015,114.69968679614601L185.63874900341034,113.60547619497164L189.01399898529053,113.76297634013942L192.38924896717072,113.19100275119094L195.7644989490509,112.65218786560376L199.1397489309311,112.37863669362953L202.51499891281128,111.74863611295847L205.89024889469147,111.5745580944294L209.26549887657166,111.60771679779072L212.64074885845184,111.05232108220353L216.01599884033203,112.0304776999327L219.39124882221222,111.74034865459718L222.7664988040924,111.7154803662359L226.1417487859726,111.10205765892611L229.51699876785278,111.31758479581647L232.89224874973297,111.03574320884225L236.26749873161316,110.91140176703577L239.64274871349335,110.3642964664486L243.01799869537354,109.99955959939048L246.39324867725372,109.81719116586142L249.7684986591339,109.866927742584" fill="none"></path></g><g><path style="fill: none;" stroke="rgb(255, 112, 67)" stroke-width="2px" d="M33.75249981880188,143.11045115578247L37.12774980068207,131.48362309374573L40.502999782562256,123.83768142099419L43.878249764442444,120.1431839290506L47.25349974632263,113.05841820060414L50.62874972820282,108.80274180771673L54.00399971008301,103.15527208208012L57.379249691963196,98.47849050473972L60.754499673843384,95.1488895383457L64.12974965572357,92.17616077998696L67.50499963760376,89.19630060901052L70.88024961948395,86.67322338204664L74.25549960136414,84.82285242557555L77.63074958324432,82.78691099583038L81.00599956512451,81.35407656086471L84.3812495470047,79.51708735128734L87.75649952888489,77.96291837610399L91.13174951076508,76.14377543790326L94.50699949264526,74.57889751723843L97.88224947452545,73.12108539827842L101.25749945640564,71.50981190265635L104.63274943828583,70.18315036449887L108.00799942016602,68.6798355754782L111.3832494020462,67.33175614635779L114.75849938392639,65.84806752522944L118.13374936580658,64.48571935759618L121.50899934768677,62.96277840068319L124.88424932956696,61.922496889951105L128.25949931144714,60.33621290487825L131.63474929332733,59.01489696954535L135.00999927520752,57.742655323859395L138.3852492570877,56.20722552494925L141.7604992389679,54.726209705233146L145.13574922084808,53.68683292595256L148.51099920272827,52.20135849503103L151.88624918460846,51.210151273945925L155.26149916648865,49.76482799698306L158.63674914836884,48.648720529371445L162.01199913024902,47.552233316374696L165.3872491121292,46.15776422557451L168.7624990940094,44.71778655143618L172.1377490758896,43.93892512396755L175.51299905776978,42.762147429608376L178.88824903964996,41.697781139778556L182.26349902153015,40.45408879767322L185.63874900341034,39.49588949137416L189.01399898529053,38.47256134712214L192.38924896717072,37.74455410581615L195.7644989490509,36.081539432412285L199.1397489309311,35.20898803685512L202.51499891281128,34.61658407427967L205.89024889469147,33.23817544506295L209.26549887657166,32.59759009773708L212.64074885845184,31.57693475489731L216.01599884033203,30.43852240470366L219.39124882221222,29.35720866167125L222.7664988040924,28.9307430912001L226.1417487859726,27.936863068702706L229.51699876785278,26.691384916804225L232.89224874973297,26.10433838360825L236.26749873161316,25.468211647487806L239.64274871349335,24.249508815931733" fill="none"></path></g></g></g></g></g></g><g transform="translate(59, 178)" clip-path="url(#clip_1)"><clipPath id="clip_1"><rect width="270" height="21"></rect></clipPath><g><g><line x1="0" y1="0" x2="0" y2="5" style="visibility: inherit;" fill="rgb(0, 0, 0)" stroke="rgb(204, 204, 204)" stroke-width="1px"></line><line x1="33.75249981880188" y1="0" x2="33.75249981880188" y2="5" style="visibility: inherit;" fill="rgb(0, 0, 0)" stroke="rgb(204, 204, 204)" stroke-width="1px"></line><line x1="67.50499963760376" y1="0" x2="67.50499963760376" y2="5" style="visibility: inherit;" fill="rgb(0, 0, 0)" stroke="rgb(204, 204, 204)" stroke-width="1px"></line><line x1="101.25749945640564" y1="0" x2="101.25749945640564" y2="5" style="visibility: inherit;" fill="rgb(0, 0, 0)" stroke="rgb(204, 204, 204)" stroke-width="1px"></line><line x1="135.00999927520752" y1="0" x2="135.00999927520752" y2="5" style="visibility: inherit;" fill="rgb(0, 0, 0)" stroke="rgb(204, 204, 204)" stroke-width="1px"></line><line x1="168.7624990940094" y1="0" x2="168.7624990940094" y2="5" style="visibility: inherit;" fill="rgb(0, 0, 0)" stroke="rgb(204, 204, 204)" stroke-width="1px"></line><line x1="202.51499891281128" y1="0" x2="202.51499891281128" y2="5" style="visibility: inherit;" fill="rgb(0, 0, 0)" stroke="rgb(204, 204, 204)" stroke-width="1px"></line><line x1="236.26749873161316" y1="0" x2="236.26749873161316" y2="5" style="visibility: inherit;" fill="rgb(0, 0, 0)" stroke="rgb(204, 204, 204)" stroke-width="1px"></line><line x1="270.01999855041504" y1="0" x2="270.01999855041504" y2="5" style="visibility: inherit;" fill="rgb(0, 0, 0)" stroke="rgb(204, 204, 204)" stroke-width="1px"></line></g><g transform="translate(0, 8)"><text style="text-anchor: middle; visibility: hidden; font-family: &quot;Helvetica Neue&quot;, sans-serif; font-size: 12px; font-weight: 200;" x="0" y="0" dx="0em" dy="0.95em" fill="rgb(50, 49, 63)" stroke="none" stroke-width="1px">-10</text><text style="text-anchor: middle; visibility: hidden; font-family: &quot;Helvetica Neue&quot;, sans-serif; font-size: 12px; font-weight: 200;" x="33.75249981880188" y="0" dx="0em" dy="0.95em" fill="rgb(50, 49, 63)" stroke="none" stroke-width="1px">0</text><text style="text-anchor: middle; visibility: hidden; font-family: &quot;Helvetica Neue&quot;, sans-serif; font-size: 12px; font-weight: 200;" x="67.50499963760376" y="0" dx="0em" dy="0.95em" fill="rgb(50, 49, 63)" stroke="none" stroke-width="1px">10</text><text style="text-anchor: middle; visibility: hidden; font-family: &quot;Helvetica Neue&quot;, sans-serif; font-size: 12px; font-weight: 200;" x="101.25749945640564" y="0" dx="0em" dy="0.95em" fill="rgb(50, 49, 63)" stroke="none" stroke-width="1px">20</text><text style="text-anchor: middle; visibility: hidden; font-family: &quot;Helvetica Neue&quot;, sans-serif; font-size: 12px; font-weight: 200;" x="135.00999927520752" y="0" dx="0em" dy="0.95em" fill="rgb(50, 49, 63)" stroke="none" stroke-width="1px">30</text><text style="text-anchor: middle; visibility: hidden; font-family: &quot;Helvetica Neue&quot;, sans-serif; font-size: 12px; font-weight: 200;" x="168.7624990940094" y="0" dx="0em" dy="0.95em" fill="rgb(50, 49, 63)" stroke="none" stroke-width="1px">40</text><text style="text-anchor: middle; visibility: hidden; font-family: &quot;Helvetica Neue&quot;, sans-serif; font-size: 12px; font-weight: 200;" x="202.51499891281128" y="0" dx="0em" dy="0.95em" fill="rgb(50, 49, 63)" stroke="none" stroke-width="1px">50</text><text style="text-anchor: middle; visibility: hidden; font-family: &quot;Helvetica Neue&quot;, sans-serif; font-size: 12px; font-weight: 200;" x="236.26749873161316" y="0" dx="0em" dy="0.95em" fill="rgb(50, 49, 63)" stroke="none" stroke-width="1px">60</text><text style="text-anchor: middle; visibility: hidden; font-family: &quot;Helvetica Neue&quot;, sans-serif; font-size: 12px; font-weight: 200;" x="270.01999855041504" y="0" dx="0em" dy="0.95em" fill="rgb(50, 49, 63)" stroke="none" stroke-width="1px">70</text></g><line x1="0" y1="0" x2="270.01999855041504" y2="0" fill="rgb(0, 0, 0)" stroke="rgb(204, 204, 204)" stroke-width="1px"></line></g></g></g></g></svg>