<svg viewBox="0 0 330 200" xmlns="http://www.w3.org/2000/svg"><g><g><g><g><g><line x1="29.992000579833984" y1="178.57499980926514" x2="24.992000579833984" y2="178.57499980926514" style="visibility: inherit;" fill="rgb(0, 0, 0)" stroke="rgb(204, 204, 204)" stroke-width="1px"></line><line x1="29.992000579833984" y1="158.73333316379123" x2="24.992000579833984" y2="158.73333316379123" style="visibility: inherit;" fill="rgb(0, 0, 0)" stroke="rgb(204, 204, 204)" stroke-width="1px"></line><line x1="29.992000579833984" y1="138.89166651831732" x2="24.992000579833984" y2="138.89166651831732" style="visibility: inherit;" fill="rgb(0, 0, 0)" stroke="rgb(204, 204, 204)" stroke-width="1px"></line><line x1="29.992000579833984" y1="119.04999987284343" x2="24.992000579833984" y2="119.04999987284343" style="visibility: inherit;" fill="rgb(0, 0, 0)" stroke="rgb(204, 204, 204)" stroke-width="1px"></line><line x1="29.992000579833984" y1="99.20833322736952" x2="24.992000579833984" y2="99.20833322736952" style="visibility: inherit;" fill="rgb(0, 0, 0)" stroke="rgb(204, 204, 204)" stroke-width="1px"></line><line x1="29.992000579833984" y1="79.36666658189561" x2="24.992000579833984" y2="79.36666658189561" style="visibility: inherit;" fill="rgb(0, 0, 0)" stroke="rgb(204, 204, 204)" stroke-width="1px"></line><line x1="29.992000579833984" y1="59.52499993642172" x2="24.992000579833984" y2="59.52499993642172" style="visibility: inherit;" fill="rgb(0, 0, 0)" stroke="rgb(204, 204, 204)" stroke-width="1px"></line><line x1="29.992000579833984" y1="39.683333290947814" x2="24.992000579833984" y2="39.683333290947814" style="visibility: inherit;" fill="rgb(0, 0, 0)" stroke="rgb(204, 204, 204)" stroke-width="1px"></line><line x1="29.992000579833984" y1="19.841666645473907" x2="24.992000579833984" y2="19.841666645473907" style="visibility: inherit;" fill="rgb(0, 0, 0)" stroke="rgb(204, 204, 204)" stroke-width="1px"></line><line x1="29.992000579833984" y1="0" x2="24.992000579833984" y2="0" style="visibility: inherit;" fill="rgb(0, 0, 0)" stroke="rgb(204, 204, 204)" stroke-width="1px"></line></g><g transform="translate(19.992000579833984, 0)"><text style="text-anchor: end; visibility: hidden; font-family: &quot;Helvetica Neue&quot;, sans-serif; font-size: 12px; font-weight: 200;" x="0" y="178.57499980926514" dx="0em" dy="0.3em" fill="rgb(50, 49, 63)" stroke="none" stroke-width="1px">-1</text><text style="text-anchor: end; visibility: inherit; font-family: &quot;Helvetica Neue&quot;, sans-serif; font-size: 12px; font-weight: 200;" x="0" y="158.73333316379123" dx="0em" dy="0.3em" fill="rgb(50, 49, 63)" stroke="none" stroke-width="1px">0</text><text style="text-anchor: end; visibility: hidden; font-family: &quot;Helvetica Neue&quot;, sans-serif; font-size: 12px; font-weight: 200;" x="0" y="138.89166651831732" dx="0em" dy="0.3em" fill="rgb(50, 49, 63)" stroke="none" stroke-width="1px">1</text><text style="text-anchor: end; visibility: inherit; font-family: &quot;Helvetica Neue&quot;, sans-serif; font-size: 12px; font-weight: 200;" x="0" y="119.04999987284343" dx="0em" dy="0.3em" fill="rgb(50, 49, 63)" stroke="none" stroke-width="1px">2</text><text style="text-anchor: end; visibility: hidden; font-family: &quot;Helvetica Neue&quot;, sans-serif; font-size: 12px; font-weight: 200;" x="0" y="99.20833322736952" dx="0em" dy="0.3em" fill="rgb(50, 49, 63)" stroke="none" stroke-width="1px">3</text><text style="text-anchor: end; visibility: inherit; font-family: &quot;Helvetica Neue&quot;, sans-serif; font-size: 12px; font-weight: 200;" x="0" y="79.36666658189561" dx="0em" dy="0.3em" fill="rgb(50, 49, 63)" stroke="none" stroke-width="1px">4</text><text style="text-anchor: end; visibility: hidden; font-family: &quot;Helvetica Neue&quot;, sans-serif; font-size: 12px; font-weight: 200;" x="0" y="59.52499993642172" dx="0em" dy="0.3em" fill="rgb(50, 49, 63)" stroke="none" stroke-width="1px">5</text><text style="text-anchor: end; visibility: inherit; font-family: &quot;Helvetica Neue&quot;, sans-serif; font-size: 12px; font-weight: 200;" x="0" y="39.683333290947814" dx="0em" dy="0.3em" fill="rgb(50, 49, 63)" stroke="none" stroke-width="1px">6</text><text style="text-anchor: end; visibility: hidden; font-family: &quot;Helvetica Neue&quot;, sans-serif; font-size: 12px; font-weight: 200;" x="0" y="19.841666645473907" dx="0em" dy="0.3em" fill="rgb(50, 49, 63)" stroke="none" stroke-width="1px">7</text><text style="text-anchor: end; visibility: hidden; font-family: &quot;Helvetica Neue&quot;, sans-serif; font-size: 12px; font-weight: 200;" x="0" y="0" dx="0em" dy="0.3em" fill="rgb(50, 49, 63)" stroke="none" stroke-width="1px">8</text></g><line x1="29.992000579833984" y1="0" x2="29.992000579833984" y2="178.57499980926514" fill="rgb(0, 0, 0)" stroke="rgb(204, 204, 204)" stroke-width="1px"></line></g></g><g transform="translate(30, 0)" clip-path="url(#clip_0)"><clipPath id="clip_0"><rect width="300" height="178"></rect></clipPath><g><g><g><line x1="0" y1="0" x2="0" y2="178.57499980926514" fill="rgb(0, 0, 0)" stroke="rgb(60, 60, 60)" stroke-width="1px" opacity="0.25"></line><line x1="23.077538416935848" y1="0" x2="23.077538416935848" y2="178.57499980926514" fill="rgb(0, 0, 0)" stroke="rgb(60, 60, 60)" stroke-width="1px" opacity="0.25"></line><line x1="46.155076833871696" y1="0" x2="46.155076833871696" y2="178.57499980926514" fill="rgb(0, 0, 0)" stroke="rgb(60, 60, 60)" stroke-width="1px" opacity="0.25"></line><line x1="69.23261525080754" y1="0" x2="69.23261525080754" y2="178.57499980926514" fill="rgb(0, 0, 0)" stroke="rgb(60, 60, 60)" stroke-width="1px" opacity="0.25"></line><line x1="92.31015366774339" y1="0" x2="92.31015366774339" y2="178.57499980926514" fill="rgb(0, 0, 0)" stroke="rgb(60, 60, 60)" stroke-width="1px" opacity="0.25"></line><line x1="115.38769208467924" y1="0" x2="115.38769208467924" y2="178.57499980926514" fill="rgb(0, 0, 0)" stroke="rgb(60, 60, 60)" stroke-width="1px" opacity="0.25"></line><line x1="138.46523050161508" y1="0" x2="138.46523050161508" y2="178.57499980926514" fill="rgb(0, 0, 0)" stroke="rgb(60, 60, 60)" stroke-width="1px" opacity="0.25"></line><line x1="161.54276891855093" y1="0" x2="161.54276891855093" y2="178.57499980926514" fill="rgb(0, 0, 0)" stroke="rgb(60, 60, 60)" stroke-width="1px" opacity="0.25"></line><line x1="184.62030733548679" y1="0" x2="184.62030733548679" y2="178.57499980926514" fill="rgb(0, 0, 0)" stroke="rgb(60, 60, 60)" stroke-width="1px" opacity="0.25"></line><line x1="207.6978457524226" y1="0" x2="207.6978457524226" y2="178.57499980926514" fill="rgb(0, 0, 0)" stroke="rgb(60, 60, 60)" stroke-width="1px" opacity="0.25"></line><line x1="230.7753841693585" y1="0" x2="230.7753841693585" y2="178.57499980926514" fill="rgb(0, 0, 0)" stroke="rgb(60, 60, 60)" stroke-width="1px" opacity="0.25"></line><line x1="253.8529225862943" y1="0" x2="253.8529225862943" y2="178.57499980926514" fill="rgb(0, 0, 0)" stroke="rgb(60, 60, 60)" stroke-width="1px" opacity="0.25"></line><line x1="276.93046100323016" y1="0" x2="276.93046100323016" y2="178.57499980926514" fill="rgb(0, 0, 0)" stroke="rgb(60, 60, 60)" stroke-width="1px" opacity="0.25"></line><line x1="300.007999420166" y1="0" x2="300.007999420166" y2="178.57499980926514" fill="rgb(0, 0, 0)" stroke="rgb(60, 60, 60)" stroke-width="1px" opacity="0.25"></line></g><g><line x1="0" y1="178.57499980926514" x2="300.007999420166" y2="178.57499980926514" fill="rgb(0, 0, 0)" stroke="rgb(60, 60, 60)" stroke-width="1px" opacity="0.25"></line><line x1="0" y1="158.73333316379123" x2="300.007999420166" y2="158.73333316379123" fill="rgb(0, 0, 0)" stroke="rgb(60, 60, 60)" stroke-width="1px" opacity="0.25"></line><line x1="0" y1="138.89166651831732" x2="300.007999420166" y2="138.89166651831732" fill="rgb(0, 0, 0)" stroke="rgb(60, 60, 60)" stroke-width="1px" opacity="0.25"></line><line x1="0" y1="119.04999987284343" x2="300.007999420166" y2="119.04999987284343" fill="rgb(0, 0, 0)" stroke="rgb(60, 60, 60)" stroke-width="1px" opacity="0.25"></line><line x1="0" y1="99.20833322736952" x2="300.007999420166" y2="99.20833322736952" fill="rgb(0, 0, 0)" stroke="rgb(60, 60, 60)" stroke-width="1px" opacity="0.25"></line><line x1="0" y1="79.36666658189561" x2="300.007999420166" y2="79.36666658189561" fill="rgb(0, 0, 0)" stroke="rgb(60, 60, 60)" stroke-width="1px" opacity="0.25"></line><line x1="0" y1="59.52499993642172" x2="300.007999420166" y2="59.52499993642172" fill="rgb(0, 0, 0)" stroke="rgb(60, 60, 60)" stroke-width="1px" opacity="0.25"></line><line x1="0" y1="39.683333290947814" x2="300.007999420166" y2="39.683333290947814" fill="rgb(0, 0, 0)" stroke="rgb(60, 60, 60)" stroke-width="1px" opacity="0.25"></line><line x1="0" y1="19.841666645473907" x2="300.007999420166" y2="19.841666645473907" fill="rgb(0, 0, 0)" stroke="rgb(60, 60, 60)" stroke-width="1px" opacity="0.25"></line><line x1="0" y1="0" x2="300.007999420166" y2="0" fill="rgb(0, 0, 0)" stroke="rgb(60, 60, 60)" stroke-width="1px" opacity="0.25"></line></g></g></g><g><g><line x1="0" y1="158.73333316379123" x2="300.007999420166" y2="158.73333316379123" fill="rgb(0, 0, 0)" stroke="rgb(153, 153, 153)" stroke-width="1.5px"></line></g></g><g><g><line x1="23.077538416935848" y1="0" x2="23.077538416935848" y2="178.57499980926514" fill="rgb(0, 0, 0)" stroke="rgb(153, 153, 153)" stroke-width="1.5px"></line></g></g><g><g><g><g><g><path style="fill: none;" stroke="rgb(0, 119, 187)" stroke-width="2px" d="M23.077538416935848,6.4998272786652365L25.385292258629434,21.304261423244185L27.69304610032302,22.76365830056369L30.000799942016602,24.60660454585505L32.30855378371019,27.442215043797802L34.61630762540377,29.769898660969773L36.92406146709736,27.98291567356722L39.23181530879094,31.617499838278235L41.539569150484525,33.89777316208068L43.847322992178114,36.04519169851639L46.155076833871696,37.82066035204733L48.46283067556528,39.26424749074769L50.77058451725887,40.71933004083181L53.07833835895245,41.87304358778297L55.38609220064604,42.87880220204357L57.69384604233962,43.791045881228456L60.001599884033205,45.25277968580045L62.309353725726794,46.67357468785602L64.61710756742038,47.97730571867609L66.92486140911396,49.26803700032639L69.23261525080754,50.16729039158545L71.54036909250114,51.07345049091869L73.84812293419472,51.311012864938874L76.15587677588829,50.43718183613919L78.46363061758188,52.658539993944444L80.77138445927547,54.21718532016561L83.07913830096905,55.261706650837056L85.38689214266263,56.2447393571604L87.69464598435623,57.12958327390302L90.0023998260498,58.157254129122265L92.31015366774339,59.1628235185041L94.61790750943698,59.78209977917231L96.92566135113056,58.74765467329402L99.23341519282414,60.3421770365252L101.54116903451774,61.52149270957054L103.8489228762113,62.516418199522974L106.1566767179049,63.373304140431074L108.46443055959848,64.23761715782989L110.77218440129208,65.1234166602102L113.07993824298565,65.81390770399402L115.38769208467924,66.59552944938136L117.69544592637283,67.31026966137632L120.00319976806641,68.0330897756937L122.31095360975999,68.68609537099817L124.61870745145359,69.37560244541251L126.92646129314716,69.98934387837744L129.23421513484075,70.63333290820972L131.54196897653432,71.22556893370529" fill="none"></path></g><g><path style="fill: none;" stroke="rgb(204, 51, 17)" stroke-width="2px" d="M23.077538416935848,4.993729701271519L25.385292258629434,21.450078114804967L27.69304610032302,23.62929589211373L30.000799942016602,24.859144069027877L32.30855378371019,26.51423731594528L34.61630762540377,28.8071792453797L36.92406146709736,31.262504504508996L39.23181530879094,33.225892385121426L41.539569150484525,35.12986365380797L43.847322992178114,36.98767351332472L46.155076833871696,38.74120154216516L48.46283067556528,40.27736695279145L50.77058451725887,41.56480572155161L53.07833835895245,42.82071016426889L55.38609220064604,44.010158829571026L57.69384604233962,45.1612799956834L60.001599884033205,46.330623517618875L62.309353725726794,47.58224201683262L64.61710756742038,48.90207608483388L66.92486140911396,50.25928206638724L69.23261525080754,51.5481494829819L71.54036909250114,52.94153526135128L73.84812293419472,54.15514794366911L76.15587677588829,55.446853733444954L78.46363061758188,56.61927215966003L80.77138445927547,57.873549268420135L83.07913830096905,59.09008547511459L85.38689214266263,60.29783218619136L87.69464598435623,61.50424486187295L90.0023998260498,62.750886746775706L92.31015366774339,63.99208841641453L94.61790750943698,64.99948382587627L96.92566135113056,66.164418408137L99.23341519282414,67.28751536970726L101.54116903451774,68.23340323233298L103.8489228762113,69.32612013962076L106.1566767179049,70.232128859051L108.46443055959848,71.17665430254975L110.77218440129208,72.1678993686106L113.07993824298565,73.05000898585538L115.38769208467924,74.04781069396475L117.69544592637283,74.83685005459888L120.00319976806641,75.72550685264822L122.31095360975999,76.585004096883L124.61870745145359,77.35285027109771L126.92646129314716,78.09711902542081L129.23421513484075,78.83365794344718L131.54196897653432,79.57589726094575L133.84972281822792,80.45253354857282L136.15747665992149,81.08186238092435" fill="none"></path></g><g><path style="fill: none;" stroke="rgb(0, 153, 136)" stroke-width="2px" d="M23.077538416935848,-4.665812447650666L25.385292258629434,21.509314963096045L27.69304610032302,23.756568545557514L30.000799942016602,24.915977761358903L32.30855378371019,26.365071344030724L34.61630762540377,27.476862119095983L36.92406146709736,28.11792762455167L39.23181530879094,28.63524952055215L41.539569150484525,29.08217030041564L43.847322992178114,29.69743499365444L46.155076833871696,30.75286513858555L48.46283067556528,31.809137334227074L50.77058451725887,32.67982723003959L53.07833835895245,33.70651411588935L55.38609220064604,35.065688036181655L57.69384604233962,36.38992158261371L60.001599884033205,37.88821363375922L62.309353725726794,39.2124187964595L64.61710756742038,40.52353905879454L66.92486140911396,41.64479107779704L69.23261525080754,42.83600899571542L71.54036909250114,44.03922377094622L73.84812293419472,45.06320474102995L76.15587677588829,46.16339603102816L78.46363061758188,47.30213242882664L80.77138445927547,48.44063229552674L83.07913830096905,49.523821730169715L85.38689214266263,50.6011262710837L87.69464598435623,51.62305415123305L90.0023998260498,52.727342159856065L92.31015366774339,53.62873379224493L94.61790750943698,54.555169337335684L96.92566135113056,55.429331509673176L99.23341519282414,56.35673210164552L101.54116903451774,57.36326653790897L103.8489228762113,58.24171465375002L106.1566767179049,59.03781210236134L108.46443055959848,59.95191018535793L110.77218440129208,60.91976705640592L113.07993824298565,61.757654819488025L115.38769208467924,62.68176289857021L117.69544592637283,63.519565510456886L120.00319976806641,64.41020916973306L122.31095360975999,65.25231664761118L124.61870745145359,66.08623068823964L126.92646129314716,67.06288651614928L129.23421513484075,67.81439312208435L131.54196897653432,68.81311257085564L133.84972281822792,69.73545139732155L136.15747665992149,70.61682303753923L138.46523050161508,71.56006175186253L140.77298434330868,72.2990889770444L143.08073818500228,73.02274168082826L145.38849202669584,74.08277945155679L147.69624586838944,74.94776421727515L150.003999710083,75.71111630061968L152.31175355177658,76.68418631707709L154.61950739347017,77.33830833916616L156.92726123516377,78.2330108720914L159.23501507685734,78.87531580050286L161.54276891855093,79.72395153669767L163.8505227602445,80.50524213854719L166.1582766019381,81.2502488698974L168.4660304436317,81.95905688194372L170.77378428532526,82.86764379034688L173.08153812701883,83.43913603851004L175.38929196871246,84.12171748236233L177.69704581040602,84.90760624876535L180.0047996520996,85.65735779395008L182.3125534937932,86.27977518760545L184.62030733548679,86.94982521386287L186.92806117718035,87.63036775964669L189.23581501887395,88.21909839426351L191.54356886056752,88.80503323129687L193.85132270226111,89.51374663090382L196.1590765439547,90.28670187684465L198.46683038564828,90.79760904945569L200.77458422734185,91.50167697828945L203.08233806903547,91.8838970414881L205.39009191072904,92.56497887817633L207.6978457524226,93.11439804423392L210.0055995941162,93.94179328778962L212.3133534358098,94.4488970403379L214.62110727750337,94.99955089872928L216.92886111919697,95.50756293069553L219.23661496089053,95.93626135473589L221.54436880258416,96.4733288668334L223.85212264427773,97.19285646826062L226.1598764859713,97.66273495653782L228.46763032766486,98.26175942455835L230.7753841693585,98.69562841841041L233.08313801105206,99.24238897492162L235.39089185274565,99.63565030979503L237.69864569443922,100.3538296839612L240.00639953613282,100.75501481063205L242.31415337782641,101.20098000485787L244.62190721951998,101.60339036261858L246.92966106121355,102.16164633051355L249.23741490290718,102.55252816253675L251.54516874460074,102.962999500132L253.8529225862943,103.42922121762744L256.1606764279879,103.92416254109439L258.4684302696815,104.22534704997058L260.7761841113751,104.85248087372865L263.08393795306864,105.24410068277896L265.3916917947622,105.48530090509303L267.69944563645583,105.9603546938039L270.0071994781494,106.25276862955025L272.31495331984297,106.6544362796619L274.6227071615366,107.04372862270364L276.93046100323016,107.5086967253774L279.23821484492373,107.96037178031933L281.54596868661736,108.28194053925831L283.8537225283109,108.61691115023437" fill="none"></path></g><g><path style="fill: none;" stroke="rgb(51, 187, 238)" stroke-width="2px" d="M23.077538416935848,13.684866226997286L25.385292258629434,23.575707406453205L27.69304610032302,27.484109431951907L30.000799942016602,30.719552098682527L32.30855378371019,33.47025739353248L34.61630762540377,36.0966419430471L36.92406146709736,38.28467759970539L39.23181530879094,39.28392687813715L41.539569150484525,41.55879783165145L43.847322992178114,42.85206472667693L46.155076833871696,44.67312711474142L48.46283067556528,46.116619641002416L50.77058451725887,47.69882346462731L53.07833835895245,48.79857007616047L55.38609220064604,49.13337511536761L57.69384604233962,50.71492611316084L60.001599884033205,52.330414592956956L62.309353725726794,53.962611629546245L64.61710756742038,55.467952307424994L66.92486140911396,56.65868770190259L69.23261525080754,57.54483727030856L71.54036909250114,58.389395210366416L73.84812293419472,59.88759264907256L76.15587677588829,60.58786661908748L78.46363061758188,60.518525162271445L80.77138445927547,62.1644883087894L83.07913830096905,63.19984169408568L85.38689214266263,64.23245131864016L87.69464598435623,65.19456521461825L90.0023998260498,65.96215593524666L92.31015366774339,66.90907507346154L94.61790750943698,67.44605743436361L96.92566135113056,67.05939531713643L99.23341519282414,67.96399431122003L101.54116903451774,69.11926896342084L103.8489228762113,69.96966449098798L106.1566767179049,70.84976832451807L108.46443055959848,71.55577580835896L110.77218440129208,72.34973501584045L113.07993824298565,73.17103721830058L115.38769208467924,73.81596291128264L117.69544592637283,74.47311253143162L120.00319976806641,74.70700394280416L122.31095360975999,75.15520199059918L124.61870745145359,75.76037153655696L126.92646129314716,76.35969403376153L129.23421513484075,77.01801684815872L131.54196897653432,77.66816514779416L133.84972281822792,78.05503541238795L136.15747665992149,77.51700285340884" fill="none"></path></g><g><path style="fill: none;" stroke="rgb(238, 51, 119)" stroke-width="2px" d="M23.077538416935848,-8.434301597805444L25.385292258629434,15.017009373360906L27.69304610032302,24.471791280993273L30.000799942016602,25.84140095334837L32.30855378371019,26.596237917149352L34.61630762540377,27.025494554582025L36.92406146709736,27.59496682716457L39.23181530879094,28.451001256118303L41.539569150484525,29.290270360815242L43.847322992178114,30.133768641552166L46.155076833871696,30.81852617151L48.46283067556528,31.402776907122558L50.77058451725887,31.751215598843288L53.07833835895245,32.13984565480942L55.38609220064604,32.606672891916844L57.69384604233962,33.07501392805423L60.001599884033205,33.554330007158825L62.309353725726794,34.06788632807229L64.61710756742038,34.66908215157642L66.92486140911396,35.3144430617796L69.23261525080754,35.9239837024364L71.54036909250114,36.743630187207515L73.84812293419472,37.48062324494285L76.15587677588829,38.184804708703865L78.46363061758188,39.19461273536959L80.77138445927547,40.137491922423266L83.07913830096905,41.17848420910613L85.38689214266263,42.33029604602592L87.69464598435623,43.400627650158185L90.0023998260498,44.290277878820945L92.31015366774339,45.20792392829398L94.61790750943698,45.967368517892425L96.92566135113056,46.80758374698311L99.23341519282414,47.607863065414676L101.54116903451774,48.254624239720584L103.8489228762113,49.09448940278557L106.1566767179049,49.761289491750546L108.46443055959848,50.59303690751736L110.77218440129208,51.260565512265515L113.07993824298565,51.92659924047156L115.38769208467924,52.7019197973967L117.69544592637283,53.25868561937155L120.00319976806641,53.850193129083934L122.31095360975999,54.83931887650286L124.61870745145359,55.58651115520256L126.92646129314716,56.360980200173344L129.23421513484075,56.96793792123526L131.54196897653432,57.52221543605461L133.84972281822792,58.18131407245468L136.15747665992149,58.93213946882629L138.46523050161508,59.49263302091241L140.77298434330868,60.143566603794625L143.08073818500228,60.48418084677925L145.38849202669584,61.12360955703379L147.69624586838944,61.832427030324055L150.003999710083,62.13465700665529L152.31175355177658,62.494051818855354L154.61950739347017,63.04351356051065L156.92726123516377,63.704835589235955L159.23501507685734,64.27944531727644L161.54276891855093,64.75104102132823L163.8505227602445,65.40024319656995L166.1582766019381,65.85068355917807L168.4660304436317,66.27079117372341L170.77378428532526,66.78496247549279L173.08153812701883,67.27426016695118L175.38929196871246,68.03731895173364L177.69704581040602,68.52073174946307L180.0047996520996,69.12270339497005L182.3125534937932,69.50349954095614L184.62030733548679,70.11197106104802L186.92806117718035,70.65244462096294L189.23581501887395,71.01034455662092L191.54356886056752,71.64887444870142L193.85132270226111,72.25057171813422L196.1590765439547,72.6248301445597L198.46683038564828,73.3143561414619L200.77458422734185,73.78209165798731L203.08233806903547,74.2990540267182L205.39009191072904,75.12380958321542L207.6978457524226,75.59321973991771L210.0055995941162,76.34489664824368L212.3133534358098,76.79852545005865L214.62110727750337,77.41550262845011L216.92886111919697,77.80545725856746L219.23661496089053,78.37725699715858L221.54436880258416,78.83319434249425" fill="none"></path></g></g></g></g></g></g><g transform="translate(30, 178)" clip-path="url(#clip_1)"><clipPath id="clip_1"><rect width="300" height="21"></rect></clipPath><g><g><line x1="0" y1="0" x2="0" y2="5" style="visibility: inherit;" fill="rgb(0, 0, 0)" stroke="rgb(204, 204, 204)" stroke-width="1px"></line><line x1="23.077538416935848" y1="0" x2="23.077538416935848" y2="5" style="visibility: inherit;" fill="rgb(0, 0, 0)" stroke="rgb(204, 204, 204)" stroke-width="1px"></line><line x1="46.155076833871696" y1="0" x2="46.155076833871696" y2="5" style="visibility: inherit;" fill="rgb(0, 0, 0)" stroke="rgb(204, 204, 204)" stroke-width="1px"></line><line x1="69.23261525080754" y1="0" x2="69.23261525080754" y2="5" style="visibility: inherit;" fill="rgb(0, 0, 0)" stroke="rgb(204, 204, 204)" stroke-width="1px"></line><line x1="92.31015366774339" y1="0" x2="92.31015366774339" y2="5" style="visibility: inherit;" fill="rgb(0, 0, 0)" stroke="rgb(204, 204, 204)" stroke-width="1px"></line><line x1="115.38769208467924" y1="0" x2="115.38769208467924" y2="5" style="visibility: inherit;" fill="rgb(0, 0, 0)" stroke="rgb(204, 204, 204)" stroke-width="1px"></line><line x1="138.46523050161508" y1="0" x2="138.46523050161508" y2="5" style="visibility: inherit;" fill="rgb(0, 0, 0)" stroke="rgb(204, 204, 204)" stroke-width="1px"></line><line x1="161.54276891855093" y1="0" x2="161.54276891855093" y2="5" style="visibility: inherit;" fill="rgb(0, 0, 0)" stroke="rgb(204, 204, 204)" stroke-width="1px"></line><line x1="184.62030733548679" y1="0" x2="184.62030733548679" y2="5" style="visibility: inherit;" fill="rgb(0, 0, 0)" stroke="rgb(204, 204, 204)" stroke-width="1px"></line><line x1="207.6978457524226" y1="0" x2="207.6978457524226" y2="5" style="visibility: inherit;" fill="rgb(0, 0, 0)" stroke="rgb(204, 204, 204)" stroke-width="1px"></line><line x1="230.7753841693585" y1="0" x2="230.7753841693585" y2="5" style="visibility: inherit;" fill="rgb(0, 0, 0)" stroke="rgb(204, 204, 204)" stroke-width="1px"></line><line x1="253.8529225862943" y1="0" x2="253.8529225862943" y2="5" style="visibility: inherit;" fill="rgb(0, 0, 0)" stroke="rgb(204, 204, 204)" stroke-width="1px"></line><line x1="276.93046100323016" y1="0" x2="276.93046100323016" y2="5" style="visibility: inherit;" fill="rgb(0, 0, 0)" stroke="rgb(204, 204, 204)" stroke-width="1px"></line><line x1="300.007999420166" y1="0" x2="300.007999420166" y2="5" style="visibility: inherit;" fill="rgb(0, 0, 0)" stroke="rgb(204, 204, 204)" stroke-width="1px"></line></g><g transform="translate(0, 8)"><text style="text-anchor: middle; visibility: hidden; font-family: &quot;Helvetica Neue&quot;, sans-serif; font-size: 12px; font-weight: 200;" x="0" y="0" dx="0em" dy="0.95em" fill="rgb(50, 49, 63)" stroke="none" stroke-width="1px">-10</text><text style="text-anchor: middle; visibility: hidden; font-family: &quot;Helvetica Neue&quot;, sans-serif; font-size: 12px; font-weight: 200;" x="23.077538416935848" y="0" dx="0em" dy="0.95em" fill="rgb(50, 49, 63)" stroke="none" stroke-width="1px">0</text><text style="text-anchor: middle; visibility: hidden; font-family: &quot;Helvetica Neue&quot;, sans-serif; font-size: 12px; font-weight: 200;" x="46.155076833871696" y="0" dx="0em" dy="0.95em" fill="rgb(50, 49, 63)" stroke="none" stroke-width="1px">10</text><text style="text-anchor: middle; visibility: hidden; font-family: &quot;Helvetica Neue&quot;, sans-serif; font-size: 12px; font-weight: 200;" x="69.23261525080754" y="0" dx="0em" dy="0.95em" fill="rgb(50, 49, 63)" stroke="none" stroke-width="1px">20</text><text style="text-anchor: middle; visibility: hidden; font-family: &quot;Helvetica Neue&quot;, sans-serif; font-size: 12px; font-weight: 200;" x="92.31015366774339" y="0" dx="0em" dy="0.95em" fill="rgb(50, 49, 63)" stroke="none" stroke-width="1px">30</text><text style="text-anchor: middle; visibility: hidden; font-family: &quot;Helvetica Neue&quot;, sans-serif; font-size: 12px; font-weight: 200;" x="115.38769208467924" y="0" dx="0em" dy="0.95em" fill="rgb(50, 49, 63)" stroke="none" stroke-width="1px">40</text><text style="text-anchor: middle; visibility: hidden; font-family: &quot;Helvetica Neue&quot;, sans-serif; font-size: 12px; font-weight: 200;" x="138.46523050161508" y="0" dx="0em" dy="0.95em" fill="rgb(50, 49, 63)" stroke="none" stroke-width="1px">50</text><text style="text-anchor: middle; visibility: hidden; font-family: &quot;Helvetica Neue&quot;, sans-serif; font-size: 12px; font-weight: 200;" x="161.54276891855093" y="0" dx="0em" dy="0.95em" fill="rgb(50, 49, 63)" stroke="none" stroke-width="1px">60</text><text style="text-anchor: middle; visibility: hidden; font-family: &quot;Helvetica Neue&quot;, sans-serif; font-size: 12px; font-weight: 200;" x="184.62030733548679" y="0" dx="0em" dy="0.95em" fill="rgb(50, 49, 63)" stroke="none" stroke-width="1px">70</text><text style="text-anchor: middle; visibility: hidden; font-family: &quot;Helvetica Neue&quot;, sans-serif; font-size: 12px; font-weight: 200;" x="207.6978457524226" y="0" dx="0em" dy="0.95em" fill="rgb(50, 49, 63)" stroke="none" stroke-width="1px">80</text><text style="text-anchor: middle; visibility: hidden; font-family: &quot;Helvetica Neue&quot;, sans-serif; font-size: 12px; font-weight: 200;" x="230.7753841693585" y="0" dx="0em" dy="0.95em" fill="rgb(50, 49, 63)" stroke="none" stroke-width="1px">90</text><text style="text-anchor: middle; visibility: hidden; font-family: &quot;Helvetica Neue&quot;, sans-serif; font-size: 12px; font-weight: 200;" x="253.8529225862943" y="0" dx="0em" dy="0.95em" fill="rgb(50, 49, 63)" stroke="none" stroke-width="1px">100</text><text style="text-anchor: middle; visibility: hidden; font-family: &quot;Helvetica Neue&quot;, sans-serif; font-size: 12px; font-weight: 200;" x="276.93046100323016" y="0" dx="0em" dy="0.95em" fill="rgb(50, 49, 63)" stroke="none" stroke-width="1px">110</text><text style="text-anchor: middle; visibility: hidden; font-family: &quot;Helvetica Neue&quot;, sans-serif; font-size: 12px; font-weight: 200;" x="300.007999420166" y="0" dx="0em" dy="0.95em" fill="rgb(50, 49, 63)" stroke="none" stroke-width="1px">120</text></g><line x1="0" y1="0" x2="300.007999420166" y2="0" fill="rgb(0, 0, 0)" stroke="rgb(204, 204, 204)" stroke-width="1px"></line></g></g></g></g></svg>