<svg viewBox="0 0 330 200" xmlns="http://www.w3.org/2000/svg"><g><g><g><g><g><line x1="39.98800086975098" y1="178.57499980926514" x2="34.98800086975098" y2="178.57499980926514" style="visibility: inherit;" fill="rgb(0, 0, 0)" stroke="rgb(204, 204, 204)" stroke-width="1px"></line><line x1="39.98800086975098" y1="160.71749982833862" x2="34.98800086975098" y2="160.71749982833862" style="visibility: inherit;" fill="rgb(0, 0, 0)" stroke="rgb(204, 204, 204)" stroke-width="1px"></line><line x1="39.98800086975098" y1="142.8599998474121" x2="34.98800086975098" y2="142.8599998474121" style="visibility: inherit;" fill="rgb(0, 0, 0)" stroke="rgb(204, 204, 204)" stroke-width="1px"></line><line x1="39.98800086975098" y1="125.0024998664856" x2="34.98800086975098" y2="125.0024998664856" style="visibility: inherit;" fill="rgb(0, 0, 0)" stroke="rgb(204, 204, 204)" stroke-width="1px"></line><line x1="39.98800086975098" y1="107.14499988555907" x2="34.98800086975098" y2="107.14499988555907" style="visibility: inherit;" fill="rgb(0, 0, 0)" stroke="rgb(204, 204, 204)" stroke-width="1px"></line><line x1="39.98800086975098" y1="89.28749990463257" x2="34.98800086975098" y2="89.28749990463257" style="visibility: inherit;" fill="rgb(0, 0, 0)" stroke="rgb(204, 204, 204)" stroke-width="1px"></line><line x1="39.98800086975098" y1="71.42999992370606" x2="34.98800086975098" y2="71.42999992370606" style="visibility: inherit;" fill="rgb(0, 0, 0)" stroke="rgb(204, 204, 204)" stroke-width="1px"></line><line x1="39.98800086975098" y1="53.572499942779544" x2="34.98800086975098" y2="53.572499942779544" style="visibility: inherit;" fill="rgb(0, 0, 0)" stroke="rgb(204, 204, 204)" stroke-width="1px"></line><line x1="39.98800086975098" y1="35.71499996185301" x2="34.98800086975098" y2="35.71499996185301" style="visibility: inherit;" fill="rgb(0, 0, 0)" stroke="rgb(204, 204, 204)" stroke-width="1px"></line><line x1="39.98800086975098" y1="17.85749998092652" x2="34.98800086975098" y2="17.85749998092652" style="visibility: inherit;" fill="rgb(0, 0, 0)" stroke="rgb(204, 204, 204)" stroke-width="1px"></line><line x1="39.98800086975098" y1="0" x2="34.98800086975098" y2="0" style="visibility: inherit;" fill="rgb(0, 0, 0)" stroke="rgb(204, 204, 204)" stroke-width="1px"></line></g><g transform="translate(29.988000869750977, 0)"><text style="text-anchor: end; visibility: hidden; font-family: &quot;Helvetica Neue&quot;, sans-serif; font-size: 12px; font-weight: 200;" x="0" y="178.57499980926514" dx="0em" dy="0.3em" fill="rgb(50, 49, 63)" stroke="none" stroke-width="1px">3</text><text style="text-anchor: end; visibility: inherit; font-family: &quot;Helvetica Neue&quot;, sans-serif; font-size: 12px; font-weight: 200;" x="0" y="160.71749982833862" dx="0em" dy="0.3em" fill="rgb(50, 49, 63)" stroke="none" stroke-width="1px">3.5</text><text style="text-anchor: end; visibility: hidden; font-family: &quot;Helvetica Neue&quot;, sans-serif; font-size: 12px; font-weight: 200;" x="0" y="142.8599998474121" dx="0em" dy="0.3em" fill="rgb(50, 49, 63)" stroke="none" stroke-width="1px">4</text><text style="text-anchor: end; visibility: inherit; font-family: &quot;Helvetica Neue&quot;, sans-serif; font-size: 12px; font-weight: 200;" x="0" y="125.0024998664856" dx="0em" dy="0.3em" fill="rgb(50, 49, 63)" stroke="none" stroke-width="1px">4.5</text><text style="text-anchor: end; visibility: hidden; font-family: &quot;Helvetica Neue&quot;, sans-serif; font-size: 12px; font-weight: 200;" x="0" y="107.14499988555907" dx="0em" dy="0.3em" fill="rgb(50, 49, 63)" stroke="none" stroke-width="1px">5</text><text style="text-anchor: end; visibility: inherit; font-family: &quot;Helvetica Neue&quot;, sans-serif; font-size: 12px; font-weight: 200;" x="0" y="89.28749990463257" dx="0em" dy="0.3em" fill="rgb(50, 49, 63)" stroke="none" stroke-width="1px">5.5</text><text style="text-anchor: end; visibility: hidden; font-family: &quot;Helvetica Neue&quot;, sans-serif; font-size: 12px; font-weight: 200;" x="0" y="71.42999992370606" dx="0em" dy="0.3em" fill="rgb(50, 49, 63)" stroke="none" stroke-width="1px">6</text><text style="text-anchor: end; visibility: inherit; font-family: &quot;Helvetica Neue&quot;, sans-serif; font-size: 12px; font-weight: 200;" x="0" y="53.572499942779544" dx="0em" dy="0.3em" fill="rgb(50, 49, 63)" stroke="none" stroke-width="1px">6.5</text><text style="text-anchor: end; visibility: hidden; font-family: &quot;Helvetica Neue&quot;, sans-serif; font-size: 12px; font-weight: 200;" x="0" y="35.71499996185301" dx="0em" dy="0.3em" fill="rgb(50, 49, 63)" stroke="none" stroke-width="1px">7</text><text style="text-anchor: end; visibility: inherit; font-family: &quot;Helvetica Neue&quot;, sans-serif; font-size: 12px; font-weight: 200;" x="0" y="17.85749998092652" dx="0em" dy="0.3em" fill="rgb(50, 49, 63)" stroke="none" stroke-width="1px">7.5</text><text style="text-anchor: end; visibility: hidden; font-family: &quot;Helvetica Neue&quot;, sans-serif; font-size: 12px; font-weight: 200;" x="0" y="0" dx="0em" dy="0.3em" fill="rgb(50, 49, 63)" stroke="none" stroke-width="1px">8</text></g><line x1="39.98800086975098" y1="0" x2="39.98800086975098" y2="178.57499980926514" fill="rgb(0, 0, 0)" stroke="rgb(204, 204, 204)" stroke-width="1px"></line></g></g><g transform="translate(39, 0)" clip-path="url(#clip_0)"><clipPath id="clip_0"><rect width="290" height="178"></rect></clipPath><g><g><g><line x1="0" y1="0" x2="0" y2="178.57499980926514" fill="rgb(0, 0, 0)" stroke="rgb(60, 60, 60)" stroke-width="1px" opacity="0.25"></line><line x1="36.25149989128113" y1="0" x2="36.25149989128113" y2="178.57499980926514" fill="rgb(0, 0, 0)" stroke="rgb(60, 60, 60)" stroke-width="1px" opacity="0.25"></line><line x1="72.50299978256226" y1="0" x2="72.50299978256226" y2="178.57499980926514" fill="rgb(0, 0, 0)" stroke="rgb(60, 60, 60)" stroke-width="1px" opacity="0.25"></line><line x1="108.75449967384338" y1="0" x2="108.75449967384338" y2="178.57499980926514" fill="rgb(0, 0, 0)" stroke="rgb(60, 60, 60)" stroke-width="1px" opacity="0.25"></line><line x1="145.0059995651245" y1="0" x2="145.0059995651245" y2="178.57499980926514" fill="rgb(0, 0, 0)" stroke="rgb(60, 60, 60)" stroke-width="1px" opacity="0.25"></line><line x1="181.25749945640564" y1="0" x2="181.25749945640564" y2="178.57499980926514" fill="rgb(0, 0, 0)" stroke="rgb(60, 60, 60)" stroke-width="1px" opacity="0.25"></line><line x1="217.50899934768677" y1="0" x2="217.50899934768677" y2="178.57499980926514" fill="rgb(0, 0, 0)" stroke="rgb(60, 60, 60)" stroke-width="1px" opacity="0.25"></line><line x1="253.7604992389679" y1="0" x2="253.7604992389679" y2="178.57499980926514" fill="rgb(0, 0, 0)" stroke="rgb(60, 60, 60)" stroke-width="1px" opacity="0.25"></line><line x1="290.011999130249" y1="0" x2="290.011999130249" y2="178.57499980926514" fill="rgb(0, 0, 0)" stroke="rgb(60, 60, 60)" stroke-width="1px" opacity="0.25"></line></g><g><line x1="0" y1="178.57499980926514" x2="290.011999130249" y2="178.57499980926514" fill="rgb(0, 0, 0)" stroke="rgb(60, 60, 60)" stroke-width="1px" opacity="0.25"></line><line x1="0" y1="160.71749982833862" x2="290.011999130249" y2="160.71749982833862" fill="rgb(0, 0, 0)" stroke="rgb(60, 60, 60)" stroke-width="1px" opacity="0.25"></line><line x1="0" y1="142.8599998474121" x2="290.011999130249" y2="142.8599998474121" fill="rgb(0, 0, 0)" stroke="rgb(60, 60, 60)" stroke-width="1px" opacity="0.25"></line><line x1="0" y1="125.0024998664856" x2="290.011999130249" y2="125.0024998664856" fill="rgb(0, 0, 0)" stroke="rgb(60, 60, 60)" stroke-width="1px" opacity="0.25"></line><line x1="0" y1="107.14499988555907" x2="290.011999130249" y2="107.14499988555907" fill="rgb(0, 0, 0)" stroke="rgb(60, 60, 60)" stroke-width="1px" opacity="0.25"></line><line x1="0" y1="89.28749990463257" x2="290.011999130249" y2="89.28749990463257" fill="rgb(0, 0, 0)" stroke="rgb(60, 60, 60)" stroke-width="1px" opacity="0.25"></line><line x1="0" y1="71.42999992370606" x2="290.011999130249" y2="71.42999992370606" fill="rgb(0, 0, 0)" stroke="rgb(60, 60, 60)" stroke-width="1px" opacity="0.25"></line><line x1="0" y1="53.572499942779544" x2="290.011999130249" y2="53.572499942779544" fill="rgb(0, 0, 0)" stroke="rgb(60, 60, 60)" stroke-width="1px" opacity="0.25"></line><line x1="0" y1="35.71499996185301" x2="290.011999130249" y2="35.71499996185301" fill="rgb(0, 0, 0)" stroke="rgb(60, 60, 60)" stroke-width="1px" opacity="0.25"></line><line x1="0" y1="17.85749998092652" x2="290.011999130249" y2="17.85749998092652" fill="rgb(0, 0, 0)" stroke="rgb(60, 60, 60)" stroke-width="1px" opacity="0.25"></line><line x1="0" y1="0" x2="290.011999130249" y2="0" fill="rgb(0, 0, 0)" stroke="rgb(60, 60, 60)" stroke-width="1px" opacity="0.25"></line></g></g></g><g><g><line x1="0" y1="285.7199996948242" x2="290.011999130249" y2="285.7199996948242" fill="rgb(0, 0, 0)" stroke="rgb(153, 153, 153)" stroke-width="1.5px"></line></g></g><g><g><line x1="36.25149989128113" y1="0" x2="36.25149989128113" y2="178.57499980926514" fill="rgb(0, 0, 0)" stroke="rgb(153, 153, 153)" stroke-width="1.5px"></line></g></g><g><g><g><g><g><path style="fill: none;" stroke="rgb(0, 119, 187)" stroke-width="2px" d="M36.25149989128113,11.699689101597414L39.876649880409246,38.34767056183955L43.50179986953735,40.974584941014655L47.12694985866547,44.291888182539054L50.75209984779357,49.39598707883604L54.37724983692169,53.5858175897456L58.00239982604981,50.36924821242101L61.627549815177915,56.91149970890082L65.25269980430603,61.01599169174524L68.87784979343414,64.88134505732951L72.50299978256226,68.07718863368518L76.12814977169037,70.67564548334586L79.75329976081849,73.29479407349727L83.37844974994658,75.37147845800938L87.0035997390747,77.18184396367842L90.62874972820282,78.82388258621121L94.25389971733094,81.45500343444083L97.87904970645906,84.01243443814083L101.50419969558715,86.35915029361695L105.12934968471527,88.68246660058749L108.75449967384338,90.3011227048538L112.3796496629715,91.93221088365362L116.00479965209962,92.35982315688999L119.62994964122771,90.78692730505054L123.25509963035583,94.78537198909999L126.88024961948395,97.59093357629808L130.50539960861207,99.47107197150672L134.13054959774018,101.2405308428887L137.75569958686827,102.83324989302547L141.3808495759964,104.68305743242009L145.0059995651245,106.49308233330738L148.6311495542526,107.60777960251016L152.25629954338075,105.74577841192922L155.88144953250884,108.61591866574535L159.50659952163699,110.73868687722698L163.13174951076508,112.52955275914137L166.75689949989317,114.07194745277593L170.3820494890213,115.6277108840938L174.0071994781494,117.22214998837836L177.63234946727755,118.46503386718922L181.25749945640564,119.87195300888644L184.88264944553373,121.15848539047738L188.50779943466188,122.45956159624865L192.13294942378997,123.63497166779672L195.7580994129181,124.87608440174253L199.3832494020462,125.98081898107938L203.0083993911743,127.13999923477749L206.63354938030244,128.20602408066952" fill="none"></path></g><g><path style="fill: none;" stroke="rgb(204, 51, 17)" stroke-width="2px" d="M36.25149989128113,-0.10459972847255017L39.876649880409246,30.505926671823545L43.50179986953735,34.89746333447991L47.12694985866547,36.91610866418341L50.75209984779357,38.67994755666669L54.37724983692169,41.66630216201273L58.00239982604981,44.961994030135685L61.627549815177915,48.69675952240058L65.25269980430603,52.856923356820516L68.87784979343414,56.322321557445775L72.50299978256226,59.3776826915725L76.12814977169037,62.840458235378364L79.75329976081849,66.2362538488549L83.37844974994658,69.08144480240854L87.0035997390747,71.68623690100958L90.62874972820282,73.87978278613691L94.25389971733094,75.90159574031058L97.87904970645906,78.05040318735628L101.50419969558715,79.98798457900547L105.12934968471527,82.08399828488136L108.75449967384338,84.13256574466077L112.3796496629715,86.26934984291101L116.00479965209962,88.35265899042797L119.62994964122771,90.42113479970011L123.25509963035583,92.77353875503131L126.88024961948395,94.87399735330892L130.50539960861207,97.13685631152048L134.13054959774018,99.24724353918582L137.75569958686827,101.58609142420373L141.3808495759964,103.47798068438242L145.0059995651245,105.57397736001921L148.6311495542526,107.62969752021517L152.25629954338075,109.51901521429171L155.88144953250884,111.66550654882157L159.50659952163699,113.50039559877597L163.13174951076508,115.31874828657683L166.75689949989317,116.956359046947L170.3820494890213,118.77677239367739L174.0071994781494,120.41394036783132L177.63234946727755,122.15461813515623L181.25749945640564,123.50239125650415L184.88264944553373,125.19128006676539L188.50779943466188,126.85583266537122L192.13294942378997,128.23247204197168L195.7580994129181,129.67174863793426L199.3832494020462,131.24169825841165L203.0083993911743,132.74475309975514L206.63354938030244,133.9648164581894L210.25869936943053,135.45944133118482L213.88384935855868,136.74650165018747L217.50899934768677,138.04641979970083L221.13414933681486,139.3567093648182L224.759299325943,140.65599739548534L228.3844493150711,141.88639810904542L232.00959930419924,143.03554755192127L235.63474929332733,144.4343943602912" fill="none"></path></g><g><path style="fill: none;" stroke="rgb(0, 119, 187)" stroke-width="2px" d="M36.25149989128113,-15.543907940474668L39.876649880409246,29.96947414058195L43.50179986953735,34.3555440964914L47.12694985866547,36.404435130813454L50.75209984779357,39.10367693539118L54.37724983692169,41.480212739508715L58.00239982604981,42.803819951592146L61.627549815177915,43.910172403642264L65.25269980430603,44.82471327285512L68.87784979343414,46.087437380202374L72.50299978256226,48.04634063118854L76.12814977169037,50.1458455360773L79.75329976081849,52.04539840384514L83.37844974994658,53.809543840631974L87.0035997390747,55.59715694688076L90.62874972820282,57.254727147460926L94.25389971733094,59.267820619222036L97.87904970645906,61.26582529915204L101.50419969558715,63.04730751932948L105.12934968471527,56.01467028833849L108.75449967384338,56.51002885266307L112.3796496629715,59.347726501018414L116.00479965209962,61.36170554521205L119.62994964122771,62.49498280525877L123.25509963035583,64.0242642147963L126.88024961948395,64.07790946792046L130.50539960861207,64.28082476664248L134.13054959774018,64.6551664520146L137.75569958686827,64.71276272060696L141.3808495759964,65.2211664480722L145.0059995651245,65.39657791066865L148.6311495542526,66.04779722311777L152.25629954338075,67.31566446266935L155.88144953250884,68.01092397339754L159.50659952163699,68.43218396745442L163.13174951076508,68.42828404270348L166.75689949989317,69.6499823040901L170.3820494890213,70.38449651591391L174.0071994781494,70.64856740319748L177.63234946727755,71.00381819055302L181.25749945640564,71.38602784638333L184.88264944553373,71.75415349448868L188.50779943466188,71.930910345973L192.13294942378997,72.08474449564619L195.7580994129181,72.62186120621219L199.3832494020462,73.09082289995185L203.0083993911743,73.53289384617311L206.63354938030244,73.94024013489589L210.25869936943053,74.33540980267144L213.88384935855868,74.78671113847786L217.50899934768677,75.06132374375629L221.13414933681486,75.26905860013994L224.759299325943,75.40133246712894L228.3844493150711,75.94214473957682L232.00959930419924,75.44908525752898L235.63474929332733,75.13945848068761L239.25989928245542,75.49545859856299L242.88504927158357,75.79309608708708L246.51019926071166,76.13320699189426L250.1353492498398,76.40160355990592L253.7604992389679,76.77172174598445L257.385649228096,77.00832285762063L261.01079921722413,77.59942542609251L264.6359492063522,78.08458287720396L268.26109919548037,78.5294127221573" fill="none"></path></g><g><path style="fill: none;" stroke="rgb(255, 112, 67)" stroke-width="2px" d="M36.25149989128113,14.037123476771086L39.876649880409246,31.237256228938094L43.50179986953735,37.79485197083531L47.12694985866547,43.45692962057993L50.75209984779357,50.50855556815296L54.37724983692169,55.99513660410567L58.00239982604981,61.268482016449624L61.627549815177915,66.03190801004958L65.25269980430603,70.15230623620128L68.87784979343414,73.89844792817631L72.50299978256226,77.47828933546644L76.12814977169037,81.00850462605695L79.75329976081849,84.28893739995793L83.37844974994658,87.63299514708807L87.0035997390747,90.99708045538455L90.62874972820282,94.42869066166112L94.25389971733094,97.69045829352272L97.87904970645906,100.89347160053403L101.50419969558715,103.81851734516677L105.12934968471527,106.76205792944802L108.75449967384338,109.4948833655054L112.3796496629715,112.18486072001978L116.00479965209962,114.65942258032229L119.62994964122771,117.03515796320272L123.25509963035583,119.27623524562196L126.88024961948395,121.40011042264422L130.50539960861207,123.5329264751872L134.13054959774018,125.5054368872039L137.75569958686827,127.45509271836582L141.3808495759964,129.205801296513L145.0059995651245,130.94833535989838L148.6311495542526,132.7475971496827L152.25629954338075,134.44145878975732L155.88144953250884,135.88730905800747L159.50659952163699,137.5066123113591L163.13174951076508,138.88904196924915L166.75689949989317,140.32642820867304L170.3820494890213,141.60383238211335L174.0071994781494,142.92708195917595L177.63234946727755,144.2401729986231L181.25749945640564,145.48806376772558L184.88264944553373,146.62124736145734L188.50779943466188,147.68789381107604L192.13294942378997,148.874049963488L195.7580994129181,149.9090116532853L199.3832494020462,150.95800626009026L203.0083993911743,151.86708042255617L206.63354938030244,152.8469152284287L210.25869936943053,153.94894199975073L213.88384935855868,154.7986998394765L217.50899934768677,155.6628993219481L221.13414933681486,156.53275284379657L224.759299325943,157.41051691170097L228.3844493150711,158.21853363542442L232.00959930419924,159.12478077820188L235.63474929332733,159.80694403507215L239.25989928245542,160.6085829342575L242.88504927158357,161.31575509722705L246.51019926071166,162.13532683817107L250.1353492498398,162.75691353460874L253.7604992389679,163.3746939726105L257.385649228096,164.2285475848367" fill="none"></path></g></g></g></g></g></g><g transform="translate(39, 178)" clip-path="url(#clip_1)"><clipPath id="clip_1"><rect width="290" height="21"></rect></clipPath><g><g><line x1="0" y1="0" x2="0" y2="5" style="visibility: inherit;" fill="rgb(0, 0, 0)" stroke="rgb(204, 204, 204)" stroke-width="1px"></line><line x1="36.25149989128113" y1="0" x2="36.25149989128113" y2="5" style="visibility: inherit;" fill="rgb(0, 0, 0)" stroke="rgb(204, 204, 204)" stroke-width="1px"></line><line x1="72.50299978256226" y1="0" x2="72.50299978256226" y2="5" style="visibility: inherit;" fill="rgb(0, 0, 0)" stroke="rgb(204, 204, 204)" stroke-width="1px"></line><line x1="108.75449967384338" y1="0" x2="108.75449967384338" y2="5" style="visibility: inherit;" fill="rgb(0, 0, 0)" stroke="rgb(204, 204, 204)" stroke-width="1px"></line><line x1="145.0059995651245" y1="0" x2="145.0059995651245" y2="5" style="visibility: inherit;" fill="rgb(0, 0, 0)" stroke="rgb(204, 204, 204)" stroke-width="1px"></line><line x1="181.25749945640564" y1="0" x2="181.25749945640564" y2="5" style="visibility: inherit;" fill="rgb(0, 0, 0)" stroke="rgb(204, 204, 204)" stroke-width="1px"></line><line x1="217.50899934768677" y1="0" x2="217.50899934768677" y2="5" style="visibility: inherit;" fill="rgb(0, 0, 0)" stroke="rgb(204, 204, 204)" stroke-width="1px"></line><line x1="253.7604992389679" y1="0" x2="253.7604992389679" y2="5" style="visibility: inherit;" fill="rgb(0, 0, 0)" stroke="rgb(204, 204, 204)" stroke-width="1px"></line><line x1="290.011999130249" y1="0" x2="290.011999130249" y2="5" style="visibility: inherit;" fill="rgb(0, 0, 0)" stroke="rgb(204, 204, 204)" stroke-width="1px"></line></g><g transform="translate(0, 8)"><text style="text-anchor: middle; visibility: hidden; font-family: &quot;Helvetica Neue&quot;, sans-serif; font-size: 12px; font-weight: 200;" x="0" y="0" dx="0em" dy="0.95em" fill="rgb(50, 49, 63)" stroke="none" stroke-width="1px">-10</text><text style="text-anchor: middle; visibility: hidden; font-family: &quot;Helvetica Neue&quot;, sans-serif; font-size: 12px; font-weight: 200;" x="36.25149989128113" y="0" dx="0em" dy="0.95em" fill="rgb(50, 49, 63)" stroke="none" stroke-width="1px">0</text><text style="text-anchor: middle; visibility: hidden; font-family: &quot;Helvetica Neue&quot;, sans-serif; font-size: 12px; font-weight: 200;" x="72.50299978256226" y="0" dx="0em" dy="0.95em" fill="rgb(50, 49, 63)" stroke="none" stroke-width="1px">10</text><text style="text-anchor: middle; visibility: hidden; font-family: &quot;Helvetica Neue&quot;, sans-serif; font-size: 12px; font-weight: 200;" x="108.75449967384338" y="0" dx="0em" dy="0.95em" fill="rgb(50, 49, 63)" stroke="none" stroke-width="1px">20</text><text style="text-anchor: middle; visibility: hidden; font-family: &quot;Helvetica Neue&quot;, sans-serif; font-size: 12px; font-weight: 200;" x="145.0059995651245" y="0" dx="0em" dy="0.95em" fill="rgb(50, 49, 63)" stroke="none" stroke-width="1px">30</text><text style="text-anchor: middle; visibility: hidden; font-family: &quot;Helvetica Neue&quot;, sans-serif; font-size: 12px; font-weight: 200;" x="181.25749945640564" y="0" dx="0em" dy="0.95em" fill="rgb(50, 49, 63)" stroke="none" stroke-width="1px">40</text><text style="text-anchor: middle; visibility: hidden; font-family: &quot;Helvetica Neue&quot;, sans-serif; font-size: 12px; font-weight: 200;" x="217.50899934768677" y="0" dx="0em" dy="0.95em" fill="rgb(50, 49, 63)" stroke="none" stroke-width="1px">50</text><text style="text-anchor: middle; visibility: hidden; font-family: &quot;Helvetica Neue&quot;, sans-serif; font-size: 12px; font-weight: 200;" x="253.7604992389679" y="0" dx="0em" dy="0.95em" fill="rgb(50, 49, 63)" stroke="none" stroke-width="1px">60</text><text style="text-anchor: middle; visibility: hidden; font-family: &quot;Helvetica Neue&quot;, sans-serif; font-size: 12px; font-weight: 200;" x="290.011999130249" y="0" dx="0em" dy="0.95em" fill="rgb(50, 49, 63)" stroke="none" stroke-width="1px">70</text></g><line x1="0" y1="0" x2="290.011999130249" y2="0" fill="rgb(0, 0, 0)" stroke="rgb(204, 204, 204)" stroke-width="1px"></line></g></g></g></g></svg>