<svg viewBox="0 0 330 200" xmlns="http://www.w3.org/2000/svg"><g><g><g><g><g><line x1="59.98000144958496" y1="178.57499980926514" x2="54.98000144958496" y2="178.57499980926514" style="visibility: inherit;" fill="rgb(0, 0, 0)" stroke="rgb(204, 204, 204)" stroke-width="1px"></line><line x1="59.98000144958496" y1="153.06428555079867" x2="54.98000144958496" y2="153.06428555079867" style="visibility: inherit;" fill="rgb(0, 0, 0)" stroke="rgb(204, 204, 204)" stroke-width="1px"></line><line x1="59.98000144958496" y1="127.55357129233224" x2="54.98000144958496" y2="127.55357129233224" style="visibility: inherit;" fill="rgb(0, 0, 0)" stroke="rgb(204, 204, 204)" stroke-width="1px"></line><line x1="59.98000144958496" y1="102.04285703386577" x2="54.98000144958496" y2="102.04285703386577" style="visibility: inherit;" fill="rgb(0, 0, 0)" stroke="rgb(204, 204, 204)" stroke-width="1px"></line><line x1="59.98000144958496" y1="76.53214277539934" x2="54.98000144958496" y2="76.53214277539934" style="visibility: inherit;" fill="rgb(0, 0, 0)" stroke="rgb(204, 204, 204)" stroke-width="1px"></line><line x1="59.98000144958496" y1="51.0214285169329" x2="54.98000144958496" y2="51.0214285169329" style="visibility: inherit;" fill="rgb(0, 0, 0)" stroke="rgb(204, 204, 204)" stroke-width="1px"></line><line x1="59.98000144958496" y1="25.510714258466436" x2="54.98000144958496" y2="25.510714258466436" style="visibility: inherit;" fill="rgb(0, 0, 0)" stroke="rgb(204, 204, 204)" stroke-width="1px"></line><line x1="59.98000144958496" y1="0" x2="54.98000144958496" y2="0" style="visibility: inherit;" fill="rgb(0, 0, 0)" stroke="rgb(204, 204, 204)" stroke-width="1px"></line></g><g transform="translate(49.98000144958496, 0)"><text style="text-anchor: end; visibility: hidden; font-family: &quot;Helvetica Neue&quot;, sans-serif; font-size: 12px; font-weight: 200;" x="0" y="178.57499980926514" dx="0em" dy="0.3em" fill="rgb(50, 49, 63)" stroke="none" stroke-width="1px">-0.05</text><text style="text-anchor: end; visibility: inherit; font-family: &quot;Helvetica Neue&quot;, sans-serif; font-size: 12px; font-weight: 200;" x="0" y="153.06428555079867" dx="0em" dy="0.3em" fill="rgb(50, 49, 63)" stroke="none" stroke-width="1px">0</text><text style="text-anchor: end; visibility: inherit; font-family: &quot;Helvetica Neue&quot;, sans-serif; font-size: 12px; font-weight: 200;" x="0" y="127.55357129233224" dx="0em" dy="0.3em" fill="rgb(50, 49, 63)" stroke="none" stroke-width="1px">0.05</text><text style="text-anchor: end; visibility: inherit; font-family: &quot;Helvetica Neue&quot;, sans-serif; font-size: 12px; font-weight: 200;" x="0" y="102.04285703386577" dx="0em" dy="0.3em" fill="rgb(50, 49, 63)" stroke="none" stroke-width="1px">0.1</text><text style="text-anchor: end; visibility: inherit; font-family: &quot;Helvetica Neue&quot;, sans-serif; font-size: 12px; font-weight: 200;" x="0" y="76.53214277539934" dx="0em" dy="0.3em" fill="rgb(50, 49, 63)" stroke="none" stroke-width="1px">0.15</text><text style="text-anchor: end; visibility: inherit; font-family: &quot;Helvetica Neue&quot;, sans-serif; font-size: 12px; font-weight: 200;" x="0" y="51.0214285169329" dx="0em" dy="0.3em" fill="rgb(50, 49, 63)" stroke="none" stroke-width="1px">0.2</text><text style="text-anchor: end; visibility: inherit; font-family: &quot;Helvetica Neue&quot;, sans-serif; font-size: 12px; font-weight: 200;" x="0" y="25.510714258466436" dx="0em" dy="0.3em" fill="rgb(50, 49, 63)" stroke="none" stroke-width="1px">0.25</text><text style="text-anchor: end; visibility: hidden; font-family: &quot;Helvetica Neue&quot;, sans-serif; font-size: 12px; font-weight: 200;" x="0" y="0" dx="0em" dy="0.3em" fill="rgb(50, 49, 63)" stroke="none" stroke-width="1px">0.3</text></g><line x1="59.98000144958496" y1="0" x2="59.98000144958496" y2="178.57499980926514" fill="rgb(0, 0, 0)" stroke="rgb(204, 204, 204)" stroke-width="1px"></line></g></g><g transform="translate(59, 0)" clip-path="url(#clip_0)"><clipPath id="clip_0"><rect width="270" height="178"></rect></clipPath><g><g><g><line x1="0" y1="0" x2="0" y2="178.57499980926514" fill="rgb(0, 0, 0)" stroke="rgb(60, 60, 60)" stroke-width="1px" opacity="0.25"></line><line x1="30.002222061157227" y1="0" x2="30.002222061157227" y2="178.57499980926514" fill="rgb(0, 0, 0)" stroke="rgb(60, 60, 60)" stroke-width="1px" opacity="0.25"></line><line x1="60.00444412231445" y1="0" x2="60.00444412231445" y2="178.57499980926514" fill="rgb(0, 0, 0)" stroke="rgb(60, 60, 60)" stroke-width="1px" opacity="0.25"></line><line x1="90.00666618347168" y1="0" x2="90.00666618347168" y2="178.57499980926514" fill="rgb(0, 0, 0)" stroke="rgb(60, 60, 60)" stroke-width="1px" opacity="0.25"></line><line x1="120.0088882446289" y1="0" x2="120.0088882446289" y2="178.57499980926514" fill="rgb(0, 0, 0)" stroke="rgb(60, 60, 60)" stroke-width="1px" opacity="0.25"></line><line x1="150.01111030578613" y1="0" x2="150.01111030578613" y2="178.57499980926514" fill="rgb(0, 0, 0)" stroke="rgb(60, 60, 60)" stroke-width="1px" opacity="0.25"></line><line x1="180.01333236694336" y1="0" x2="180.01333236694336" y2="178.57499980926514" fill="rgb(0, 0, 0)" stroke="rgb(60, 60, 60)" stroke-width="1px" opacity="0.25"></line><line x1="210.0155544281006" y1="0" x2="210.0155544281006" y2="178.57499980926514" fill="rgb(0, 0, 0)" stroke="rgb(60, 60, 60)" stroke-width="1px" opacity="0.25"></line><line x1="240.0177764892578" y1="0" x2="240.0177764892578" y2="178.57499980926514" fill="rgb(0, 0, 0)" stroke="rgb(60, 60, 60)" stroke-width="1px" opacity="0.25"></line><line x1="270.01999855041504" y1="0" x2="270.01999855041504" y2="178.57499980926514" fill="rgb(0, 0, 0)" stroke="rgb(60, 60, 60)" stroke-width="1px" opacity="0.25"></line></g><g><line x1="0" y1="178.57499980926514" x2="270.01999855041504" y2="178.57499980926514" fill="rgb(0, 0, 0)" stroke="rgb(60, 60, 60)" stroke-width="1px" opacity="0.25"></line><line x1="0" y1="153.06428555079867" x2="270.01999855041504" y2="153.06428555079867" fill="rgb(0, 0, 0)" stroke="rgb(60, 60, 60)" stroke-width="1px" opacity="0.25"></line><line x1="0" y1="127.55357129233224" x2="270.01999855041504" y2="127.55357129233224" fill="rgb(0, 0, 0)" stroke="rgb(60, 60, 60)" stroke-width="1px" opacity="0.25"></line><line x1="0" y1="102.04285703386577" x2="270.01999855041504" y2="102.04285703386577" fill="rgb(0, 0, 0)" stroke="rgb(60, 60, 60)" stroke-width="1px" opacity="0.25"></line><line x1="0" y1="76.53214277539934" x2="270.01999855041504" y2="76.53214277539934" fill="rgb(0, 0, 0)" stroke="rgb(60, 60, 60)" stroke-width="1px" opacity="0.25"></line><line x1="0" y1="51.0214285169329" x2="270.01999855041504" y2="51.0214285169329" fill="rgb(0, 0, 0)" stroke="rgb(60, 60, 60)" stroke-width="1px" opacity="0.25"></line><line x1="0" y1="25.510714258466436" x2="270.01999855041504" y2="25.510714258466436" fill="rgb(0, 0, 0)" stroke="rgb(60, 60, 60)" stroke-width="1px" opacity="0.25"></line><line x1="0" y1="0" x2="270.01999855041504" y2="0" fill="rgb(0, 0, 0)" stroke="rgb(60, 60, 60)" stroke-width="1px" opacity="0.25"></line></g></g></g><g><g><line x1="0" y1="153.06428555079867" x2="270.01999855041504" y2="153.06428555079867" fill="rgb(0, 0, 0)" stroke="rgb(153, 153, 153)" stroke-width="1.5px"></line></g></g><g><g><line x1="30.002222061157227" y1="0" x2="30.002222061157227" y2="178.57499980926514" fill="rgb(0, 0, 0)" stroke="rgb(153, 153, 153)" stroke-width="1.5px"></line></g></g><g><g><g><g><g><path style="fill: none;" stroke="rgb(0, 119, 187)" stroke-width="2px" d="M30.002222061157227,130.88817725676907L31.502333164215088,125.27184769499483L33.00244426727295,123.84804748085833L34.50255537033081,118.65440997378136L36.00266647338867,111.87112889527991L37.50277757644653,107.35298745852633L39.00288867950439,106.36603568532817L40.502999782562256,100.64655913529778L42.00311088562012,96.5329086852172L43.50322198867798,93.19385281054033L45.00333309173584,90.95500360038308L46.5034441947937,88.05077762714566L48.00355529785156,86.0546207281566L49.503666400909424,83.37285985577888L51.003777503967285,81.4090680138405L52.50388860702515,79.78706698815066L54.00399971008301,77.04058360445688L55.50411081314087,73.75411239435391L57.00422191619873,70.81549902317423L58.50433301925659,68.36227027433095L60.00444412231445,66.50769244332349L61.504555225372314,64.38615040905614L63.004666328430176,63.482110811020334L64.50477743148804,64.13940961471211L66.0048885345459,59.97519684094924L67.50499963760376,57.4916329787322L69.00511074066162,56.01322575913022L70.50522184371948,54.225385177545064L72.00533294677734,52.346531653053276L73.5054440498352,51.187669499892394L75.00555515289307,49.62634630373543L76.50566625595093,48.35624779875204L78.00577735900877,48.93264536399511L79.50588846206665,46.74638081841172L81.00599956512451,44.92416044166961L82.50611066818237,43.413395767802285L84.00622177124023,42.75205228232733L85.5063328742981,41.15837163190497L87.00644397735596,39.9995094787441L88.50655508041382,38.74356736000183L90.00666618347168,37.83346834207657L91.50677728652954,37.05887376667283L93.0068883895874,36.07191819208202L94.50699949264526,34.834184744149326L96.00711059570312,34.03126979347809L97.50722169876099,32.92701844717533L99.00733280181885,31.501192090754586L100.50744390487671,31.29288337613599" fill="none"></path></g><g><path style="fill: none;" stroke="rgb(238, 51, 119)" stroke-width="2px" d="M30.002222061157227,137.2157188735413L31.502333164215088,132.3900770829688L33.00244426727295,133.03742003930142L34.50255537033081,129.46119337628537L36.00266647338867,121.40336806409243L37.50277757644653,117.56458491259808L39.00288867950439,113.25953054102837L40.502999782562256,110.08166892042442L42.00311088562012,114.03362713399451L43.50322198867798,114.99785038051824L45.00333309173584,111.0730531174564L46.5034441947937,108.38861986604336L48.00355529785156,107.42439661951963L49.503666400909424,107.43345153681992L51.003777503967285,107.24332488326232L52.50388860702515,105.84452262721427L54.00399971008301,104.54530925589884L55.50411081314087,102.85678766016792L57.00422191619873,101.19542701494524L58.50433301925659,100.27194709488016L60.00444412231445,98.97273372356473L61.504555225372314,97.95418857602453L63.004666328430176,96.8496331183095L64.50477743148804,95.23354325819562L66.0048885345459,92.90220616478223L67.50499963760376,91.00544808089312L69.00511074066162,88.95477160846963L70.50522184371948,87.2164555703724L72.00533294677734,85.3151738292258L73.5054440498352,82.55831264358838L75.00555515289307,81.58955813702184L76.50566625595093,81.35416069835541L78.00577735900877,80.40804728643226L79.50588846206665,79.77428670605006L81.00599956512451,78.74668664120958L82.50611066818237,77.18944614076231L84.00622177124023,76.41082208914602L85.5063328742981,75.5552426446552L87.00644397735596,75.23836615585675L88.50655508041382,74.03421421062379L90.00666618347168,72.96587842210994L91.50677728652954,70.93331178428704L93.0068883895874,69.8423349011298L94.50699949264526,68.23077249966607L96.00711059570312,67.17601528571001L97.50722169876099,65.54181178960289L99.00733280181885,65.36526751199573L100.50744390487671,64.35124602171302L102.00755500793457,63.69032068942995L103.50766611099243,60.93345950379252L105.0077772140503,59.89228086439424L106.50788831710815,58.249030053772145L108.00799942016602,56.06707628745765L109.50811052322388,54.79050020939296L111.00822162628174,56.47449434647373L112.5083327293396,55.46500411623383L114.00844383239746,54.73164704833371L115.50855493545532,53.49581429672767L117.00866603851318,51.517577162706544L118.50877714157104,50.07802777880718L120.0088882446289,48.40761221628418L121.50899934768677,47.02692359622938L123.00911045074463,45.67338452250485L124.5092215538025,44.48735001465778L126.00933265686035,43.242454742966174L127.50944375991821,41.77575581273652L129.00955486297607,40.19135056038837L130.50966596603394,40.66666909497869L132.0097770690918,40.26378229600542L133.50988817214966,38.26742772459838L135.00999927520752,39.54853506270587L136.51011037826538,48.022827649126185L138.01022148132324,43.56839375185021L139.5103325843811,42.23749577276905L141.01044368743896,41.56299186592818L142.51055479049683,38.65221229175637L144.0106658935547,37.68346538797516L145.51077699661255,36.98632798927619L147.0108880996704,36.19412536310213L148.51099920272827,36.23939234681828L150.01111030578613,35.00808325246976L151.511221408844,35.10314847994488L153.01133251190186,35.012614512512556L154.51144361495972,34.306422196513324L156.01155471801755,34.54634329243723L157.51166582107544,34.40148742398844L159.0117769241333,33.328612772646466L160.51188802719116,32.91214739911541L162.01199913024902,33.91258271205501L163.51211023330688,32.61789679938974L165.01222133636475,33.708873682546994L166.5123324394226,32.681273617706495L168.01244354248047,33.12038008588095L169.51255464553833,33.28334578893032L171.0126657485962,32.7853937624819L172.51277685165405,32.676749960449L174.0128879547119,31.839280350558766L175.51299905776978,31.807591941400375L177.01311016082764,32.06562287192489L178.5132212638855,31.545029750833095L180.01333236694336,31.839280350558766L181.51344347000125,31.49976276711692L183.01355457305908,31.12855677451671L184.51366567611694,30.612494913467714L186.0137767791748,30.318251916527345L187.51388788223267,30.929379005051487L189.01399898529053,30.721138715500643L190.5141100883484,30.48121761957674L192.01422119140625,30.399730966659376L193.5143322944641,30.49027253687703L195.01444339752197,29.50341579849521L196.51455450057983,28.634257779446585L198.0146656036377,29.969679415785237L199.51477670669556,29.18653170691144L201.01488780975342,29.299706768987164L202.51499891281128,29.956100841227453L204.01511001586914,29.145788380452785L205.515221118927,29.612059600528113L207.01533222198486,29.390240736419486L208.51544332504272,29.16842187231086L210.0155544281006,29.21822011606983L211.51566553115845,29.21822011606983L213.0157766342163,29.716172142518218L214.51588773727417,29.15031964049558L216.01599884033203,29.258963442528483L217.5161099433899,29.426452802835342L219.01622104644775,28.7564801560373L220.51633214950562,28.969244102845607L222.01644325256348,29.18653170691144L223.5165543556213,28.28568527870445L225.0166654586792,27.891845794246166L226.51677656173706,27.39389376779775L228.01688766479492,27.615705029121074L229.51699876785278,27.176598560946616L231.01710987091064,27.71982517389651L232.5172209739685,27.421050916913345L234.01733207702637,26.529259406006645L235.51744318008423,26.85519841489068L237.0175542831421,27.47537281792978L238.51766538619995,26.981944448738886L240.0177764892578,26.588112567065906L241.51788759231567,26.714858600914084L243.01799869537354,26.669591617197938L244.5181097984314,26.50662591414857L246.01822090148926,26.149006098891448L247.51833200454712,24.899587169942322L249.018443107605,24.61439148751694L250.51855421066284,25.076139050334803L252.0186653137207,24.88600859538454L253.51877641677856,24.655142416760924" fill="none"></path></g><g><path style="fill: none;" stroke="rgb(0, 153, 136)" stroke-width="2px" d="M30.002222061157227,143.7963562628258L31.502333164215088,134.08438629901443L33.00244426727295,133.35570494407796L34.50255537033081,132.90027909724262L36.00266647338867,132.4562365207078L37.50277757644653,132.96859202391977L39.00288867950439,131.95526808918896L40.502999782562256,129.6325924689362L42.00311088562012,124.2130172888107L43.50322198867798,121.89034356925428L45.00333309173584,119.81815311510913L46.5034441947937,117.8142755876411L48.00355529785156,115.5257573810751L49.503666400909424,114.80846119713539L51.003777503967285,117.51824973754631L52.50388860702515,115.85594254555295L54.00399971008301,113.92037984545838L55.50411081314087,111.66601715188278L57.00422191619873,110.6982358018355L58.50433301925659,109.28641377594971L60.00444412231445,107.98845106281723L61.504555225372314,107.4191659032286L63.004666328430176,105.5860735434979L64.50477743148804,105.25589218041272L66.0048885345459,104.56136633846661L67.50499963760376,103.86684049652052L69.00511074066162,103.12677397058722L70.50522184371948,102.63718880936885L72.00533294677734,102.06790745117289L73.5054440498352,100.80409644963815L75.00555515289307,100.29174094642619L76.50566625595093,99.91601509796114L78.00577735900877,98.74329306718613L79.50588846206665,98.08292273823044L81.00599956512451,97.65026723338872L82.50611066818237,96.97851553482889L84.00622177124023,95.82856384604747L85.5063328742981,94.92909732337367L87.00644397735596,93.43757529911761L88.50655508041382,92.15099395558929L90.00666618347168,91.34261260228251L91.50677728652954,88.97439439734625L93.0068883895874,87.22100203598582L94.50699949264526,86.0255096632172L96.00711059570312,84.11271730511625L97.50722169876099,83.65728765688827L99.00733280181885,82.34793597136635L100.50744390487671,80.94750291787001L102.00755500793457,79.90002156945248L103.50766611099243,78.69314022429441L105.0077772140503,78.11246989370898L106.50788831710815,76.54124787108266L108.00799942016602,76.09720719524415L109.50811052322388,74.82201482410528L111.00822162628174,74.00225210119437L112.5083327293396,73.04585212075123L114.00844383239746,71.40631907214411L115.50855493545532,70.33606738173297L117.00866603851318,68.40050468163841L118.50877714157104,67.44410470119529L120.0088882446289,65.87288267856897L121.50899934768677,64.60907927981955L123.00911045074463,63.82346826850639L124.5092215538025,62.52549795258861L126.00933265686035,61.136453871481734L127.50944375991821,60.23698354741525L129.00955486297607,59.371672537731826L130.50966596603394,57.834609829488585" fill="none"></path></g><g><path style="fill: none;" stroke="rgb(51, 187, 238)" stroke-width="2px" d="M30.002222061157227,132.84670226918624L31.502333164215088,118.35785573010773L33.00244426727295,108.95714854849398L34.50255537033081,104.16299179257287L36.00266647338867,95.1443549837626L37.50277757644653,85.8740545771222L39.00288867950439,79.11579426506513L40.502999782562256,74.31592021459339L42.00311088562012,69.87980902990658L43.50322198867798,65.63359261382551L45.00333309173584,61.50519656164256L46.5034441947937,58.29650944801256L48.00355529785156,55.42985643976091L49.503666400909424,52.63298179505425L51.003777503967285,50.421787716450154L52.50388860702515,48.101927027457236L54.00399971008301,45.77291258495501L55.50411081314087,43.77449005594457L57.00422191619873,42.003710124587656L58.50433301925659,39.88288275213915L60.00444412231445,38.48387902228046L61.504555225372314,36.502608376921955L63.004666328430176,34.82906046685261L64.50477743148804,33.28134625639464L66.0048885345459,32.05963947988849L67.50499963760376,30.34261884343536L69.00511074066162,28.555819843437234L70.50522184371948,27.375304957722847L72.00533294677734,25.845883048712835L73.5054440498352,24.491484860248647L75.00555515289307,22.862542491573777L76.50566625595093,21.51158836485351L78.00577735900877,19.818584927184304L79.50588846206665,18.758178843745327L81.00599956512451,17.44038806653296L82.50611066818237,16.079124562936812L84.00622177124023,14.274025658705426L85.5063328742981,12.909325696150631L87.00644397735596,11.637303686484643L88.50655508041382,10.33208791616957L90.00666618347168,9.334587278358356L91.50677728652954,7.545499839982909L93.0068883895874,6.602921723227382L94.50699949264526,5.394945576985151L96.00711059570312,3.6493308649934875L97.50722169876099,2.8771767836732067L99.00733280181885,1.5468109995635189L100.50744390487671,0.5573236974655629" fill="none"></path></g></g></g></g></g></g><g transform="translate(59, 178)" clip-path="url(#clip_1)"><clipPath id="clip_1"><rect width="270" height="21"></rect></clipPath><g><g><line x1="0" y1="0" x2="0" y2="5" style="visibility: inherit;" fill="rgb(0, 0, 0)" stroke="rgb(204, 204, 204)" stroke-width="1px"></line><line x1="30.002222061157227" y1="0" x2="30.002222061157227" y2="5" style="visibility: inherit;" fill="rgb(0, 0, 0)" stroke="rgb(204, 204, 204)" stroke-width="1px"></line><line x1="60.00444412231445" y1="0" x2="60.00444412231445" y2="5" style="visibility: inherit;" fill="rgb(0, 0, 0)" stroke="rgb(204, 204, 204)" stroke-width="1px"></line><line x1="90.00666618347168" y1="0" x2="90.00666618347168" y2="5" style="visibility: inherit;" fill="rgb(0, 0, 0)" stroke="rgb(204, 204, 204)" stroke-width="1px"></line><line x1="120.0088882446289" y1="0" x2="120.0088882446289" y2="5" style="visibility: inherit;" fill="rgb(0, 0, 0)" stroke="rgb(204, 204, 204)" stroke-width="1px"></line><line x1="150.01111030578613" y1="0" x2="150.01111030578613" y2="5" style="visibility: inherit;" fill="rgb(0, 0, 0)" stroke="rgb(204, 204, 204)" stroke-width="1px"></line><line x1="180.01333236694336" y1="0" x2="180.01333236694336" y2="5" style="visibility: inherit;" fill="rgb(0, 0, 0)" stroke="rgb(204, 204, 204)" stroke-width="1px"></line><line x1="210.0155544281006" y1="0" x2="210.0155544281006" y2="5" style="visibility: inherit;" fill="rgb(0, 0, 0)" stroke="rgb(204, 204, 204)" stroke-width="1px"></line><line x1="240.0177764892578" y1="0" x2="240.0177764892578" y2="5" style="visibility: inherit;" fill="rgb(0, 0, 0)" stroke="rgb(204, 204, 204)" stroke-width="1px"></line><line x1="270.01999855041504" y1="0" x2="270.01999855041504" y2="5" style="visibility: inherit;" fill="rgb(0, 0, 0)" stroke="rgb(204, 204, 204)" stroke-width="1px"></line></g><g transform="translate(0, 8)"><text style="text-anchor: middle; visibility: hidden; font-family: &quot;Helvetica Neue&quot;, sans-serif; font-size: 12px; font-weight: 200;" x="0" y="0" dx="0em" dy="0.95em" fill="rgb(50, 49, 63)" stroke="none" stroke-width="1px">-20</text><text style="text-anchor: middle; visibility: hidden; font-family: &quot;Helvetica Neue&quot;, sans-serif; font-size: 12px; font-weight: 200;" x="30.002222061157227" y="0" dx="0em" dy="0.95em" fill="rgb(50, 49, 63)" stroke="none" stroke-width="1px">0</text><text style="text-anchor: middle; visibility: hidden; font-family: &quot;Helvetica Neue&quot;, sans-serif; font-size: 12px; font-weight: 200;" x="60.00444412231445" y="0" dx="0em" dy="0.95em" fill="rgb(50, 49, 63)" stroke="none" stroke-width="1px">20</text><text style="text-anchor: middle; visibility: hidden; font-family: &quot;Helvetica Neue&quot;, sans-serif; font-size: 12px; font-weight: 200;" x="90.00666618347168" y="0" dx="0em" dy="0.95em" fill="rgb(50, 49, 63)" stroke="none" stroke-width="1px">40</text><text style="text-anchor: middle; visibility: hidden; font-family: &quot;Helvetica Neue&quot;, sans-serif; font-size: 12px; font-weight: 200;" x="120.0088882446289" y="0" dx="0em" dy="0.95em" fill="rgb(50, 49, 63)" stroke="none" stroke-width="1px">60</text><text style="text-anchor: middle; visibility: hidden; font-family: &quot;Helvetica Neue&quot;, sans-serif; font-size: 12px; font-weight: 200;" x="150.01111030578613" y="0" dx="0em" dy="0.95em" fill="rgb(50, 49, 63)" stroke="none" stroke-width="1px">80</text><text style="text-anchor: middle; visibility: hidden; font-family: &quot;Helvetica Neue&quot;, sans-serif; font-size: 12px; font-weight: 200;" x="180.01333236694336" y="0" dx="0em" dy="0.95em" fill="rgb(50, 49, 63)" stroke="none" stroke-width="1px">100</text><text style="text-anchor: middle; visibility: hidden; font-family: &quot;Helvetica Neue&quot;, sans-serif; font-size: 12px; font-weight: 200;" x="210.0155544281006" y="0" dx="0em" dy="0.95em" fill="rgb(50, 49, 63)" stroke="none" stroke-width="1px">120</text><text style="text-anchor: middle; visibility: hidden; font-family: &quot;Helvetica Neue&quot;, sans-serif; font-size: 12px; font-weight: 200;" x="240.0177764892578" y="0" dx="0em" dy="0.95em" fill="rgb(50, 49, 63)" stroke="none" stroke-width="1px">140</text><text style="text-anchor: middle; visibility: hidden; font-family: &quot;Helvetica Neue&quot;, sans-serif; font-size: 12px; font-weight: 200;" x="270.01999855041504" y="0" dx="0em" dy="0.95em" fill="rgb(50, 49, 63)" stroke="none" stroke-width="1px">160</text></g><line x1="0" y1="0" x2="270.01999855041504" y2="0" fill="rgb(0, 0, 0)" stroke="rgb(204, 204, 204)" stroke-width="1px"></line></g></g></g></g></svg>