<svg viewBox="0 0 330 200" xmlns="http://www.w3.org/2000/svg"><g><g><g><g><g><line x1="59.98000144958496" y1="178.57499980926514" x2="54.98000144958496" y2="178.57499980926514" style="visibility: inherit;" fill="rgb(0, 0, 0)" stroke="rgb(204, 204, 204)" stroke-width="1px"></line><line x1="59.98000144958496" y1="164.8384613623986" x2="54.98000144958496" y2="164.8384613623986" style="visibility: inherit;" fill="rgb(0, 0, 0)" stroke="rgb(204, 204, 204)" stroke-width="1px"></line><line x1="59.98000144958496" y1="151.10192291553204" x2="54.98000144958496" y2="151.10192291553204" style="visibility: inherit;" fill="rgb(0, 0, 0)" stroke="rgb(204, 204, 204)" stroke-width="1px"></line><line x1="59.98000144958496" y1="137.3653844686655" x2="54.98000144958496" y2="137.3653844686655" style="visibility: inherit;" fill="rgb(0, 0, 0)" stroke="rgb(204, 204, 204)" stroke-width="1px"></line><line x1="59.98000144958496" y1="123.62884602179894" x2="54.98000144958496" y2="123.62884602179894" style="visibility: inherit;" fill="rgb(0, 0, 0)" stroke="rgb(204, 204, 204)" stroke-width="1px"></line><line x1="59.98000144958496" y1="109.8923075749324" x2="54.98000144958496" y2="109.8923075749324" style="visibility: inherit;" fill="rgb(0, 0, 0)" stroke="rgb(204, 204, 204)" stroke-width="1px"></line><line x1="59.98000144958496" y1="96.15576912806584" x2="54.98000144958496" y2="96.15576912806584" style="visibility: inherit;" fill="rgb(0, 0, 0)" stroke="rgb(204, 204, 204)" stroke-width="1px"></line><line x1="59.98000144958496" y1="82.4192306811993" x2="54.98000144958496" y2="82.4192306811993" style="visibility: inherit;" fill="rgb(0, 0, 0)" stroke="rgb(204, 204, 204)" stroke-width="1px"></line><line x1="59.98000144958496" y1="68.68269223433276" x2="54.98000144958496" y2="68.68269223433276" style="visibility: inherit;" fill="rgb(0, 0, 0)" stroke="rgb(204, 204, 204)" stroke-width="1px"></line><line x1="59.98000144958496" y1="54.9461537874662" x2="54.98000144958496" y2="54.9461537874662" style="visibility: inherit;" fill="rgb(0, 0, 0)" stroke="rgb(204, 204, 204)" stroke-width="1px"></line><line x1="59.98000144958496" y1="41.20961534059967" x2="54.98000144958496" y2="41.20961534059967" style="visibility: inherit;" fill="rgb(0, 0, 0)" stroke="rgb(204, 204, 204)" stroke-width="1px"></line><line x1="59.98000144958496" y1="27.473076893733094" x2="54.98000144958496" y2="27.473076893733094" style="visibility: inherit;" fill="rgb(0, 0, 0)" stroke="rgb(204, 204, 204)" stroke-width="1px"></line><line x1="59.98000144958496" y1="13.736538446866547" x2="54.98000144958496" y2="13.736538446866547" style="visibility: inherit;" fill="rgb(0, 0, 0)" stroke="rgb(204, 204, 204)" stroke-width="1px"></line><line x1="59.98000144958496" y1="0" x2="54.98000144958496" y2="0" style="visibility: inherit;" fill="rgb(0, 0, 0)" stroke="rgb(204, 204, 204)" stroke-width="1px"></line></g><g transform="translate(49.98000144958496, 0)"><text style="text-anchor: end; visibility: hidden; font-family: &quot;Helvetica Neue&quot;, sans-serif; font-size: 12px; font-weight: 200;" x="0" y="178.57499980926514" dx="0em" dy="0.3em" fill="rgb(50, 49, 63)" stroke="none" stroke-width="1px">-0.05</text><text style="text-anchor: end; visibility: inherit; font-family: &quot;Helvetica Neue&quot;, sans-serif; font-size: 12px; font-weight: 200;" x="0" y="164.8384613623986" dx="0em" dy="0.3em" fill="rgb(50, 49, 63)" stroke="none" stroke-width="1px">0</text><text style="text-anchor: end; visibility: hidden; font-family: &quot;Helvetica Neue&quot;, sans-serif; font-size: 12px; font-weight: 200;" x="0" y="151.10192291553204" dx="0em" dy="0.3em" fill="rgb(50, 49, 63)" stroke="none" stroke-width="1px">0.05</text><text style="text-anchor: end; visibility: inherit; font-family: &quot;Helvetica Neue&quot;, sans-serif; font-size: 12px; font-weight: 200;" x="0" y="137.3653844686655" dx="0em" dy="0.3em" fill="rgb(50, 49, 63)" stroke="none" stroke-width="1px">0.1</text><text style="text-anchor: end; visibility: hidden; font-family: &quot;Helvetica Neue&quot;, sans-serif; font-size: 12px; font-weight: 200;" x="0" y="123.62884602179894" dx="0em" dy="0.3em" fill="rgb(50, 49, 63)" stroke="none" stroke-width="1px">0.15</text><text style="text-anchor: end; visibility: inherit; font-family: &quot;Helvetica Neue&quot;, sans-serif; font-size: 12px; font-weight: 200;" x="0" y="109.8923075749324" dx="0em" dy="0.3em" fill="rgb(50, 49, 63)" stroke="none" stroke-width="1px">0.2</text><text style="text-anchor: end; visibility: hidden; font-family: &quot;Helvetica Neue&quot;, sans-serif; font-size: 12px; font-weight: 200;" x="0" y="96.15576912806584" dx="0em" dy="0.3em" fill="rgb(50, 49, 63)" stroke="none" stroke-width="1px">0.25</text><text style="text-anchor: end; visibility: inherit; font-family: &quot;Helvetica Neue&quot;, sans-serif; font-size: 12px; font-weight: 200;" x="0" y="82.4192306811993" dx="0em" dy="0.3em" fill="rgb(50, 49, 63)" stroke="none" stroke-width="1px">0.3</text><text style="text-anchor: end; visibility: hidden; font-family: &quot;Helvetica Neue&quot;, sans-serif; font-size: 12px; font-weight: 200;" x="0" y="68.68269223433276" dx="0em" dy="0.3em" fill="rgb(50, 49, 63)" stroke="none" stroke-width="1px">0.35</text><text style="text-anchor: end; visibility: inherit; font-family: &quot;Helvetica Neue&quot;, sans-serif; font-size: 12px; font-weight: 200;" x="0" y="54.9461537874662" dx="0em" dy="0.3em" fill="rgb(50, 49, 63)" stroke="none" stroke-width="1px">0.4</text><text style="text-anchor: end; visibility: hidden; font-family: &quot;Helvetica Neue&quot;, sans-serif; font-size: 12px; font-weight: 200;" x="0" y="41.20961534059967" dx="0em" dy="0.3em" fill="rgb(50, 49, 63)" stroke="none" stroke-width="1px">0.45</text><text style="text-anchor: end; visibility: inherit; font-family: &quot;Helvetica Neue&quot;, sans-serif; font-size: 12px; font-weight: 200;" x="0" y="27.473076893733094" dx="0em" dy="0.3em" fill="rgb(50, 49, 63)" stroke="none" stroke-width="1px">0.5</text><text style="text-anchor: end; visibility: hidden; font-family: &quot;Helvetica Neue&quot;, sans-serif; font-size: 12px; font-weight: 200;" x="0" y="13.736538446866547" dx="0em" dy="0.3em" fill="rgb(50, 49, 63)" stroke="none" stroke-width="1px">0.55</text><text style="text-anchor: end; visibility: hidden; font-family: &quot;Helvetica Neue&quot;, sans-serif; font-size: 12px; font-weight: 200;" x="0" y="0" dx="0em" dy="0.3em" fill="rgb(50, 49, 63)" stroke="none" stroke-width="1px">0.6</text></g><line x1="59.98000144958496" y1="0" x2="59.98000144958496" y2="178.57499980926514" fill="rgb(0, 0, 0)" stroke="rgb(204, 204, 204)" stroke-width="1px"></line></g></g><g transform="translate(59, 0)" clip-path="url(#clip_0)"><clipPath id="clip_0"><rect width="270" height="178"></rect></clipPath><g><g><g><line x1="0" y1="0" x2="0" y2="178.57499980926514" fill="rgb(0, 0, 0)" stroke="rgb(60, 60, 60)" stroke-width="1px" opacity="0.25"></line><line x1="30.002222061157227" y1="0" x2="30.002222061157227" y2="178.57499980926514" fill="rgb(0, 0, 0)" stroke="rgb(60, 60, 60)" stroke-width="1px" opacity="0.25"></line><line x1="60.00444412231445" y1="0" x2="60.00444412231445" y2="178.57499980926514" fill="rgb(0, 0, 0)" stroke="rgb(60, 60, 60)" stroke-width="1px" opacity="0.25"></line><line x1="90.00666618347168" y1="0" x2="90.00666618347168" y2="178.57499980926514" fill="rgb(0, 0, 0)" stroke="rgb(60, 60, 60)" stroke-width="1px" opacity="0.25"></line><line x1="120.0088882446289" y1="0" x2="120.0088882446289" y2="178.57499980926514" fill="rgb(0, 0, 0)" stroke="rgb(60, 60, 60)" stroke-width="1px" opacity="0.25"></line><line x1="150.01111030578613" y1="0" x2="150.01111030578613" y2="178.57499980926514" fill="rgb(0, 0, 0)" stroke="rgb(60, 60, 60)" stroke-width="1px" opacity="0.25"></line><line x1="180.01333236694336" y1="0" x2="180.01333236694336" y2="178.57499980926514" fill="rgb(0, 0, 0)" stroke="rgb(60, 60, 60)" stroke-width="1px" opacity="0.25"></line><line x1="210.0155544281006" y1="0" x2="210.0155544281006" y2="178.57499980926514" fill="rgb(0, 0, 0)" stroke="rgb(60, 60, 60)" stroke-width="1px" opacity="0.25"></line><line x1="240.0177764892578" y1="0" x2="240.0177764892578" y2="178.57499980926514" fill="rgb(0, 0, 0)" stroke="rgb(60, 60, 60)" stroke-width="1px" opacity="0.25"></line><line x1="270.01999855041504" y1="0" x2="270.01999855041504" y2="178.57499980926514" fill="rgb(0, 0, 0)" stroke="rgb(60, 60, 60)" stroke-width="1px" opacity="0.25"></line></g><g><line x1="0" y1="178.57499980926514" x2="270.01999855041504" y2="178.57499980926514" fill="rgb(0, 0, 0)" stroke="rgb(60, 60, 60)" stroke-width="1px" opacity="0.25"></line><line x1="0" y1="164.8384613623986" x2="270.01999855041504" y2="164.8384613623986" fill="rgb(0, 0, 0)" stroke="rgb(60, 60, 60)" stroke-width="1px" opacity="0.25"></line><line x1="0" y1="151.10192291553204" x2="270.01999855041504" y2="151.10192291553204" fill="rgb(0, 0, 0)" stroke="rgb(60, 60, 60)" stroke-width="1px" opacity="0.25"></line><line x1="0" y1="137.3653844686655" x2="270.01999855041504" y2="137.3653844686655" fill="rgb(0, 0, 0)" stroke="rgb(60, 60, 60)" stroke-width="1px" opacity="0.25"></line><line x1="0" y1="123.62884602179894" x2="270.01999855041504" y2="123.62884602179894" fill="rgb(0, 0, 0)" stroke="rgb(60, 60, 60)" stroke-width="1px" opacity="0.25"></line><line x1="0" y1="109.8923075749324" x2="270.01999855041504" y2="109.8923075749324" fill="rgb(0, 0, 0)" stroke="rgb(60, 60, 60)" stroke-width="1px" opacity="0.25"></line><line x1="0" y1="96.15576912806584" x2="270.01999855041504" y2="96.15576912806584" fill="rgb(0, 0, 0)" stroke="rgb(60, 60, 60)" stroke-width="1px" opacity="0.25"></line><line x1="0" y1="82.4192306811993" x2="270.01999855041504" y2="82.4192306811993" fill="rgb(0, 0, 0)" stroke="rgb(60, 60, 60)" stroke-width="1px" opacity="0.25"></line><line x1="0" y1="68.68269223433276" x2="270.01999855041504" y2="68.68269223433276" fill="rgb(0, 0, 0)" stroke="rgb(60, 60, 60)" stroke-width="1px" opacity="0.25"></line><line x1="0" y1="54.9461537874662" x2="270.01999855041504" y2="54.9461537874662" fill="rgb(0, 0, 0)" stroke="rgb(60, 60, 60)" stroke-width="1px" opacity="0.25"></line><line x1="0" y1="41.20961534059967" x2="270.01999855041504" y2="41.20961534059967" fill="rgb(0, 0, 0)" stroke="rgb(60, 60, 60)" stroke-width="1px" opacity="0.25"></line><line x1="0" y1="27.473076893733094" x2="270.01999855041504" y2="27.473076893733094" fill="rgb(0, 0, 0)" stroke="rgb(60, 60, 60)" stroke-width="1px" opacity="0.25"></line><line x1="0" y1="13.736538446866547" x2="270.01999855041504" y2="13.736538446866547" fill="rgb(0, 0, 0)" stroke="rgb(60, 60, 60)" stroke-width="1px" opacity="0.25"></line><line x1="0" y1="0" x2="270.01999855041504" y2="0" fill="rgb(0, 0, 0)" stroke="rgb(60, 60, 60)" stroke-width="1px" opacity="0.25"></line></g></g></g><g><g><line x1="0" y1="164.8384613623986" x2="270.01999855041504" y2="164.8384613623986" fill="rgb(0, 0, 0)" stroke="rgb(153, 153, 153)" stroke-width="1.5px"></line></g></g><g><g><line x1="30.002222061157227" y1="0" x2="30.002222061157227" y2="178.57499980926514" fill="rgb(0, 0, 0)" stroke="rgb(153, 153, 153)" stroke-width="1.5px"></line></g></g><g><g><g><g><g><path style="fill: none;" stroke="rgb(0, 119, 187)" stroke-width="2px" d="M30.002222061157227,152.8974799733057L31.502333164215088,149.87330251696574L33.00244426727295,149.1066408631999L34.50255537033081,146.31006682092772L36.00266647338867,142.65753085558077L37.50277757644653,140.22468546655963L39.00288867950439,139.69324989637602L40.502999782562256,136.61353175405196L42.00311088562012,134.39848920400857L43.50322198867798,132.600536040721L45.00333309173584,131.39500185063633L46.5034441947937,129.83118786504696L48.00355529785156,128.7563341502067L49.503666400909424,127.31230906508023L51.003777503967285,126.25488268865186L52.50388860702515,125.38149752097272L54.00399971008301,123.90262185282992L55.50411081314087,122.13298350892833L57.00422191619873,120.55065323213927L58.50433301925659,119.22968390583904L60.00444412231445,118.2310650737581L61.504555225372314,117.08869628607567L63.004666328430176,116.60190573328717L64.50477743148804,116.95583585835197L66.0048885345459,114.71356744171044L67.50499963760376,113.37626382359355L69.00511074066162,112.58019839765403L70.50522184371948,111.61751500756972L72.00533294677734,110.60582464822798L73.5054440498352,109.98182195037212L75.00555515289307,109.14110946013375L76.50566625595093,108.4572102651427L78.00577735900877,108.76757818488898L79.50588846206665,107.59035881419022L81.00599956512451,106.6091632267137L82.50611066818237,105.79567455616976L84.00622177124023,105.4395665255294L85.5063328742981,104.5814307906866L87.00644397735596,103.95742809283074L88.50655508041382,103.28115156735414L90.00666618347168,102.79109825000977L91.50677728652954,102.3740088632539L93.0068883895874,101.84257124616656L94.50699949264526,101.1760993895874L96.00711059570312,100.7437605699952L97.50722169876099,100.1491636912168L99.00733280181885,99.38141103775946L100.50744390487671,99.26924480681099" fill="none"></path></g><g><path style="fill: none;" stroke="rgb(0, 153, 136)" stroke-width="2px" d="M30.002222061157227,152.88048350813034L31.502333164215088,150.80637028033962L33.00244426727295,146.29445099232254L34.50255537033081,142.3665778177745L36.00266647338867,140.76526250883012L37.50277757644653,141.04872797276857L39.00288867950439,139.24845362064394L40.502999782562256,137.9423714252187L42.00311088562012,135.67143612174857L43.50322198867798,133.86260366510194L45.00333309173584,132.01633129221244L46.5034441947937,130.77550029409687L48.00355529785156,129.53145975092264L49.503666400909424,128.43289470319965L51.003777503967285,127.07332896004544L52.50388860702515,126.0806666178375L54.00399971008301,124.96177581601182L55.50411081314087,123.30697695933847L57.00422191619873,122.02871013878749L58.50433301925659,120.95474887397631L60.00444412231445,120.0883068037711L61.504555225372314,119.282833808259L63.004666328430176,118.12543665334375L64.50477743148804,117.4119596993614L66.0048885345459,116.67494744621766L67.50499963760376,115.88659475355698L69.00511074066162,115.10572554095666L70.50522184371948,114.294906032885L72.00533294677734,112.955661950026L73.5054440498352,112.49356115010622L75.00555515289307,111.33081748263145L76.50566625595093,110.89545743312428L78.00577735900877,110.65156885292956L79.50588846206665,109.63858075661892L81.00599956512451,108.718653091781L82.50611066818237,107.67036409363203L84.00622177124023,106.74081188742545L85.5063328742981,105.7631205991457L87.00644397735596,104.67525267034925L88.50655508041382,103.91685027315991L90.00666618347168,102.92418383714448L91.50677728652954,101.88338241286334L93.0068883895874,100.81156220936046" fill="none"></path></g><g><path style="fill: none;" stroke="rgb(238, 51, 119)" stroke-width="2px" d="M30.002222061157227,154.87679699525523L31.502333164215088,152.37629017977477L33.00244426727295,151.97688808820533L34.50255537033081,149.55286280738443L36.00266647338867,146.94825660858072L37.50277757644653,144.88114174466483L39.00288867950439,142.0555896861961L40.502999782562256,140.0585833221564L42.00311088562012,138.90074403603413L43.50322198867798,137.93198338875638L45.00333309173584,136.82300778862995L46.5034441947937,134.73889748299055L48.00355529785156,133.2453905469398L49.503666400909424,131.93246555232372L51.003777503967285,130.86385489387956L52.50388860702515,129.91421437440374L54.00399971008301,128.97519728531992L55.50411081314087,127.31810589646179L57.00422191619873,126.1092782382652L58.50433301925659,124.62639473260649L60.00444412231445,123.27310479630816L61.504555225372314,121.57352377968934L63.004666328430176,120.52191060987242L64.50477743148804,119.80808568225487L66.0048885345459,118.5801399431601L67.50499963760376,117.77708638786444L69.00511074066162,116.7212238458907L70.50522184371948,115.56763393192523L72.00533294677734,114.87717645736268L73.5054440498352,113.85955417099278L75.00555515289307,112.69534082663526" fill="none"></path></g><g><path style="fill: none;" stroke="rgb(51, 187, 238)" stroke-width="2px" d="M30.002222061157227,157.65449449127016L31.502333164215088,152.9177576251706L33.00244426727295,153.23828842196818L34.50255537033081,152.6124895660836L36.00266647338867,152.48529496790232L37.50277757644653,152.53617280717484L39.00288867950439,150.32298168156106L40.502999782562256,148.7559407522312L42.00311088562012,147.84522517765905L43.50322198867798,147.20925116330073L45.00333309173584,146.12046212782292L46.5034441947937,144.68570542281495L48.00355529785156,143.27638559053952L49.503666400909424,141.72969600160906L51.003777503967285,139.9896702140623L52.50388860702515,139.13492005799952L54.00399971008301,138.5396477009881L55.50411081314087,138.234380665353L57.00422191619873,138.0257807055742L58.50433301925659,137.420333190089L60.00444412231445,137.05401315670764L61.504555225372314,136.55032131976748L63.004666328430176,135.6446933244322L64.50477743148804,135.51749872625092L66.0048885345459,134.72380156793446L67.50499963760376,133.73168165521662L69.00511074066162,132.68868390322632L70.50522184371948,131.8848115864361L72.00533294677734,130.801111153647L73.5054440498352,130.19566363816182L75.00555515289307,129.29003564282652L76.50566625595093,128.34879561628497L78.00577735900877,127.18877842458713L79.50588846206665,126.46122286670567L81.00599956512451,125.2503278357353L82.50611066818237,124.24294416185501L84.00622177124023,122.98625989430086L85.5063328742981,122.72678209524953L87.00644397735596,121.50570985890167L88.50655508041382,120.80359322065647L90.00666618347168,119.9488430645937L91.50677728652954,118.89567015412963L93.0068883895874,118.26987436860067L94.50699949264526,117.66951340890049L96.00711059570312,117.03354041799403L97.50722169876099,116.55019685109767L99.00733280181885,115.44105749867234L100.50744390487671,114.95771802558343L102.00755500793457,114.0673558383144L103.50766611099243,113.57892366872926L105.0077772140503,112.73943932073274L106.50788831710815,112.24592264226636L108.00799942016602,111.40643829426985L109.50811052322388,110.42958214271454L111.00822162628174,109.36623202687296L112.5083327293396,108.55727110739399L114.00844383239746,107.43287004070987L115.50855493545532,107.39216531300738L117.00866603851318,105.40792548757177L118.50877714157104,104.78721421092409L120.0088882446289,103.5661460683837L121.50899934768677,103.2201743050461L123.00911045074463,101.89226188127193L124.5092215538025,100.58469568063781L126.00933265686035,99.0837953282911L127.50944375991821,98.56484382399593L129.00955486297607,96.57551539587158L130.50966596603394,95.29339220868118L132.0097770690918,94.42846075343347L133.50988817214966,93.41599666447935L135.00999927520752,92.02194059336642L136.51011037826538,90.76016362931607L138.01022148132324,89.97155712059207L139.5103325843811,88.4248675316616L141.01044368743896,87.39204084433757L142.51055479049683,85.74359557686206L144.0106658935547,84.42077175577664L145.51077699661255,83.44391560422133L147.0108880996704,82.93513721149617L148.51099920272827,81.40879384570576L150.01111030578613,81.13405842620313L151.511221408844,79.48052046223141L153.01133251190186,78.16278115002726L154.51144361495972,76.23450776655291L156.01155471801755,75.27291332925637L157.51166582107544,74.63185582946865L159.0117769241333,73.45657282970456L160.51188802719116,71.726726294439L162.01199913024902,71.08566060703635L163.51211023330688,69.76283678595092L165.01222133636475,69.096332178912L166.5123324394226,68.40948134873302L168.01244354248047,67.15788159006016L169.51255464553833,66.08435426884108L171.0126657485962,65.97751408141478L172.51277685165405,64.37486214433052L174.0128879547119,63.34203545700649L175.51299905776978,61.703767394908496L177.01311016082764,61.006739359352025L178.5132212638855,60.94059980582075L180.01333236694336,60.73708844873069L181.51344347000125,59.3175934579815L183.01355457305908,58.0710782081899L184.51366567611694,56.961942949572034L186.0137767791748,55.608587512354134L187.51388788223267,54.97769903032895L189.01399898529053,53.79224701280231L190.5141100883484,53.46662556641223L192.01422119140625,52.70345797732449L193.5143322944641,51.63502335260165L195.01444339752197,51.25852406693906L196.51455450057983,50.536057111746345L198.0146656036377,49.116562120997145L199.51477670669556,47.85987785344301L201.01488780975342,48.3533945319094L202.51499891281128,46.97968468393651L204.01511001586914,46.10967690742248L205.515221118927,45.71282321100489L207.01533222198486,44.52227849698204L208.51544332504272,43.88630550607559L210.0155544281006,42.705937997430226L211.51566553115845,42.98068160454778L213.0157766342163,41.96820932797874L214.51588773727417,41.43399201561732L216.01599884033203,39.86186350705057L217.5161099433899,39.65835214996051L219.01622104644775,39.052902587571594L220.51633214950562,38.98676303404031L222.01644325256348,37.5621753467949L223.5165543556213,36.63619703451212L225.0166654586792,36.458124597058315L226.51677656173706,35.6796952937118L228.01688766479492,34.997928972414115L229.51699876785278,34.22967687444509L231.01710987091064,33.45632389236491L232.5172209739685,33.70054407096495L234.01733207702637,32.652455669382135L235.51744318008423,31.848587446399392L237.0175542831421,30.953132562634124L238.51766538619995,30.464700393048986L240.0177764892578,29.21819333087234L241.51788759231567,29.309771804039883L243.01799869537354,28.21081375079953L244.5181097984314,28.734853857783435L246.01822090148926,28.04291033110826L247.51833200454712,27.880107795528176L249.018443107605,26.66412416186904L250.51855421066284,26.10446792987136L252.0186653137207,25.147958001456118L253.51877641677856,25.560073412132454" fill="none"></path></g></g></g></g></g></g><g transform="translate(59, 178)" clip-path="url(#clip_1)"><clipPath id="clip_1"><rect width="270" height="21"></rect></clipPath><g><g><line x1="0" y1="0" x2="0" y2="5" style="visibility: inherit;" fill="rgb(0, 0, 0)" stroke="rgb(204, 204, 204)" stroke-width="1px"></line><line x1="30.002222061157227" y1="0" x2="30.002222061157227" y2="5" style="visibility: inherit;" fill="rgb(0, 0, 0)" stroke="rgb(204, 204, 204)" stroke-width="1px"></line><line x1="60.00444412231445" y1="0" x2="60.00444412231445" y2="5" style="visibility: inherit;" fill="rgb(0, 0, 0)" stroke="rgb(204, 204, 204)" stroke-width="1px"></line><line x1="90.00666618347168" y1="0" x2="90.00666618347168" y2="5" style="visibility: inherit;" fill="rgb(0, 0, 0)" stroke="rgb(204, 204, 204)" stroke-width="1px"></line><line x1="120.0088882446289" y1="0" x2="120.0088882446289" y2="5" style="visibility: inherit;" fill="rgb(0, 0, 0)" stroke="rgb(204, 204, 204)" stroke-width="1px"></line><line x1="150.01111030578613" y1="0" x2="150.01111030578613" y2="5" style="visibility: inherit;" fill="rgb(0, 0, 0)" stroke="rgb(204, 204, 204)" stroke-width="1px"></line><line x1="180.01333236694336" y1="0" x2="180.01333236694336" y2="5" style="visibility: inherit;" fill="rgb(0, 0, 0)" stroke="rgb(204, 204, 204)" stroke-width="1px"></line><line x1="210.0155544281006" y1="0" x2="210.0155544281006" y2="5" style="visibility: inherit;" fill="rgb(0, 0, 0)" stroke="rgb(204, 204, 204)" stroke-width="1px"></line><line x1="240.0177764892578" y1="0" x2="240.0177764892578" y2="5" style="visibility: inherit;" fill="rgb(0, 0, 0)" stroke="rgb(204, 204, 204)" stroke-width="1px"></line><line x1="270.01999855041504" y1="0" x2="270.01999855041504" y2="5" style="visibility: inherit;" fill="rgb(0, 0, 0)" stroke="rgb(204, 204, 204)" stroke-width="1px"></line></g><g transform="translate(0, 8)"><text style="text-anchor: middle; visibility: hidden; font-family: &quot;Helvetica Neue&quot;, sans-serif; font-size: 12px; font-weight: 200;" x="0" y="0" dx="0em" dy="0.95em" fill="rgb(50, 49, 63)" stroke="none" stroke-width="1px">-20</text><text style="text-anchor: middle; visibility: hidden; font-family: &quot;Helvetica Neue&quot;, sans-serif; font-size: 12px; font-weight: 200;" x="30.002222061157227" y="0" dx="0em" dy="0.95em" fill="rgb(50, 49, 63)" stroke="none" stroke-width="1px">0</text><text style="text-anchor: middle; visibility: hidden; font-family: &quot;Helvetica Neue&quot;, sans-serif; font-size: 12px; font-weight: 200;" x="60.00444412231445" y="0" dx="0em" dy="0.95em" fill="rgb(50, 49, 63)" stroke="none" stroke-width="1px">20</text><text style="text-anchor: middle; visibility: hidden; font-family: &quot;Helvetica Neue&quot;, sans-serif; font-size: 12px; font-weight: 200;" x="90.00666618347168" y="0" dx="0em" dy="0.95em" fill="rgb(50, 49, 63)" stroke="none" stroke-width="1px">40</text><text style="text-anchor: middle; visibility: hidden; font-family: &quot;Helvetica Neue&quot;, sans-serif; font-size: 12px; font-weight: 200;" x="120.0088882446289" y="0" dx="0em" dy="0.95em" fill="rgb(50, 49, 63)" stroke="none" stroke-width="1px">60</text><text style="text-anchor: middle; visibility: hidden; font-family: &quot;Helvetica Neue&quot;, sans-serif; font-size: 12px; font-weight: 200;" x="150.01111030578613" y="0" dx="0em" dy="0.95em" fill="rgb(50, 49, 63)" stroke="none" stroke-width="1px">80</text><text style="text-anchor: middle; visibility: hidden; font-family: &quot;Helvetica Neue&quot;, sans-serif; font-size: 12px; font-weight: 200;" x="180.01333236694336" y="0" dx="0em" dy="0.95em" fill="rgb(50, 49, 63)" stroke="none" stroke-width="1px">100</text><text style="text-anchor: middle; visibility: hidden; font-family: &quot;Helvetica Neue&quot;, sans-serif; font-size: 12px; font-weight: 200;" x="210.0155544281006" y="0" dx="0em" dy="0.95em" fill="rgb(50, 49, 63)" stroke="none" stroke-width="1px">120</text><text style="text-anchor: middle; visibility: hidden; font-family: &quot;Helvetica Neue&quot;, sans-serif; font-size: 12px; font-weight: 200;" x="240.0177764892578" y="0" dx="0em" dy="0.95em" fill="rgb(50, 49, 63)" stroke="none" stroke-width="1px">140</text><text style="text-anchor: middle; visibility: hidden; font-family: &quot;Helvetica Neue&quot;, sans-serif; font-size: 12px; font-weight: 200;" x="270.01999855041504" y="0" dx="0em" dy="0.95em" fill="rgb(50, 49, 63)" stroke="none" stroke-width="1px">160</text></g><line x1="0" y1="0" x2="270.01999855041504" y2="0" fill="rgb(0, 0, 0)" stroke="rgb(204, 204, 204)" stroke-width="1px"></line></g></g></g></g></svg>