<svg viewBox="0 0 330 200" xmlns="http://www.w3.org/2000/svg"><g><g><g><g><g><line x1="59.98000144958496" y1="178.57499980926514" x2="54.98000144958496" y2="178.57499980926514" style="visibility: inherit;" fill="rgb(0, 0, 0)" stroke="rgb(204, 204, 204)" stroke-width="1px"></line><line x1="59.98000144958496" y1="160.71749982833862" x2="54.98000144958496" y2="160.71749982833862" style="visibility: inherit;" fill="rgb(0, 0, 0)" stroke="rgb(204, 204, 204)" stroke-width="1px"></line><line x1="59.98000144958496" y1="142.8599998474121" x2="54.98000144958496" y2="142.8599998474121" style="visibility: inherit;" fill="rgb(0, 0, 0)" stroke="rgb(204, 204, 204)" stroke-width="1px"></line><line x1="59.98000144958496" y1="125.00249986648558" x2="54.98000144958496" y2="125.00249986648558" style="visibility: inherit;" fill="rgb(0, 0, 0)" stroke="rgb(204, 204, 204)" stroke-width="1px"></line><line x1="59.98000144958496" y1="107.14499988555907" x2="54.98000144958496" y2="107.14499988555907" style="visibility: inherit;" fill="rgb(0, 0, 0)" stroke="rgb(204, 204, 204)" stroke-width="1px"></line><line x1="59.98000144958496" y1="89.28749990463257" x2="54.98000144958496" y2="89.28749990463257" style="visibility: inherit;" fill="rgb(0, 0, 0)" stroke="rgb(204, 204, 204)" stroke-width="1px"></line><line x1="59.98000144958496" y1="71.42999992370606" x2="54.98000144958496" y2="71.42999992370606" style="visibility: inherit;" fill="rgb(0, 0, 0)" stroke="rgb(204, 204, 204)" stroke-width="1px"></line><line x1="59.98000144958496" y1="53.572499942779544" x2="54.98000144958496" y2="53.572499942779544" style="visibility: inherit;" fill="rgb(0, 0, 0)" stroke="rgb(204, 204, 204)" stroke-width="1px"></line><line x1="59.98000144958496" y1="35.71499996185304" x2="54.98000144958496" y2="35.71499996185304" style="visibility: inherit;" fill="rgb(0, 0, 0)" stroke="rgb(204, 204, 204)" stroke-width="1px"></line><line x1="59.98000144958496" y1="17.85749998092652" x2="54.98000144958496" y2="17.85749998092652" style="visibility: inherit;" fill="rgb(0, 0, 0)" stroke="rgb(204, 204, 204)" stroke-width="1px"></line><line x1="59.98000144958496" y1="0" x2="54.98000144958496" y2="0" style="visibility: inherit;" fill="rgb(0, 0, 0)" stroke="rgb(204, 204, 204)" stroke-width="1px"></line></g><g transform="translate(49.98000144958496, 0)"><text style="text-anchor: end; visibility: hidden; font-family: &quot;Helvetica Neue&quot;, sans-serif; font-size: 12px; font-weight: 200;" x="0" y="178.57499980926514" dx="0em" dy="0.3em" fill="rgb(50, 49, 63)" stroke="none" stroke-width="1px">-0.05</text><text style="text-anchor: end; visibility: inherit; font-family: &quot;Helvetica Neue&quot;, sans-serif; font-size: 12px; font-weight: 200;" x="0" y="160.71749982833862" dx="0em" dy="0.3em" fill="rgb(50, 49, 63)" stroke="none" stroke-width="1px">0</text><text style="text-anchor: end; visibility: hidden; font-family: &quot;Helvetica Neue&quot;, sans-serif; font-size: 12px; font-weight: 200;" x="0" y="142.8599998474121" dx="0em" dy="0.3em" fill="rgb(50, 49, 63)" stroke="none" stroke-width="1px">0.05</text><text style="text-anchor: end; visibility: inherit; font-family: &quot;Helvetica Neue&quot;, sans-serif; font-size: 12px; font-weight: 200;" x="0" y="125.00249986648558" dx="0em" dy="0.3em" fill="rgb(50, 49, 63)" stroke="none" stroke-width="1px">0.1</text><text style="text-anchor: end; visibility: hidden; font-family: &quot;Helvetica Neue&quot;, sans-serif; font-size: 12px; font-weight: 200;" x="0" y="107.14499988555907" dx="0em" dy="0.3em" fill="rgb(50, 49, 63)" stroke="none" stroke-width="1px">0.15</text><text style="text-anchor: end; visibility: inherit; font-family: &quot;Helvetica Neue&quot;, sans-serif; font-size: 12px; font-weight: 200;" x="0" y="89.28749990463257" dx="0em" dy="0.3em" fill="rgb(50, 49, 63)" stroke="none" stroke-width="1px">0.2</text><text style="text-anchor: end; visibility: hidden; font-family: &quot;Helvetica Neue&quot;, sans-serif; font-size: 12px; font-weight: 200;" x="0" y="71.42999992370606" dx="0em" dy="0.3em" fill="rgb(50, 49, 63)" stroke="none" stroke-width="1px">0.25</text><text style="text-anchor: end; visibility: inherit; font-family: &quot;Helvetica Neue&quot;, sans-serif; font-size: 12px; font-weight: 200;" x="0" y="53.572499942779544" dx="0em" dy="0.3em" fill="rgb(50, 49, 63)" stroke="none" stroke-width="1px">0.3</text><text style="text-anchor: end; visibility: hidden; font-family: &quot;Helvetica Neue&quot;, sans-serif; font-size: 12px; font-weight: 200;" x="0" y="35.71499996185304" dx="0em" dy="0.3em" fill="rgb(50, 49, 63)" stroke="none" stroke-width="1px">0.35</text><text style="text-anchor: end; visibility: inherit; font-family: &quot;Helvetica Neue&quot;, sans-serif; font-size: 12px; font-weight: 200;" x="0" y="17.85749998092652" dx="0em" dy="0.3em" fill="rgb(50, 49, 63)" stroke="none" stroke-width="1px">0.4</text><text style="text-anchor: end; visibility: hidden; font-family: &quot;Helvetica Neue&quot;, sans-serif; font-size: 12px; font-weight: 200;" x="0" y="0" dx="0em" dy="0.3em" fill="rgb(50, 49, 63)" stroke="none" stroke-width="1px">0.45</text></g><line x1="59.98000144958496" y1="0" x2="59.98000144958496" y2="178.57499980926514" fill="rgb(0, 0, 0)" stroke="rgb(204, 204, 204)" stroke-width="1px"></line></g></g><g transform="translate(59, 0)" clip-path="url(#clip_0)"><clipPath id="clip_0"><rect width="270" height="178"></rect></clipPath><g><g><g><line x1="0" y1="0" x2="0" y2="178.57499980926514" fill="rgb(0, 0, 0)" stroke="rgb(60, 60, 60)" stroke-width="1px" opacity="0.25"></line><line x1="20.770769119262695" y1="0" x2="20.770769119262695" y2="178.57499980926514" fill="rgb(0, 0, 0)" stroke="rgb(60, 60, 60)" stroke-width="1px" opacity="0.25"></line><line x1="41.54153823852539" y1="0" x2="41.54153823852539" y2="178.57499980926514" fill="rgb(0, 0, 0)" stroke="rgb(60, 60, 60)" stroke-width="1px" opacity="0.25"></line><line x1="62.312307357788086" y1="0" x2="62.312307357788086" y2="178.57499980926514" fill="rgb(0, 0, 0)" stroke="rgb(60, 60, 60)" stroke-width="1px" opacity="0.25"></line><line x1="83.08307647705078" y1="0" x2="83.08307647705078" y2="178.57499980926514" fill="rgb(0, 0, 0)" stroke="rgb(60, 60, 60)" stroke-width="1px" opacity="0.25"></line><line x1="103.85384559631348" y1="0" x2="103.85384559631348" y2="178.57499980926514" fill="rgb(0, 0, 0)" stroke="rgb(60, 60, 60)" stroke-width="1px" opacity="0.25"></line><line x1="124.62461471557617" y1="0" x2="124.62461471557617" y2="178.57499980926514" fill="rgb(0, 0, 0)" stroke="rgb(60, 60, 60)" stroke-width="1px" opacity="0.25"></line><line x1="145.39538383483887" y1="0" x2="145.39538383483887" y2="178.57499980926514" fill="rgb(0, 0, 0)" stroke="rgb(60, 60, 60)" stroke-width="1px" opacity="0.25"></line><line x1="166.16615295410156" y1="0" x2="166.16615295410156" y2="178.57499980926514" fill="rgb(0, 0, 0)" stroke="rgb(60, 60, 60)" stroke-width="1px" opacity="0.25"></line><line x1="186.93692207336426" y1="0" x2="186.93692207336426" y2="178.57499980926514" fill="rgb(0, 0, 0)" stroke="rgb(60, 60, 60)" stroke-width="1px" opacity="0.25"></line><line x1="207.70769119262695" y1="0" x2="207.70769119262695" y2="178.57499980926514" fill="rgb(0, 0, 0)" stroke="rgb(60, 60, 60)" stroke-width="1px" opacity="0.25"></line><line x1="228.47846031188965" y1="0" x2="228.47846031188965" y2="178.57499980926514" fill="rgb(0, 0, 0)" stroke="rgb(60, 60, 60)" stroke-width="1px" opacity="0.25"></line><line x1="249.24922943115234" y1="0" x2="249.24922943115234" y2="178.57499980926514" fill="rgb(0, 0, 0)" stroke="rgb(60, 60, 60)" stroke-width="1px" opacity="0.25"></line><line x1="270.01999855041504" y1="0" x2="270.01999855041504" y2="178.57499980926514" fill="rgb(0, 0, 0)" stroke="rgb(60, 60, 60)" stroke-width="1px" opacity="0.25"></line></g><g><line x1="0" y1="178.57499980926514" x2="270.01999855041504" y2="178.57499980926514" fill="rgb(0, 0, 0)" stroke="rgb(60, 60, 60)" stroke-width="1px" opacity="0.25"></line><line x1="0" y1="160.71749982833862" x2="270.01999855041504" y2="160.71749982833862" fill="rgb(0, 0, 0)" stroke="rgb(60, 60, 60)" stroke-width="1px" opacity="0.25"></line><line x1="0" y1="142.8599998474121" x2="270.01999855041504" y2="142.8599998474121" fill="rgb(0, 0, 0)" stroke="rgb(60, 60, 60)" stroke-width="1px" opacity="0.25"></line><line x1="0" y1="125.00249986648558" x2="270.01999855041504" y2="125.00249986648558" fill="rgb(0, 0, 0)" stroke="rgb(60, 60, 60)" stroke-width="1px" opacity="0.25"></line><line x1="0" y1="107.14499988555907" x2="270.01999855041504" y2="107.14499988555907" fill="rgb(0, 0, 0)" stroke="rgb(60, 60, 60)" stroke-width="1px" opacity="0.25"></line><line x1="0" y1="89.28749990463257" x2="270.01999855041504" y2="89.28749990463257" fill="rgb(0, 0, 0)" stroke="rgb(60, 60, 60)" stroke-width="1px" opacity="0.25"></line><line x1="0" y1="71.42999992370606" x2="270.01999855041504" y2="71.42999992370606" fill="rgb(0, 0, 0)" stroke="rgb(60, 60, 60)" stroke-width="1px" opacity="0.25"></line><line x1="0" y1="53.572499942779544" x2="270.01999855041504" y2="53.572499942779544" fill="rgb(0, 0, 0)" stroke="rgb(60, 60, 60)" stroke-width="1px" opacity="0.25"></line><line x1="0" y1="35.71499996185304" x2="270.01999855041504" y2="35.71499996185304" fill="rgb(0, 0, 0)" stroke="rgb(60, 60, 60)" stroke-width="1px" opacity="0.25"></line><line x1="0" y1="17.85749998092652" x2="270.01999855041504" y2="17.85749998092652" fill="rgb(0, 0, 0)" stroke="rgb(60, 60, 60)" stroke-width="1px" opacity="0.25"></line><line x1="0" y1="0" x2="270.01999855041504" y2="0" fill="rgb(0, 0, 0)" stroke="rgb(60, 60, 60)" stroke-width="1px" opacity="0.25"></line></g></g></g><g><g><line x1="0" y1="160.71749982833862" x2="270.01999855041504" y2="160.71749982833862" fill="rgb(0, 0, 0)" stroke="rgb(153, 153, 153)" stroke-width="1.5px"></line></g></g><g><g><line x1="20.770769119262695" y1="0" x2="20.770769119262695" y2="178.57499980926514" fill="rgb(0, 0, 0)" stroke="rgb(153, 153, 153)" stroke-width="1.5px"></line></g></g><g><g><g><g><g><path style="fill: none;" stroke="rgb(0, 119, 187)" stroke-width="2px" d="M20.770769119262695,145.1942240225179L22.847846031188965,141.26279332927592L24.924922943115234,140.26613317938038L27.001999855041504,136.6305869244265L29.079076766967773,131.88229016947548L31.156153678894043,128.71959116374796L33.23323059082031,128.02872492250927L35.31030750274658,124.02509133748799L37.38738441467285,121.14553602243157L39.46446132659912,118.80819691015779L41.54153823852539,117.24100246304769L43.61861515045166,115.2080442817815L45.69569206237793,113.81073445248917L47.7727689743042,111.93350184182476L49.84984588623047,110.5588475524679L51.92692279815674,109.423446834485L54.00399971008301,107.50090846589937L56.08107662200928,105.20037861882729L58.15815353393555,103.14334925900151L60.235230445861816,101.42608913481122L62.312307357788086,100.127884653106L64.38938426971436,98.64280522911885L66.46646118164062,98.00997751049378L68.5435380935669,98.47008667307803L70.62061500549316,95.55513773144402L72.69769191741943,93.81664302789208L74.7747688293457,92.7817579741707L76.85184574127197,91.5302695670611L78.92892265319824,90.21507209991684L81.00599956512451,89.40386859270423L83.08307647705078,88.31094235539435L85.16015338897705,87.42187340190598L87.23723030090332,87.82535169757612L89.31430721282959,86.29496651566775L91.39138412475586,85.01941225194828L93.46846103668213,83.96187698024114L95.5455379486084,83.49893654040868L97.62261486053467,82.38336008511304L99.69969177246094,81.57215657790043L101.7767686843872,80.69299709478084L103.85384559631348,80.05592778223316L105.93092250823975,79.51371157945054L108.00799942016602,78.82284267723698L110.08507633209229,77.95642926368409L112.16215324401855,77.39438879821422L114.23923015594482,76.62141285580229L116.3163070678711,75.62333440630776L118.39338397979736,75.47751830607474" fill="none"></path></g><g><path style="fill: none;" stroke="rgb(204, 51, 17)" stroke-width="2px" d="M20.770769119262695,145.69528558815674L22.847846031188965,141.35408206321958L24.924922943115234,141.14654598165777L27.001999855041504,139.656833800444L29.079076766967773,136.95033232426042L31.156153678894043,132.66883176171018L33.23323059082031,129.09806960063332L35.31030750274658,126.01345690209473L37.38738441467285,123.5230212623782L39.46446132659912,121.22306352490045L41.54153823852539,118.69566960539021L43.61861515045166,117.05243780173137L45.69569206237793,116.01191414228725L47.7727689743042,114.93159028190178L49.84984588623047,112.92445420065131L51.92692279815674,111.55414794421135L54.00399971008301,109.77445602791794L56.08107662200928,108.18523669191357L58.15815353393555,106.65572430975841L60.235230445861816,104.93004486111947L62.312307357788086,103.34935661050777L64.38938426971436,101.68338411571803L66.46646118164062,100.55472630802366L68.5435380935669,99.41185357264133L70.62061500549316,97.78283669667046L72.69769191741943,96.4125304402305L74.7747688293457,95.04222418379054L76.85184574127197,93.30801364975893L78.92892265319824,91.82967713606031L81.00599956512451,89.97322141708209L83.08307647705078,88.71378733904844L85.16015338897705,87.0762393776849L87.23723030090332,85.90494210887637L89.31430721282959,84.71658266928252L91.39138412475586,83.38892119590643L93.46846103668213,81.78832885336176L95.5455379486084,80.60565857801292L97.62261486053467,79.26093493385152L99.69969177246094,77.98729125007962L101.7767686843872,76.34121220332342L103.85384559631348,74.89414746614837L105.93092250823975,74.59848122779859L108.00799942016602,72.68232387692088L110.08507633209229,71.61620962227364L112.16215324401855,70.36815387273002L114.23923015594482,69.36458317112992L116.3163070678711,68.44061819336228L118.39338397979736,67.23520722688254L120.47046089172363,65.88763633962377L122.5475378036499,65.08876911184983" fill="none"></path></g><g><path style="fill: none;" stroke="rgb(0, 153, 136)" stroke-width="2px" d="M20.770769119262695,149.99629907933593L22.847846031188965,142.4237314229648L24.924922943115234,141.84732302375266L27.001999855041504,140.93947823167088L29.079076766967773,141.12681219211566L31.156153678894043,141.3645796090318L33.23323059082031,141.1124016827757L35.31030750274658,140.7449410122872L37.38738441467285,140.7017108147547L39.46446132659912,139.31832985835317L41.54153823852539,138.34564110046003L43.61861515045166,137.36574509216578L45.69569206237793,136.27056767012658L47.7727689743042,135.3699314589333L49.84984588623047,133.4173453622585L51.92692279815674,131.31345357421995L54.00399971008301,129.022229156224L56.08107662200928,127.32902956669386L58.15815353393555,125.54936958209873L60.235230445861816,124.62711561116438L62.312307357788086,122.61689013810451L64.38938426971436,120.66430404142969L66.46646118164062,119.38899990934681L68.5435380935669,118.4019006421137L70.62061500549316,116.85280348500845L72.69769191741943,115.46221527820578L74.7747688293457,114.4535035731813L76.85184574127197,113.14217516347962L78.92892265319824,112.40004524161408L81.00599956512451,111.39133353658958L83.08307647705078,110.108823484593L85.16015338897705,109.25141480995738L87.23723030090332,108.37239369753037L89.31430721282959,107.41411278800236L91.39138412475586,105.9514760259621L93.46846103668213,104.17901663933095L95.5455379486084,103.22794164971664L97.62261486053467,102.03910323464846L99.69969177246094,101.37623310988393L101.7767686843872,100.32428588537722L103.85384559631348,98.99133971593444L105.93092250823975,98.23480327619122L108.00799942016602,96.10929638938642L110.08507633209229,95.47524994427668L112.16215324401855,94.32963640479129L114.23923015594482,93.63074200240796L116.3163070678711,92.82376944521853L118.39338397979736,91.28907880599097L120.47046089172363,90.52534176828375L122.5475378036499,88.71685810403382L124.62461471557617,88.00355186182308L126.70169162750244,86.80750220489149L128.7787685394287,85.76276090029849L130.85584545135498,84.99902386259127L132.93292236328125,83.45712730345001L135.00999927520752,82.4844398760443L137.0870761871338,81.15149370660153L139.16415309906003,79.07642293724292L141.24123001098633,78.39193505273728L143.3183069229126,77.68583473044025L145.39538383483887,75.89896882593142L147.4724607467651,74.51559186099216L149.5495376586914,73.39879667921186L151.62661457061768,72.66387799920973L153.70369148254395,70.83378189716841L155.78076839447021,69.35672797335103L157.85784530639648,68.97485679352256L159.93492221832275,66.51071956832122L162.01199913024902,66.33778813429181L164.0890760421753,64.75266669956777L166.16615295410156,63.657494599478284L168.24322986602783,62.39659698527309L170.3203067779541,61.05644489591661L172.39738368988037,59.91083135643122L174.47446060180664,57.929426902051304L176.5515375137329,57.41787045157507L178.62861442565918,55.076212577107796L180.70569133758545,53.8009031230752L182.78276824951172,52.561623268611115L184.859845161438,50.911659198563186L186.93692207336426,49.82368237448796L189.01399898529053,48.13768870487152L191.0910758972168,48.08725790937504L193.16815280914307,46.55256727014748L195.24522972106934,44.32618282650057L197.3223066329956,42.921188101820206L199.39938354492188,41.91247639679571L201.47646045684814,41.16314587696618L203.5535373687744,39.54920076258733L205.63061428070068,38.9223602373913L207.70769119262695,37.12108249305507L209.78476810455322,35.50713737867622L211.8618450164795,34.07331897434105L213.93892192840576,31.601965185326577L216.01599884033203,31.96942452532764L218.0930757522583,30.694125715194474L220.17015266418457,29.130611396312105L222.24722957611084,28.957690606182126L224.3243064880371,27.653568116394155L226.40138339996338,25.902731811453833L228.47846031188965,25.095753932314693L230.55553722381592,24.68505907283142L232.6326141357422,23.071124602352L234.70969104766846,21.111327263813763L236.78676795959473,19.88645924917708L238.863844871521,19.66310766355062L240.94092178344727,18.27972005471193L243.01799869537354,17.314233225270215L245.0950756072998,16.03893441513705L247.17215251922607,16.291109680418316L249.24922943115234,14.050324040843435L251.3263063430786,13.2649639214454L253.40338325500488,12.220222616852396L255.48046016693115,10.368514077019682" fill="none"></path></g><g><path style="fill: none;" stroke="rgb(51, 187, 238)" stroke-width="2px" d="M20.770769119262695,142.28925772806122L22.847846031188965,134.77296037651104L24.924922943115234,128.51869288396782L27.001999855041504,122.3203085244038L29.079076766967773,119.31291731622548L31.156153678894043,115.60883499284571L33.23323059082031,112.28866215603516L35.31030750274658,110.55926798649536L37.38738441467285,107.68831560315276L39.46446132659912,105.78692134078362L41.54153823852539,103.55533203031574L43.61861515045166,101.90721467681881L45.69569206237793,100.03195118754884L47.7727689743042,98.28223781399832L49.84984588623047,97.70093721251096L51.92692279815674,95.8438162498184L54.00399971008301,94.08829662912915L56.08107662200928,92.20069153847079L58.15815353393555,90.36389510173866L60.235230445861816,88.76367529567402L62.312307357788086,87.83184979817777L64.38938426971436,86.94429227840838L66.46646118164062,85.45366206086881L68.5435380935669,84.54796201452201L70.62061500549316,84.64956335652532L72.69769191741943,82.71914318041222L74.7747688293457,81.55435997805448L76.85184574127197,80.29523457310428L78.92892265319824,79.54483966333181L81.00599956512451,78.42142397610642L83.08307647705078,77.37203128746278L85.16015338897705,76.7058189782774L87.23723030090332,77.05924433688081L89.31430721282959,75.86035275880157L91.39138412475586,74.29642332784145L93.46846103668213,73.38854660406135L95.5455379486084,72.30431643258528L97.62261486053467,71.44216057880415L99.69969177246094,70.61193110136149L101.7767686843872,69.67720514127073L103.85384559631348,68.37671222118819L105.93092250823975,67.65389565483729L108.00799942016602,67.00437297995721L110.08507633209229,66.43104998109219L112.16215324401855,65.49922980554565L114.23923015594482,64.66537608034729L116.3163070678711,63.50711758833977L118.39338397979736,62.91638117000825L120.47046089172363,62.164538689913385L122.5475378036499,63.131920133453534" fill="none"></path></g><g><path style="fill: none;" stroke="rgb(238, 51, 119)" stroke-width="2px" d="M20.770769119262695,153.7828283824521L22.847846031188965,150.22880974042138L24.924922943115234,142.57177742012829L27.001999855041504,143.61197777112721L29.079076766967773,142.1383604963381L31.156153678894043,141.2426311227818L33.23323059082031,142.48509350317528L35.31030750274658,141.64715385108343L37.38738441467285,141.57491769711842L39.46446132659912,142.67290776958183L41.54153823852539,141.51712930614136L43.61861515045166,141.89275650846707L45.69569206237793,141.56047126461786L47.7727689743042,140.91034587893262L49.84984588623047,140.50582315063096L51.92692279815674,140.79476776649108L54.00399971008301,139.32115049170196L56.08107662200928,138.72881349699375L58.15815353393555,137.7752957324604L60.235230445861816,137.4719046840997L62.312307357788086,137.58748146605382L64.38938426971436,136.0416280372997L66.46646118164062,134.94363796483626L68.5435380935669,133.9612273353018L70.62061500549316,132.16977124916406L72.69769191741943,130.8117294258416L74.7747688293457,129.1358527826328L76.85184574127197,127.70557613583279L78.92892265319824,126.72316284532346L81.00599956512451,125.37957011547644L83.08307647705078,124.1226613025824L85.16015338897705,123.99263808812776L87.23723030090332,123.21248549652555L89.31430721282959,122.79351766621079L91.39138412475586,121.44992493636374L93.46846103668213,120.38083038987628L95.5455379486084,120.46751164585444L97.62261486053467,119.42731262534292L99.69969177246094,118.21374577092541L101.7767686843872,117.10130660498658L103.85384559631348,115.68547639068709L105.93092250823975,115.19427107591986L108.00799942016602,114.50080506224553L110.08507633209229,114.70306576115263L112.16215324401855,113.33058282727937L114.23923015594482,111.36575624626074L116.3163070678711,110.93234198344543L118.39338397979736,110.4700295336793L120.47046089172363,109.97882421891207L122.5475378036499,109.0830921843809L124.62461471557617,108.9097296724246L126.70169162750244,106.69930043402236L128.7787685394287,106.45369777663875L130.85584545135498,107.56613428160271L132.93292236328125,105.26902644819718L135.00999927520752,105.6013130225338L137.0870761871338,104.53221847604634L139.16415309906003,104.11324798475671L141.24123001098633,103.14528112674795L143.3183069229126,103.17417399174904L145.39538383483887,102.52404993655121L147.4724607467651,101.26714378463204L149.5495376586914,100.45809566705388L151.62661457061768,99.62016000642434L153.70369148254395,99.49013413099483L155.78076839447021,98.72442797189318L157.85784530639648,97.81425216583632L159.93492221832275,96.86073440130296L162.01199913024902,95.92166573024501L164.0890760421753,95.24264881004608L166.16615295410156,94.63586139137503L168.24322986602783,93.71124181379248L170.3203067779541,93.89905341922419L172.39738368988037,92.4109883814471L174.47446060180664,91.09629117757602L176.5515375137329,91.34189383495963L178.62861442565918,89.99830376608746L180.70569133758545,89.68046096327653L182.78276824951172,87.81676739268632L184.859845161438,87.65784865225571L186.93692207336426,86.66098892924585L189.01399898529053,86.42983536533764L191.0910758972168,86.14089074947752L193.16815280914307,84.92732123408514L195.24522972106934,83.38147046630586L197.3223066329956,83.95935969802609L199.39938354492188,81.85006347005226" fill="none"></path></g></g></g></g></g></g><g transform="translate(59, 178)" clip-path="url(#clip_1)"><clipPath id="clip_1"><rect width="270" height="21"></rect></clipPath><g><g><line x1="0" y1="0" x2="0" y2="5" style="visibility: inherit;" fill="rgb(0, 0, 0)" stroke="rgb(204, 204, 204)" stroke-width="1px"></line><line x1="20.770769119262695" y1="0" x2="20.770769119262695" y2="5" style="visibility: inherit;" fill="rgb(0, 0, 0)" stroke="rgb(204, 204, 204)" stroke-width="1px"></line><line x1="41.54153823852539" y1="0" x2="41.54153823852539" y2="5" style="visibility: inherit;" fill="rgb(0, 0, 0)" stroke="rgb(204, 204, 204)" stroke-width="1px"></line><line x1="62.312307357788086" y1="0" x2="62.312307357788086" y2="5" style="visibility: inherit;" fill="rgb(0, 0, 0)" stroke="rgb(204, 204, 204)" stroke-width="1px"></line><line x1="83.08307647705078" y1="0" x2="83.08307647705078" y2="5" style="visibility: inherit;" fill="rgb(0, 0, 0)" stroke="rgb(204, 204, 204)" stroke-width="1px"></line><line x1="103.85384559631348" y1="0" x2="103.85384559631348" y2="5" style="visibility: inherit;" fill="rgb(0, 0, 0)" stroke="rgb(204, 204, 204)" stroke-width="1px"></line><line x1="124.62461471557617" y1="0" x2="124.62461471557617" y2="5" style="visibility: inherit;" fill="rgb(0, 0, 0)" stroke="rgb(204, 204, 204)" stroke-width="1px"></line><line x1="145.39538383483887" y1="0" x2="145.39538383483887" y2="5" style="visibility: inherit;" fill="rgb(0, 0, 0)" stroke="rgb(204, 204, 204)" stroke-width="1px"></line><line x1="166.16615295410156" y1="0" x2="166.16615295410156" y2="5" style="visibility: inherit;" fill="rgb(0, 0, 0)" stroke="rgb(204, 204, 204)" stroke-width="1px"></line><line x1="186.93692207336426" y1="0" x2="186.93692207336426" y2="5" style="visibility: inherit;" fill="rgb(0, 0, 0)" stroke="rgb(204, 204, 204)" stroke-width="1px"></line><line x1="207.70769119262695" y1="0" x2="207.70769119262695" y2="5" style="visibility: inherit;" fill="rgb(0, 0, 0)" stroke="rgb(204, 204, 204)" stroke-width="1px"></line><line x1="228.47846031188965" y1="0" x2="228.47846031188965" y2="5" style="visibility: inherit;" fill="rgb(0, 0, 0)" stroke="rgb(204, 204, 204)" stroke-width="1px"></line><line x1="249.24922943115234" y1="0" x2="249.24922943115234" y2="5" style="visibility: inherit;" fill="rgb(0, 0, 0)" stroke="rgb(204, 204, 204)" stroke-width="1px"></line><line x1="270.01999855041504" y1="0" x2="270.01999855041504" y2="5" style="visibility: inherit;" fill="rgb(0, 0, 0)" stroke="rgb(204, 204, 204)" stroke-width="1px"></line></g><g transform="translate(0, 8)"><text style="text-anchor: middle; visibility: hidden; font-family: &quot;Helvetica Neue&quot;, sans-serif; font-size: 12px; font-weight: 200;" x="0" y="0" dx="0em" dy="0.95em" fill="rgb(50, 49, 63)" stroke="none" stroke-width="1px">-10</text><text style="text-anchor: middle; visibility: hidden; font-family: &quot;Helvetica Neue&quot;, sans-serif; font-size: 12px; font-weight: 200;" x="20.770769119262695" y="0" dx="0em" dy="0.95em" fill="rgb(50, 49, 63)" stroke="none" stroke-width="1px">0</text><text style="text-anchor: middle; visibility: hidden; font-family: &quot;Helvetica Neue&quot;, sans-serif; font-size: 12px; font-weight: 200;" x="41.54153823852539" y="0" dx="0em" dy="0.95em" fill="rgb(50, 49, 63)" stroke="none" stroke-width="1px">10</text><text style="text-anchor: middle; visibility: hidden; font-family: &quot;Helvetica Neue&quot;, sans-serif; font-size: 12px; font-weight: 200;" x="62.312307357788086" y="0" dx="0em" dy="0.95em" fill="rgb(50, 49, 63)" stroke="none" stroke-width="1px">20</text><text style="text-anchor: middle; visibility: hidden; font-family: &quot;Helvetica Neue&quot;, sans-serif; font-size: 12px; font-weight: 200;" x="83.08307647705078" y="0" dx="0em" dy="0.95em" fill="rgb(50, 49, 63)" stroke="none" stroke-width="1px">30</text><text style="text-anchor: middle; visibility: hidden; font-family: &quot;Helvetica Neue&quot;, sans-serif; font-size: 12px; font-weight: 200;" x="103.85384559631348" y="0" dx="0em" dy="0.95em" fill="rgb(50, 49, 63)" stroke="none" stroke-width="1px">40</text><text style="text-anchor: middle; visibility: hidden; font-family: &quot;Helvetica Neue&quot;, sans-serif; font-size: 12px; font-weight: 200;" x="124.62461471557617" y="0" dx="0em" dy="0.95em" fill="rgb(50, 49, 63)" stroke="none" stroke-width="1px">50</text><text style="text-anchor: middle; visibility: hidden; font-family: &quot;Helvetica Neue&quot;, sans-serif; font-size: 12px; font-weight: 200;" x="145.39538383483887" y="0" dx="0em" dy="0.95em" fill="rgb(50, 49, 63)" stroke="none" stroke-width="1px">60</text><text style="text-anchor: middle; visibility: hidden; font-family: &quot;Helvetica Neue&quot;, sans-serif; font-size: 12px; font-weight: 200;" x="166.16615295410156" y="0" dx="0em" dy="0.95em" fill="rgb(50, 49, 63)" stroke="none" stroke-width="1px">70</text><text style="text-anchor: middle; visibility: hidden; font-family: &quot;Helvetica Neue&quot;, sans-serif; font-size: 12px; font-weight: 200;" x="186.93692207336426" y="0" dx="0em" dy="0.95em" fill="rgb(50, 49, 63)" stroke="none" stroke-width="1px">80</text><text style="text-anchor: middle; visibility: hidden; font-family: &quot;Helvetica Neue&quot;, sans-serif; font-size: 12px; font-weight: 200;" x="207.70769119262695" y="0" dx="0em" dy="0.95em" fill="rgb(50, 49, 63)" stroke="none" stroke-width="1px">90</text><text style="text-anchor: middle; visibility: hidden; font-family: &quot;Helvetica Neue&quot;, sans-serif; font-size: 12px; font-weight: 200;" x="228.47846031188965" y="0" dx="0em" dy="0.95em" fill="rgb(50, 49, 63)" stroke="none" stroke-width="1px">100</text><text style="text-anchor: middle; visibility: hidden; font-family: &quot;Helvetica Neue&quot;, sans-serif; font-size: 12px; font-weight: 200;" x="249.24922943115234" y="0" dx="0em" dy="0.95em" fill="rgb(50, 49, 63)" stroke="none" stroke-width="1px">110</text><text style="text-anchor: middle; visibility: hidden; font-family: &quot;Helvetica Neue&quot;, sans-serif; font-size: 12px; font-weight: 200;" x="270.01999855041504" y="0" dx="0em" dy="0.95em" fill="rgb(50, 49, 63)" stroke="none" stroke-width="1px">120</text></g><line x1="0" y1="0" x2="270.01999855041504" y2="0" fill="rgb(0, 0, 0)" stroke="rgb(204, 204, 204)" stroke-width="1px"></line></g></g></g></g></svg>