<svg viewBox="0 0 330 200" xmlns="http://www.w3.org/2000/svg"><g><g><g><g><g><line x1="59.98000144958496" y1="178.57499980926514" x2="54.98000144958496" y2="178.57499980926514" style="visibility: inherit;" fill="rgb(0, 0, 0)" stroke="rgb(204, 204, 204)" stroke-width="1px"></line><line x1="59.98000144958496" y1="160.71749982833862" x2="54.98000144958496" y2="160.71749982833862" style="visibility: inherit;" fill="rgb(0, 0, 0)" stroke="rgb(204, 204, 204)" stroke-width="1px"></line><line x1="59.98000144958496" y1="142.8599998474121" x2="54.98000144958496" y2="142.8599998474121" style="visibility: inherit;" fill="rgb(0, 0, 0)" stroke="rgb(204, 204, 204)" stroke-width="1px"></line><line x1="59.98000144958496" y1="125.00249986648558" x2="54.98000144958496" y2="125.00249986648558" style="visibility: inherit;" fill="rgb(0, 0, 0)" stroke="rgb(204, 204, 204)" stroke-width="1px"></line><line x1="59.98000144958496" y1="107.14499988555907" x2="54.98000144958496" y2="107.14499988555907" style="visibility: inherit;" fill="rgb(0, 0, 0)" stroke="rgb(204, 204, 204)" stroke-width="1px"></line><line x1="59.98000144958496" y1="89.28749990463257" x2="54.98000144958496" y2="89.28749990463257" style="visibility: inherit;" fill="rgb(0, 0, 0)" stroke="rgb(204, 204, 204)" stroke-width="1px"></line><line x1="59.98000144958496" y1="71.42999992370606" x2="54.98000144958496" y2="71.42999992370606" style="visibility: inherit;" fill="rgb(0, 0, 0)" stroke="rgb(204, 204, 204)" stroke-width="1px"></line><line x1="59.98000144958496" y1="53.572499942779544" x2="54.98000144958496" y2="53.572499942779544" style="visibility: inherit;" fill="rgb(0, 0, 0)" stroke="rgb(204, 204, 204)" stroke-width="1px"></line><line x1="59.98000144958496" y1="35.71499996185304" x2="54.98000144958496" y2="35.71499996185304" style="visibility: inherit;" fill="rgb(0, 0, 0)" stroke="rgb(204, 204, 204)" stroke-width="1px"></line><line x1="59.98000144958496" y1="17.85749998092652" x2="54.98000144958496" y2="17.85749998092652" style="visibility: inherit;" fill="rgb(0, 0, 0)" stroke="rgb(204, 204, 204)" stroke-width="1px"></line><line x1="59.98000144958496" y1="0" x2="54.98000144958496" y2="0" style="visibility: inherit;" fill="rgb(0, 0, 0)" stroke="rgb(204, 204, 204)" stroke-width="1px"></line></g><g transform="translate(49.98000144958496, 0)"><text style="text-anchor: end; visibility: hidden; font-family: &quot;Helvetica Neue&quot;, sans-serif; font-size: 12px; font-weight: 200;" x="0" y="178.57499980926514" dx="0em" dy="0.3em" fill="rgb(50, 49, 63)" stroke="none" stroke-width="1px">-0.05</text><text style="text-anchor: end; visibility: inherit; font-family: &quot;Helvetica Neue&quot;, sans-serif; font-size: 12px; font-weight: 200;" x="0" y="160.71749982833862" dx="0em" dy="0.3em" fill="rgb(50, 49, 63)" stroke="none" stroke-width="1px">0</text><text style="text-anchor: end; visibility: hidden; font-family: &quot;Helvetica Neue&quot;, sans-serif; font-size: 12px; font-weight: 200;" x="0" y="142.8599998474121" dx="0em" dy="0.3em" fill="rgb(50, 49, 63)" stroke="none" stroke-width="1px">0.05</text><text style="text-anchor: end; visibility: inherit; font-family: &quot;Helvetica Neue&quot;, sans-serif; font-size: 12px; font-weight: 200;" x="0" y="125.00249986648558" dx="0em" dy="0.3em" fill="rgb(50, 49, 63)" stroke="none" stroke-width="1px">0.1</text><text style="text-anchor: end; visibility: hidden; font-family: &quot;Helvetica Neue&quot;, sans-serif; font-size: 12px; font-weight: 200;" x="0" y="107.14499988555907" dx="0em" dy="0.3em" fill="rgb(50, 49, 63)" stroke="none" stroke-width="1px">0.15</text><text style="text-anchor: end; visibility: inherit; font-family: &quot;Helvetica Neue&quot;, sans-serif; font-size: 12px; font-weight: 200;" x="0" y="89.28749990463257" dx="0em" dy="0.3em" fill="rgb(50, 49, 63)" stroke="none" stroke-width="1px">0.2</text><text style="text-anchor: end; visibility: hidden; font-family: &quot;Helvetica Neue&quot;, sans-serif; font-size: 12px; font-weight: 200;" x="0" y="71.42999992370606" dx="0em" dy="0.3em" fill="rgb(50, 49, 63)" stroke="none" stroke-width="1px">0.25</text><text style="text-anchor: end; visibility: inherit; font-family: &quot;Helvetica Neue&quot;, sans-serif; font-size: 12px; font-weight: 200;" x="0" y="53.572499942779544" dx="0em" dy="0.3em" fill="rgb(50, 49, 63)" stroke="none" stroke-width="1px">0.3</text><text style="text-anchor: end; visibility: hidden; font-family: &quot;Helvetica Neue&quot;, sans-serif; font-size: 12px; font-weight: 200;" x="0" y="35.71499996185304" dx="0em" dy="0.3em" fill="rgb(50, 49, 63)" stroke="none" stroke-width="1px">0.35</text><text style="text-anchor: end; visibility: inherit; font-family: &quot;Helvetica Neue&quot;, sans-serif; font-size: 12px; font-weight: 200;" x="0" y="17.85749998092652" dx="0em" dy="0.3em" fill="rgb(50, 49, 63)" stroke="none" stroke-width="1px">0.4</text><text style="text-anchor: end; visibility: hidden; font-family: &quot;Helvetica Neue&quot;, sans-serif; font-size: 12px; font-weight: 200;" x="0" y="0" dx="0em" dy="0.3em" fill="rgb(50, 49, 63)" stroke="none" stroke-width="1px">0.45</text></g><line x1="59.98000144958496" y1="0" x2="59.98000144958496" y2="178.57499980926514" fill="rgb(0, 0, 0)" stroke="rgb(204, 204, 204)" stroke-width="1px"></line></g></g><g transform="translate(59, 0)" clip-path="url(#clip_0)"><clipPath id="clip_0"><rect width="270" height="178"></rect></clipPath><g><g><g><line x1="0" y1="0" x2="0" y2="178.57499980926514" fill="rgb(0, 0, 0)" stroke="rgb(60, 60, 60)" stroke-width="1px" opacity="0.25"></line><line x1="22.50166654586792" y1="0" x2="22.50166654586792" y2="178.57499980926514" fill="rgb(0, 0, 0)" stroke="rgb(60, 60, 60)" stroke-width="1px" opacity="0.25"></line><line x1="45.00333309173584" y1="0" x2="45.00333309173584" y2="178.57499980926514" fill="rgb(0, 0, 0)" stroke="rgb(60, 60, 60)" stroke-width="1px" opacity="0.25"></line><line x1="67.50499963760376" y1="0" x2="67.50499963760376" y2="178.57499980926514" fill="rgb(0, 0, 0)" stroke="rgb(60, 60, 60)" stroke-width="1px" opacity="0.25"></line><line x1="90.00666618347168" y1="0" x2="90.00666618347168" y2="178.57499980926514" fill="rgb(0, 0, 0)" stroke="rgb(60, 60, 60)" stroke-width="1px" opacity="0.25"></line><line x1="112.5083327293396" y1="0" x2="112.5083327293396" y2="178.57499980926514" fill="rgb(0, 0, 0)" stroke="rgb(60, 60, 60)" stroke-width="1px" opacity="0.25"></line><line x1="135.00999927520752" y1="0" x2="135.00999927520752" y2="178.57499980926514" fill="rgb(0, 0, 0)" stroke="rgb(60, 60, 60)" stroke-width="1px" opacity="0.25"></line><line x1="157.51166582107544" y1="0" x2="157.51166582107544" y2="178.57499980926514" fill="rgb(0, 0, 0)" stroke="rgb(60, 60, 60)" stroke-width="1px" opacity="0.25"></line><line x1="180.01333236694336" y1="0" x2="180.01333236694336" y2="178.57499980926514" fill="rgb(0, 0, 0)" stroke="rgb(60, 60, 60)" stroke-width="1px" opacity="0.25"></line><line x1="202.51499891281128" y1="0" x2="202.51499891281128" y2="178.57499980926514" fill="rgb(0, 0, 0)" stroke="rgb(60, 60, 60)" stroke-width="1px" opacity="0.25"></line><line x1="225.0166654586792" y1="0" x2="225.0166654586792" y2="178.57499980926514" fill="rgb(0, 0, 0)" stroke="rgb(60, 60, 60)" stroke-width="1px" opacity="0.25"></line><line x1="247.51833200454712" y1="0" x2="247.51833200454712" y2="178.57499980926514" fill="rgb(0, 0, 0)" stroke="rgb(60, 60, 60)" stroke-width="1px" opacity="0.25"></line><line x1="270.01999855041504" y1="0" x2="270.01999855041504" y2="178.57499980926514" fill="rgb(0, 0, 0)" stroke="rgb(60, 60, 60)" stroke-width="1px" opacity="0.25"></line></g><g><line x1="0" y1="178.57499980926514" x2="270.01999855041504" y2="178.57499980926514" fill="rgb(0, 0, 0)" stroke="rgb(60, 60, 60)" stroke-width="1px" opacity="0.25"></line><line x1="0" y1="160.71749982833862" x2="270.01999855041504" y2="160.71749982833862" fill="rgb(0, 0, 0)" stroke="rgb(60, 60, 60)" stroke-width="1px" opacity="0.25"></line><line x1="0" y1="142.8599998474121" x2="270.01999855041504" y2="142.8599998474121" fill="rgb(0, 0, 0)" stroke="rgb(60, 60, 60)" stroke-width="1px" opacity="0.25"></line><line x1="0" y1="125.00249986648558" x2="270.01999855041504" y2="125.00249986648558" fill="rgb(0, 0, 0)" stroke="rgb(60, 60, 60)" stroke-width="1px" opacity="0.25"></line><line x1="0" y1="107.14499988555907" x2="270.01999855041504" y2="107.14499988555907" fill="rgb(0, 0, 0)" stroke="rgb(60, 60, 60)" stroke-width="1px" opacity="0.25"></line><line x1="0" y1="89.28749990463257" x2="270.01999855041504" y2="89.28749990463257" fill="rgb(0, 0, 0)" stroke="rgb(60, 60, 60)" stroke-width="1px" opacity="0.25"></line><line x1="0" y1="71.42999992370606" x2="270.01999855041504" y2="71.42999992370606" fill="rgb(0, 0, 0)" stroke="rgb(60, 60, 60)" stroke-width="1px" opacity="0.25"></line><line x1="0" y1="53.572499942779544" x2="270.01999855041504" y2="53.572499942779544" fill="rgb(0, 0, 0)" stroke="rgb(60, 60, 60)" stroke-width="1px" opacity="0.25"></line><line x1="0" y1="35.71499996185304" x2="270.01999855041504" y2="35.71499996185304" fill="rgb(0, 0, 0)" stroke="rgb(60, 60, 60)" stroke-width="1px" opacity="0.25"></line><line x1="0" y1="17.85749998092652" x2="270.01999855041504" y2="17.85749998092652" fill="rgb(0, 0, 0)" stroke="rgb(60, 60, 60)" stroke-width="1px" opacity="0.25"></line><line x1="0" y1="0" x2="270.01999855041504" y2="0" fill="rgb(0, 0, 0)" stroke="rgb(60, 60, 60)" stroke-width="1px" opacity="0.25"></line></g></g></g><g><g><line x1="0" y1="160.71749982833862" x2="270.01999855041504" y2="160.71749982833862" fill="rgb(0, 0, 0)" stroke="rgb(153, 153, 153)" stroke-width="1.5px"></line></g></g><g><g><line x1="22.50166654586792" y1="0" x2="22.50166654586792" y2="178.57499980926514" fill="rgb(0, 0, 0)" stroke="rgb(153, 153, 153)" stroke-width="1.5px"></line></g></g><g><g><g><g><g><path style="fill: none;" stroke="rgb(0, 119, 187)" stroke-width="2px" d="M22.50166654586792,145.1942240225179L24.751833200454712,141.26279332927592L27.001999855041504,140.26613317938038L29.252166509628296,136.6305869244265L31.502333164215088,131.88229016947548L33.75249981880188,128.71959116374796L36.00266647338867,128.02872492250927L38.252833127975464,124.02509133748799L40.502999782562256,121.14553602243157L42.75316643714905,118.80819691015779L45.00333309173584,117.24100246304769L47.25349974632263,115.2080442817815L49.503666400909424,113.81073445248917L51.753833055496216,111.93350184182476L54.00399971008301,110.5588475524679L56.2541663646698,109.423446834485L58.50433301925659,107.50090846589937L60.754499673843384,105.20037861882729L63.004666328430176,103.14334925900151L65.25483298301697,101.42608913481122L67.50499963760376,100.127884653106L69.75516629219055,98.64280522911885L72.00533294677734,98.00997751049378L74.25549960136414,98.47008667307803L76.50566625595093,95.55513773144402L78.75583291053772,93.81664302789208L81.00599956512451,92.7817579741707L83.2561662197113,91.5302695670611L85.5063328742981,90.21507209991684L87.75649952888489,89.40386859270423L90.00666618347168,88.31094235539435L92.25683283805847,87.42187340190598L94.50699949264526,87.82535169757612L96.75716614723206,86.29496651566775L99.00733280181885,85.01941225194828L101.25749945640564,83.96187698024114L103.50766611099243,83.49893654040868L105.75783276557922,82.38336008511304L108.00799942016602,81.57215657790043L110.25816607475281,80.69299709478084L112.5083327293396,80.05592778223316L114.75849938392639,79.51371157945054L117.00866603851318,78.82284267723698L119.25883269309998,77.95642926368409L121.50899934768677,77.39438879821422L123.75916600227356,76.62141285580229L126.00933265686035,75.62333440630776L128.25949931144714,75.47751830607474" fill="none"></path></g><g><path style="fill: none;" stroke="rgb(0, 119, 187)" stroke-width="2px" d="M22.50166654586792,148.50201800429207L24.751833200454712,145.81955444448238L27.001999855041504,144.58369660368484L29.252166509628296,139.36187138994399L31.502333164215088,135.31866245635678L33.75249981880188,131.9883513053397L36.00266647338867,129.0379022981338L38.252833127975464,127.74740666059031L40.502999782562256,126.69887878877529L42.75316643714905,125.3563451269215L45.00333309173584,123.27229888936904L47.25349974632263,120.27761915808429L49.503666400909424,117.92818857605869L51.753833055496216,116.54662905694701L54.00399971008301,114.81122374520444L56.2541663646698,113.5051161681729L58.50433301925659,111.73848963842907L60.754499673843384,134.00995510688958L63.004666328430176,118.71393187583618L65.25483298301697,109.44629928655992L67.50499963760376,107.78374348348702L69.75516629219055,106.80025782011019L72.00533294677734,105.71010431860167L74.25549960136414,104.73963082227728L76.50566625595093,103.95388220055007L78.75583291053772,102.8168955415522L81.00599956512451,101.83080744476489L83.2561662197113,101.22198704130282L85.5063328742981,99.92889163132371L87.75649952888489,98.99223912543623L90.00666618347168,98.28194510676401L92.25683283805847,97.02006825381132L94.50699949264526,95.99235718830535L96.75716614723206,95.30287731496732L99.00733280181885,93.76260927243875L101.25749945640564,93.32550157652143L103.50766611099243,91.68636767414291L105.75783276557922,91.07493951532065L108.00799942016602,89.96397186847794L110.25816607475281,88.90763403545661L112.5083327293396,87.70300007363521L114.75849938392639,86.80277631354484L117.00866603851318,85.75945064757595L119.25883269309998,84.4871640609813L121.50899934768677,83.2643183872362L123.75916600227356,82.91047259460534L126.00933265686035,81.85414008353372L128.25949931144714,81.10221777419314L130.50966596603394,79.64260387959082L132.75983262062073,78.75538696460318L135.00999927520752,77.69645202012107L137.2601659297943,77.08502918324852L139.5103325843811,75.9922679263798L141.7604992389679,74.85007640056095L144.0106658935547,73.90301948298124L146.26083254814148,73.09905914933033L148.51099920272827,72.13379051982692L150.76116585731506,71.5874072304177L153.01133251190186,70.73922149463765L155.26149916648865,69.59181978004811L157.51166582107544,68.60834476057072L159.76183247566223,67.95788542254085L162.01199913024902,67.19296159004726L164.26216578483582,65.94929644901826L166.5123324394226,66.2302847500549L168.7624990940094,65.06727907890188L171.0126657485962,63.98232512226461L173.26283240318298,63.8392285383358L175.51299905776978,63.01445405935071L177.76316571235657,62.626781954333225L180.01333236694336,61.24522509619639L182.26349902153015,60.641609559555306L184.51366567611694,60.04839311265674L186.76383233070374,59.31468783718957L189.01399898529053,59.14296980769511L191.26416563987732,58.27656703804165L193.5143322944641,57.85506862063754L195.7644989490509,57.017287296549725L198.0146656036377,56.431883471832336L200.2648322582245,55.370346093939744L202.51499891281128,54.56639108223855L204.76516556739807,54.608019372906924L207.01533222198486,53.765033181998135L209.26549887657166,53.14580304489412L211.51566553115845,52.901238167704875L213.76583218574524,52.51356606268739L216.01599884033203,51.55089986659446L218.26616549491882,51.561298956336984L220.51633214950562,50.37487670643927L222.7664988040924,50.24739472297338L225.0166654586792,49.77126116979818L227.266832113266,49.01673642704711L229.51699876785278,48.51718629512723L231.76716542243958,47.728845883888965L234.01733207702637,47.21108404004539L236.26749873161316,47.049775744192885L238.51766538619995,46.15995639579475L240.76783204078674,45.86854771721673L243.01799869537354,44.97613125735782L245.26816534996033,44.40112652238295L247.51833200454712,44.01085730590469L249.7684986591339,43.857350988333934L252.0186653137207,43.620588089426434" fill="none"></path></g><g><path style="fill: none;" stroke="rgb(204, 51, 17)" stroke-width="2px" d="M22.50166654586792,151.30050672031933L24.751833200454712,146.85749296685256L27.001999855041504,146.6560930933118L29.252166509628296,146.7659474488352L31.502333164215088,146.78425628634116L33.75249981880188,146.039684920044L36.00266647338867,142.48161294806187L38.252833127975464,139.83899482576612L40.502999782562256,138.04470080994298L42.75316643714905,137.24520293112786L45.00333309173584,135.96356301790962L47.25349974632263,135.1823753070879L49.503666400909424,133.44300780378276L51.753833055496216,131.25201698671347L54.00399971008301,129.77508014578981L56.2541663646698,128.19439189517811L58.50433301925659,129.44551574873225L60.754499673843384,129.74456408612573L63.004666328430176,128.90844853229862L65.25483298301697,128.04791853415531L67.50499963760376,126.54046829454245L69.75516629219055,125.32596211600028L72.00533294677734,124.45322888716117L74.25549960136414,123.37909179331905L76.50566625595093,122.32936914379309L78.75583291053772,120.48014861545198L81.00599956512451,119.78440214632491L83.2561662197113,118.74078111214683L85.5063328742981,117.31267049888069L87.75649952888489,116.59861386176019L90.00666618347168,116.80001506578836L92.25683283805847,115.45124141789407L94.50699949264526,115.68926029693424L96.75716614723206,115.60381639426475L99.00733280181885,115.06675183880597L101.25749945640564,114.29166308235732L103.50766611099243,113.16870508280739L105.75783276557922,112.07015886659879L108.00799942016602,111.30727866279564L110.25816607475281,110.52608563002421L112.5083327293396,109.39092439977848L114.75849938392639,108.73789456003642L117.00866603851318,108.0421507518842L119.25883269309998,107.2426502120942L121.50899934768677,106.77271673033663L123.75916600227356,106.20513611521376L126.00933265686035,105.47887092544774L128.25949931144714,104.11789404685764L130.50966596603394,103.3550138430545L132.75983262062073,102.68368181824358L135.00999927520752,101.68278273540027L137.2601659297943,100.87717791928752L139.5103325843811,99.90679489610828L141.7604992389679,98.82655618691824L144.0106658935547,98.22235523580854L146.26083254814148,97.79514104441084L148.51099920272827,96.50739951584471L150.76116585731506,95.69569574535892L153.01133251190186,95.01825944422525L155.26149916648865,93.67559007265372L157.51166582107544,92.90660559252781L159.76183247566223,92.29630568704506L162.01199913024902,91.0817995085029L164.26216578483582,89.38515129555763L166.5123324394226,87.93873051429806L168.7624990940094,86.66319753837745L171.0126657485962,86.5594461286894L173.26283240318298,85.13133285444839L175.51299905776978,83.36144929147916L177.76316571235657,84.69191543235489L180.01333236694336,86.51062256200676L182.26349902153015,85.3632474571658L184.51366567611694,84.38066120329076L186.76383233070374,83.30042249410072L189.01399898529053,85.0886135640885L191.26416563987732,84.92993431139506L193.5143322944641,84.4844126129788L195.7644989490509,84.41117194100512L198.0146656036377,83.13563896508451L200.2648322582245,82.18356344892383" fill="none"></path></g><g><path style="fill: none;" stroke="rgb(187, 187, 187)" stroke-width="2px" d="M22.50166654586792,146.18620085666453L24.751833200454712,141.63852697059593L27.001999855041504,132.8342698905413L29.252166509628296,129.20606526521883L31.502333164215088,129.20375553904265L33.75249981880188,126.63016709600882L36.00266647338867,122.92341581484715L38.252833127975464,119.97325951487554L40.502999782562256,117.14439310987677L42.75316643714905,114.8838417490615L45.00333309173584,113.20315406331063L47.25349974632263,111.43814540628007L49.503666400909424,109.15680118792947L51.753833055496216,107.30631137458143L54.00399971008301,105.26522657610089L56.2541663646698,103.29345485070458L58.50433301925659,101.59081944433028L60.754499673843384,99.6502343442621L63.004666328430176,97.75469422657913L65.25483298301697,95.92962204506848L67.50499963760376,93.59051870646427L69.75516629219055,91.49976947324616L72.00533294677734,89.39977601337363L74.25549960136414,87.48229349701695L76.50566625595093,85.80622526361843L78.75583291053772,84.08164213662072L81.00599956512451,82.12488363136957L83.2561662197113,80.45344017227312L85.5063328742981,78.73578622380394L87.75649952888489,76.95345462045204L90.00666618347168,74.95049094777788L92.25683283805847,73.24092636287504L94.50699949264526,71.33499247739927L96.75716614723206,69.29390767891873L99.00733280181885,67.2874794169803L101.25749945640564,65.07197303855024L103.50766611099243,62.78139523744464L105.75783276557922,61.0360192529116L108.00799942016602,58.96721774031691L110.25816607475281,56.97926728778792L112.5083327293396,54.52003690022353L114.75849938392639,52.25717581323208L117.00866603851318,49.965437827088664L119.25883269309998,48.12303205535724L121.50899934768677,46.393824154057455L123.75916600227356,44.01429528542039L126.00933265686035,42.48493723980695L128.25949931144714,40.479658519006904L130.50966596603394,38.3068980406853L132.75983262062073,36.574230872070956L135.00999927520752,34.79650807717198L137.2601659297943,33.198997143512116L139.5103325843811,31.55180048731583L141.7604992389679,29.570789857214805L144.0106658935547,27.864689861576238L146.26083254814148,26.46931722198005L148.51099920272827,25.006941235475807L150.76116585731506,23.728236377525235L153.01133251190186,22.094908722285453L155.26149916648865,20.906293829105294L157.51166582107544,19.89211115977409L159.76183247566223,18.097070740503483L162.01199913024902,16.754832446858842L164.26216578483582,15.489985945965344L166.5123324394226,14.738005095177897L168.7624990940094,13.1774497803369L171.0126657485962,11.611114828105741L173.26283240318298,10.496432460362172L175.51299905776978,10.050559513264744L177.76316571235657,8.953205413792233L180.01333236694336,7.710306633522151L182.26349902153015,6.284896909736204" fill="none"></path></g><g><path style="fill: none;" stroke="rgb(255, 112, 67)" stroke-width="2px" d="M22.50166654586792,146.19795438260942L24.751833200454712,144.24988928221725L27.001999855041504,135.70505995441758L29.252166509628296,131.41043014192118L31.502333164215088,128.24881415296062L33.75249981880188,125.27325884797563L36.00266647338867,122.01583712025106L38.252833127975464,118.16275084875917L40.502999782562256,114.90532646005974L42.75316643714905,112.72399764269748L45.00333309173584,110.3357727082266L47.25349974632263,107.82119936557906L49.503666400909424,106.36049979323495L51.753833055496216,104.44853613873242L54.00399971008301,102.92812961253911L56.2541663646698,101.79372409915287L58.50433301925659,100.73152147754594L60.754499673843384,99.44299230042203L63.004666328430176,98.58767515202429L65.25483298301697,97.5185327079894L67.50499963760376,96.48271099111822L69.75516629219055,95.30248349068843L72.00533294677734,94.59018309697377L74.25549960136414,93.32665111765981L76.50566625595093,92.53104092311126L78.75583291053772,91.10921287148331L81.00599956512451,90.27055874764228L83.2561662197113,89.19030939455281L85.5063328742981,88.45023906722686L87.75649952888489,86.97703823500292L90.00666618347168,85.46912764673972L92.25683283805847,84.24030542346502L94.50699949264526,83.32944840784468L96.75716614723206,82.03120135054174L99.00733280181885,80.56911274932209L101.25749945640564,79.55133776393346L103.50766611099243,78.80154955642847L105.75783276557922,77.53523951936343L108.00799942016602,76.32308032064545L110.25816607475281,75.30114357057992L112.5083327293396,74.1320229792047L114.75849938392639,73.53913649318845L117.00866603851318,72.38528989749442L119.25883269309998,71.10509489362373L121.50899934768677,70.40251238008811L123.75916600227356,69.50693468209867L126.00933265686035,68.76408629702165L128.25949931144714,67.39224731906386" fill="none"></path></g></g></g></g></g></g><g transform="translate(59, 178)" clip-path="url(#clip_1)"><clipPath id="clip_1"><rect width="270" height="21"></rect></clipPath><g><g><line x1="0" y1="0" x2="0" y2="5" style="visibility: inherit;" fill="rgb(0, 0, 0)" stroke="rgb(204, 204, 204)" stroke-width="1px"></line><line x1="22.50166654586792" y1="0" x2="22.50166654586792" y2="5" style="visibility: inherit;" fill="rgb(0, 0, 0)" stroke="rgb(204, 204, 204)" stroke-width="1px"></line><line x1="45.00333309173584" y1="0" x2="45.00333309173584" y2="5" style="visibility: inherit;" fill="rgb(0, 0, 0)" stroke="rgb(204, 204, 204)" stroke-width="1px"></line><line x1="67.50499963760376" y1="0" x2="67.50499963760376" y2="5" style="visibility: inherit;" fill="rgb(0, 0, 0)" stroke="rgb(204, 204, 204)" stroke-width="1px"></line><line x1="90.00666618347168" y1="0" x2="90.00666618347168" y2="5" style="visibility: inherit;" fill="rgb(0, 0, 0)" stroke="rgb(204, 204, 204)" stroke-width="1px"></line><line x1="112.5083327293396" y1="0" x2="112.5083327293396" y2="5" style="visibility: inherit;" fill="rgb(0, 0, 0)" stroke="rgb(204, 204, 204)" stroke-width="1px"></line><line x1="135.00999927520752" y1="0" x2="135.00999927520752" y2="5" style="visibility: inherit;" fill="rgb(0, 0, 0)" stroke="rgb(204, 204, 204)" stroke-width="1px"></line><line x1="157.51166582107544" y1="0" x2="157.51166582107544" y2="5" style="visibility: inherit;" fill="rgb(0, 0, 0)" stroke="rgb(204, 204, 204)" stroke-width="1px"></line><line x1="180.01333236694336" y1="0" x2="180.01333236694336" y2="5" style="visibility: inherit;" fill="rgb(0, 0, 0)" stroke="rgb(204, 204, 204)" stroke-width="1px"></line><line x1="202.51499891281128" y1="0" x2="202.51499891281128" y2="5" style="visibility: inherit;" fill="rgb(0, 0, 0)" stroke="rgb(204, 204, 204)" stroke-width="1px"></line><line x1="225.0166654586792" y1="0" x2="225.0166654586792" y2="5" style="visibility: inherit;" fill="rgb(0, 0, 0)" stroke="rgb(204, 204, 204)" stroke-width="1px"></line><line x1="247.51833200454712" y1="0" x2="247.51833200454712" y2="5" style="visibility: inherit;" fill="rgb(0, 0, 0)" stroke="rgb(204, 204, 204)" stroke-width="1px"></line><line x1="270.01999855041504" y1="0" x2="270.01999855041504" y2="5" style="visibility: inherit;" fill="rgb(0, 0, 0)" stroke="rgb(204, 204, 204)" stroke-width="1px"></line></g><g transform="translate(0, 8)"><text style="text-anchor: middle; visibility: hidden; font-family: &quot;Helvetica Neue&quot;, sans-serif; font-size: 12px; font-weight: 200;" x="0" y="0" dx="0em" dy="0.95em" fill="rgb(50, 49, 63)" stroke="none" stroke-width="1px">-10</text><text style="text-anchor: middle; visibility: hidden; font-family: &quot;Helvetica Neue&quot;, sans-serif; font-size: 12px; font-weight: 200;" x="22.50166654586792" y="0" dx="0em" dy="0.95em" fill="rgb(50, 49, 63)" stroke="none" stroke-width="1px">0</text><text style="text-anchor: middle; visibility: hidden; font-family: &quot;Helvetica Neue&quot;, sans-serif; font-size: 12px; font-weight: 200;" x="45.00333309173584" y="0" dx="0em" dy="0.95em" fill="rgb(50, 49, 63)" stroke="none" stroke-width="1px">10</text><text style="text-anchor: middle; visibility: hidden; font-family: &quot;Helvetica Neue&quot;, sans-serif; font-size: 12px; font-weight: 200;" x="67.50499963760376" y="0" dx="0em" dy="0.95em" fill="rgb(50, 49, 63)" stroke="none" stroke-width="1px">20</text><text style="text-anchor: middle; visibility: hidden; font-family: &quot;Helvetica Neue&quot;, sans-serif; font-size: 12px; font-weight: 200;" x="90.00666618347168" y="0" dx="0em" dy="0.95em" fill="rgb(50, 49, 63)" stroke="none" stroke-width="1px">30</text><text style="text-anchor: middle; visibility: hidden; font-family: &quot;Helvetica Neue&quot;, sans-serif; font-size: 12px; font-weight: 200;" x="112.5083327293396" y="0" dx="0em" dy="0.95em" fill="rgb(50, 49, 63)" stroke="none" stroke-width="1px">40</text><text style="text-anchor: middle; visibility: hidden; font-family: &quot;Helvetica Neue&quot;, sans-serif; font-size: 12px; font-weight: 200;" x="135.00999927520752" y="0" dx="0em" dy="0.95em" fill="rgb(50, 49, 63)" stroke="none" stroke-width="1px">50</text><text style="text-anchor: middle; visibility: hidden; font-family: &quot;Helvetica Neue&quot;, sans-serif; font-size: 12px; font-weight: 200;" x="157.51166582107544" y="0" dx="0em" dy="0.95em" fill="rgb(50, 49, 63)" stroke="none" stroke-width="1px">60</text><text style="text-anchor: middle; visibility: hidden; font-family: &quot;Helvetica Neue&quot;, sans-serif; font-size: 12px; font-weight: 200;" x="180.01333236694336" y="0" dx="0em" dy="0.95em" fill="rgb(50, 49, 63)" stroke="none" stroke-width="1px">70</text><text style="text-anchor: middle; visibility: hidden; font-family: &quot;Helvetica Neue&quot;, sans-serif; font-size: 12px; font-weight: 200;" x="202.51499891281128" y="0" dx="0em" dy="0.95em" fill="rgb(50, 49, 63)" stroke="none" stroke-width="1px">80</text><text style="text-anchor: middle; visibility: hidden; font-family: &quot;Helvetica Neue&quot;, sans-serif; font-size: 12px; font-weight: 200;" x="225.0166654586792" y="0" dx="0em" dy="0.95em" fill="rgb(50, 49, 63)" stroke="none" stroke-width="1px">90</text><text style="text-anchor: middle; visibility: hidden; font-family: &quot;Helvetica Neue&quot;, sans-serif; font-size: 12px; font-weight: 200;" x="247.51833200454712" y="0" dx="0em" dy="0.95em" fill="rgb(50, 49, 63)" stroke="none" stroke-width="1px">100</text><text style="text-anchor: middle; visibility: hidden; font-family: &quot;Helvetica Neue&quot;, sans-serif; font-size: 12px; font-weight: 200;" x="270.01999855041504" y="0" dx="0em" dy="0.95em" fill="rgb(50, 49, 63)" stroke="none" stroke-width="1px">110</text></g><line x1="0" y1="0" x2="270.01999855041504" y2="0" fill="rgb(0, 0, 0)" stroke="rgb(204, 204, 204)" stroke-width="1px"></line></g></g></g></g></svg>