<svg viewBox="0 0 1971.25 400" xmlns="http://www.w3.org/2000/svg"><g><g><g><g><g><line x1="29.992000579833984" y1="378.57499980926514" x2="24.992000579833984" y2="378.57499980926514" style="visibility: inherit;" fill="rgb(0, 0, 0)" stroke="rgb(204, 204, 204)" stroke-width="1px"></line><line x1="29.992000579833984" y1="336.51111094156903" x2="24.992000579833984" y2="336.51111094156903" style="visibility: inherit;" fill="rgb(0, 0, 0)" stroke="rgb(204, 204, 204)" stroke-width="1px"></line><line x1="29.992000579833984" y1="294.4472220738729" x2="24.992000579833984" y2="294.4472220738729" style="visibility: inherit;" fill="rgb(0, 0, 0)" stroke="rgb(204, 204, 204)" stroke-width="1px"></line><line x1="29.992000579833984" y1="252.38333320617676" x2="24.992000579833984" y2="252.38333320617676" style="visibility: inherit;" fill="rgb(0, 0, 0)" stroke="rgb(204, 204, 204)" stroke-width="1px"></line><line x1="29.992000579833984" y1="210.31944433848065" x2="24.992000579833984" y2="210.31944433848065" style="visibility: inherit;" fill="rgb(0, 0, 0)" stroke="rgb(204, 204, 204)" stroke-width="1px"></line><line x1="29.992000579833984" y1="168.2555554707845" x2="24.992000579833984" y2="168.2555554707845" style="visibility: inherit;" fill="rgb(0, 0, 0)" stroke="rgb(204, 204, 204)" stroke-width="1px"></line><line x1="29.992000579833984" y1="126.19166660308838" x2="24.992000579833984" y2="126.19166660308838" style="visibility: inherit;" fill="rgb(0, 0, 0)" stroke="rgb(204, 204, 204)" stroke-width="1px"></line><line x1="29.992000579833984" y1="84.12777773539227" x2="24.992000579833984" y2="84.12777773539227" style="visibility: inherit;" fill="rgb(0, 0, 0)" stroke="rgb(204, 204, 204)" stroke-width="1px"></line><line x1="29.992000579833984" y1="42.063888867696164" x2="24.992000579833984" y2="42.063888867696164" style="visibility: inherit;" fill="rgb(0, 0, 0)" stroke="rgb(204, 204, 204)" stroke-width="1px"></line><line x1="29.992000579833984" y1="0" x2="24.992000579833984" y2="0" style="visibility: inherit;" fill="rgb(0, 0, 0)" stroke="rgb(204, 204, 204)" stroke-width="1px"></line></g><g transform="translate(19.992000579833984, 0)"><text style="text-anchor: end; visibility: hidden; font-family: &quot;Helvetica Neue&quot;, sans-serif; font-size: 12px; font-weight: 200;" x="0" y="378.57499980926514" dx="0em" dy="0.3em" fill="rgb(50, 49, 63)" stroke="none" stroke-width="1px">-1</text><text style="text-anchor: end; visibility: inherit; font-family: &quot;Helvetica Neue&quot;, sans-serif; font-size: 12px; font-weight: 200;" x="0" y="336.51111094156903" dx="0em" dy="0.3em" fill="rgb(50, 49, 63)" stroke="none" stroke-width="1px">0</text><text style="text-anchor: end; visibility: inherit; font-family: &quot;Helvetica Neue&quot;, sans-serif; font-size: 12px; font-weight: 200;" x="0" y="294.4472220738729" dx="0em" dy="0.3em" fill="rgb(50, 49, 63)" stroke="none" stroke-width="1px">1</text><text style="text-anchor: end; visibility: inherit; font-family: &quot;Helvetica Neue&quot;, sans-serif; font-size: 12px; font-weight: 200;" x="0" y="252.38333320617676" dx="0em" dy="0.3em" fill="rgb(50, 49, 63)" stroke="none" stroke-width="1px">2</text><text style="text-anchor: end; visibility: inherit; font-family: &quot;Helvetica Neue&quot;, sans-serif; font-size: 12px; font-weight: 200;" x="0" y="210.31944433848065" dx="0em" dy="0.3em" fill="rgb(50, 49, 63)" stroke="none" stroke-width="1px">3</text><text style="text-anchor: end; visibility: inherit; font-family: &quot;Helvetica Neue&quot;, sans-serif; font-size: 12px; font-weight: 200;" x="0" y="168.2555554707845" dx="0em" dy="0.3em" fill="rgb(50, 49, 63)" stroke="none" stroke-width="1px">4</text><text style="text-anchor: end; visibility: inherit; font-family: &quot;Helvetica Neue&quot;, sans-serif; font-size: 12px; font-weight: 200;" x="0" y="126.19166660308838" dx="0em" dy="0.3em" fill="rgb(50, 49, 63)" stroke="none" stroke-width="1px">5</text><text style="text-anchor: end; visibility: inherit; font-family: &quot;Helvetica Neue&quot;, sans-serif; font-size: 12px; font-weight: 200;" x="0" y="84.12777773539227" dx="0em" dy="0.3em" fill="rgb(50, 49, 63)" stroke="none" stroke-width="1px">6</text><text style="text-anchor: end; visibility: inherit; font-family: &quot;Helvetica Neue&quot;, sans-serif; font-size: 12px; font-weight: 200;" x="0" y="42.063888867696164" dx="0em" dy="0.3em" fill="rgb(50, 49, 63)" stroke="none" stroke-width="1px">7</text><text style="text-anchor: end; visibility: hidden; font-family: &quot;Helvetica Neue&quot;, sans-serif; font-size: 12px; font-weight: 200;" x="0" y="0" dx="0em" dy="0.3em" fill="rgb(50, 49, 63)" stroke="none" stroke-width="1px">8</text></g><line x1="29.992000579833984" y1="0" x2="29.992000579833984" y2="378.57499980926514" fill="rgb(0, 0, 0)" stroke="rgb(204, 204, 204)" stroke-width="1px"></line></g></g><g transform="translate(30, 0)" clip-path="url(#clip_0)"><clipPath id="clip_0"><rect width="1941" height="378"></rect></clipPath><g><g><g><line x1="0" y1="0" x2="0" y2="378.57499980926514" fill="rgb(0, 0, 0)" stroke="rgb(60, 60, 60)" stroke-width="1px" opacity="0.25"></line><line x1="149.32753841693585" y1="0" x2="149.32753841693585" y2="378.57499980926514" fill="rgb(0, 0, 0)" stroke="rgb(60, 60, 60)" stroke-width="1px" opacity="0.25"></line><line x1="298.6550768338717" y1="0" x2="298.6550768338717" y2="378.57499980926514" fill="rgb(0, 0, 0)" stroke="rgb(60, 60, 60)" stroke-width="1px" opacity="0.25"></line><line x1="447.98261525080756" y1="0" x2="447.98261525080756" y2="378.57499980926514" fill="rgb(0, 0, 0)" stroke="rgb(60, 60, 60)" stroke-width="1px" opacity="0.25"></line><line x1="597.3101536677434" y1="0" x2="597.3101536677434" y2="378.57499980926514" fill="rgb(0, 0, 0)" stroke="rgb(60, 60, 60)" stroke-width="1px" opacity="0.25"></line><line x1="746.6376920846793" y1="0" x2="746.6376920846793" y2="378.57499980926514" fill="rgb(0, 0, 0)" stroke="rgb(60, 60, 60)" stroke-width="1px" opacity="0.25"></line><line x1="895.9652305016151" y1="0" x2="895.9652305016151" y2="378.57499980926514" fill="rgb(0, 0, 0)" stroke="rgb(60, 60, 60)" stroke-width="1px" opacity="0.25"></line><line x1="1045.2927689185508" y1="0" x2="1045.2927689185508" y2="378.57499980926514" fill="rgb(0, 0, 0)" stroke="rgb(60, 60, 60)" stroke-width="1px" opacity="0.25"></line><line x1="1194.6203073354868" y1="0" x2="1194.6203073354868" y2="378.57499980926514" fill="rgb(0, 0, 0)" stroke="rgb(60, 60, 60)" stroke-width="1px" opacity="0.25"></line><line x1="1343.9478457524226" y1="0" x2="1343.9478457524226" y2="378.57499980926514" fill="rgb(0, 0, 0)" stroke="rgb(60, 60, 60)" stroke-width="1px" opacity="0.25"></line><line x1="1493.2753841693586" y1="0" x2="1493.2753841693586" y2="378.57499980926514" fill="rgb(0, 0, 0)" stroke="rgb(60, 60, 60)" stroke-width="1px" opacity="0.25"></line><line x1="1642.6029225862942" y1="0" x2="1642.6029225862942" y2="378.57499980926514" fill="rgb(0, 0, 0)" stroke="rgb(60, 60, 60)" stroke-width="1px" opacity="0.25"></line><line x1="1791.9304610032302" y1="0" x2="1791.9304610032302" y2="378.57499980926514" fill="rgb(0, 0, 0)" stroke="rgb(60, 60, 60)" stroke-width="1px" opacity="0.25"></line><line x1="1941.257999420166" y1="0" x2="1941.257999420166" y2="378.57499980926514" fill="rgb(0, 0, 0)" stroke="rgb(60, 60, 60)" stroke-width="1px" opacity="0.25"></line></g><g><line x1="0" y1="378.57499980926514" x2="1941.257999420166" y2="378.57499980926514" fill="rgb(0, 0, 0)" stroke="rgb(60, 60, 60)" stroke-width="1px" opacity="0.25"></line><line x1="0" y1="336.51111094156903" x2="1941.257999420166" y2="336.51111094156903" fill="rgb(0, 0, 0)" stroke="rgb(60, 60, 60)" stroke-width="1px" opacity="0.25"></line><line x1="0" y1="294.4472220738729" x2="1941.257999420166" y2="294.4472220738729" fill="rgb(0, 0, 0)" stroke="rgb(60, 60, 60)" stroke-width="1px" opacity="0.25"></line><line x1="0" y1="252.38333320617676" x2="1941.257999420166" y2="252.38333320617676" fill="rgb(0, 0, 0)" stroke="rgb(60, 60, 60)" stroke-width="1px" opacity="0.25"></line><line x1="0" y1="210.31944433848065" x2="1941.257999420166" y2="210.31944433848065" fill="rgb(0, 0, 0)" stroke="rgb(60, 60, 60)" stroke-width="1px" opacity="0.25"></line><line x1="0" y1="168.2555554707845" x2="1941.257999420166" y2="168.2555554707845" fill="rgb(0, 0, 0)" stroke="rgb(60, 60, 60)" stroke-width="1px" opacity="0.25"></line><line x1="0" y1="126.19166660308838" x2="1941.257999420166" y2="126.19166660308838" fill="rgb(0, 0, 0)" stroke="rgb(60, 60, 60)" stroke-width="1px" opacity="0.25"></line><line x1="0" y1="84.12777773539227" x2="1941.257999420166" y2="84.12777773539227" fill="rgb(0, 0, 0)" stroke="rgb(60, 60, 60)" stroke-width="1px" opacity="0.25"></line><line x1="0" y1="42.063888867696164" x2="1941.257999420166" y2="42.063888867696164" fill="rgb(0, 0, 0)" stroke="rgb(60, 60, 60)" stroke-width="1px" opacity="0.25"></line><line x1="0" y1="0" x2="1941.257999420166" y2="0" fill="rgb(0, 0, 0)" stroke="rgb(60, 60, 60)" stroke-width="1px" opacity="0.25"></line></g></g></g><g><g><line x1="0" y1="336.51111094156903" x2="1941.257999420166" y2="336.51111094156903" fill="rgb(0, 0, 0)" stroke="rgb(153, 153, 153)" stroke-width="1.5px"></line></g></g><g><g><line x1="149.32753841693585" y1="0" x2="149.32753841693585" y2="378.57499980926514" fill="rgb(0, 0, 0)" stroke="rgb(153, 153, 153)" stroke-width="1.5px"></line></g></g><g><g><g><g><g><path style="fill: none;" stroke="rgb(0, 119, 187)" stroke-width="2px" d="M149.32753841693585,13.77948824532649L164.26029225862945,45.164557036850965L179.19304610032302,48.25844572867783L194.1257999420166,52.165450489729835L209.0585537837102,58.176881232355754L223.99130762540378,63.111518364474534L238.92406146709737,59.323154456661825L253.85681530879094,67.02839147713996L268.78956915048457,71.86251984922802L283.72232299217814,76.41499904782734L298.6550768338717,80.17895282573443L313.58783067556527,83.23932522580083L328.5205845172589,86.32406764052257L343.45333835895246,88.76991451877257L358.38609220064603,90.90210025366576L373.31884604233966,92.83603642077924L388.2515998840332,95.93487934603809L403.1843537257268,98.94693292692398L418.1171075674204,101.71081351083103L433.049861409114,104.44713491767124L447.98261525080756,106.35353196534305L462.9153690925012,108.2745710794332L477.84812293419475,108.77819799134943L492.78087677588826,106.92569578267239L507.7136306175819,111.63492532244919L522.6463844592754,114.93921850294555L537.5791383009691,117.15358032840868L552.5118921426626,119.23758764749789L567.4446459843563,121.1134369319434L582.3773998260498,123.29207612687074L597.3101536677434,125.42386070925932L612.2429075094369,126.7367125111059L627.1756613511305,124.54371205651341L642.1084151928242,127.92406375188438L657.0411690345178,130.42418656400847L671.9739228762113,132.53340631801257L686.9066767179049,134.34998531990158L701.8394305595984,136.1823095575966L716.7721844012921,138.06018466219047L731.7049382429857,139.52401020914812L746.6376920846793,141.1810308023273L761.5704459263728,142.69626404275112L776.5031997680665,144.22862649512186L791.43595360976,145.61298373091572L806.3687074514536,147.07472328484937L821.3014612931471,148.37584137593603L836.2342151348408,149.74108369488508L851.1669689765343,150.99661080382248" fill="none"></path></g><g><path style="fill: none;" stroke="rgb(0, 153, 136)" stroke-width="2px" d="M149.32753841693585,-9.891417882492249L164.26029225862945,45.59926594847474L179.19304610032302,50.36339320850783L194.1257999420166,52.821314777146654L209.0585537837102,55.893360715097344L223.99130762540378,58.250332255950354L238.92406146709737,59.60937676870316L253.85681530879094,60.70608760106427L268.78956915048457,61.65354964408425L283.72232299217814,62.95789701283303L298.6550768338717,65.19538528018711L313.58783067556527,67.4346586761867L328.5205845172589,69.28050175328724L343.45333835895246,71.45705495519053L358.38609220064603,74.33847322294923L373.31884604233966,77.14581868073111L388.2515998840332,80.32216426988117L403.1843537257268,83.12944955478741L418.1171075674204,85.90899514399962L433.049861409114,88.28602431008329L447.98261525080756,90.81137961474752L462.9153690925012,93.36216798820425L477.84812293419475,95.53298470929167L492.78087677588826,97.86536560161193L507.7136306175819,100.27946125912177L522.6463844592754,102.69305547600095L537.5791383009691,104.98939281578168L552.5118921426626,107.273254312669L567.4446459843563,109.43971852908135L582.3773998260498,111.78078437312644L597.3101536677434,113.6917144441004L612.2429075094369,115.6557370490599L627.1756613511305,117.50894127462004L642.1084151928242,119.47500975735295L657.0411690345178,121.60884021751508L671.9739228762113,123.47113054730471L686.9066767179049,125.15883930708682L701.8394305595984,127.09670676874552L716.7721844012921,129.1485416569647L731.7049382429857,130.92484494739057L746.6376920846793,132.8839333765433L761.5704459263728,134.66005614834208L776.5031997680665,136.54820075705402L791.43595360976,138.33344974833275L806.3687074514536,140.1013288361617L821.3014612931471,142.17181731584546L836.2342151348408,143.76499448791552L851.1669689765343,145.8822573496371L866.099722818228,147.8375950028717L881.0324766599215,149.7060831388576L895.9652305016151,151.70572808622669L910.8979843433086,153.27244925061754L925.8307381850024,154.8065767740086L940.7634920266959,157.05383310484996L955.6962458683895,158.8875814339364L970.628999710083,160.50587075279526L985.5617535517765,162.56875739251655L1000.49450739347,163.9554814280876L1015.4272612351638,165.85223075802347L1030.3600150768573,167.21390281968146L1045.2927689185508,169.01299157236934L1060.2255227602443,170.66931014866546L1075.1582766019383,172.2487077322021L1090.0910304436318,173.75136484160626L1105.0237842853253,175.67754873656813L1119.9565381270188,176.88909950218735L1134.8892919687125,178.33615687445217L1149.822045810406,180.0022234566104L1164.7547996520996,181.5916799392002L1179.687553493793,182.91119087262337L1194.6203073354868,184.3316819202702L1209.5530611771803,185.77441687429786L1224.4858150188738,187.0225126330873L1239.4185688605673,188.2646813636211L1254.351322702261,189.76713789677297L1269.2840765439548,191.40578570524093L1284.2168303856483,192.48889746769572L1299.1495842273418,193.98150570685934L1314.0823380690356,194.7918036797395L1329.015091910729,196.23568191840528L1343.9478457524226,197.40043824436142L1358.8805995941161,199.1544976284065L1373.8133534358099,200.22954622551856L1388.7461072775034,201.39692007156728L1403.6788611191969,202.4738942007015L1418.6116149608904,203.38272525752723L1433.5443688025841,204.52129635374473L1448.4771226442776,206.04667875253523L1463.4098764859714,207.04281062317736L1478.342630327665,208.31272907821773L1493.2753841693586,209.23252162723202L1508.2081380110521,210.39164176049835L1523.1408918527457,211.22534698202267L1538.0736456944392,212.74787116921783L1553.006399536133,213.59837465187283L1567.9391533778264,214.54381087474448L1582.87190721952,215.39691181986683L1597.8046610612134,216.5804019677884L1612.7374149029072,217.40906269656722L1627.6701687446007,218.2792527383861L1642.6029225862942,219.26763233687657L1657.535676427988,220.31689685675465L1672.4684302696817,220.95540126953438L1687.4011841113752,222.284910929135L1702.3339379530687,223.11513615268186L1717.2666917947622,223.62647522149928L1732.199445636456,224.63357861314256L1747.1321994781495,225.25348960733345L1762.064953319843,226.1050160288752L1776.9977071615365,226.93030707661532L1791.9304610032302,227.91602903976272L1806.8632148449237,228.87357003946104L1821.7959686866172,229.5552886058002L1836.7287225283108,230.26541879827852" fill="none"></path></g><g><path style="fill: none;" stroke="rgb(51, 187, 238)" stroke-width="2px" d="M149.32753841693585,44.823958502809376L164.26029225862945,75.08379451889476L179.19304610032302,93.47316688623067L194.1257999420166,109.98067268155182L209.0585537837102,126.08724660613765L223.99130762540378,142.1038420239388L238.92406146709737,156.55477933148632L253.85681530879094,174.36311238232832L268.78956915048457,189.6115107826084L283.72232299217814,203.62844119541523L298.6550768338717,217.74477719886514L313.58783067556527,231.7749857595747L328.5205845172589,245.6845577333345L343.45333835895246,258.6359318201697L358.38609220064603,269.7172783482825L373.31884604233966,279.04014780039313L388.2515998840332,286.44830130476765L403.1843537257268,292.3601108372793L418.1171075674204,296.8841006864416L433.049861409114,300.7226061501278L447.98261525080756,303.66297628564246" fill="none"></path></g><g><path style="fill: none;" stroke="rgb(255, 112, 67)" stroke-width="2px" d="M149.32753841693585,44.89375903861202L164.26029225862945,70.69582796243714L179.19304610032302,92.79676359057765L194.1257999420166,113.1642991886606L209.0585537837102,132.90048091735858L223.99130762540378,152.91566421301482L238.92406146709737,173.81730428455202L253.85681530879094,195.84622300930187L268.78956915048457,220.02361426063217L283.72232299217814,244.53720139726596L298.6550768338717,266.52441029034867L313.58783067556527,285.02533314040477L328.5205845172589,298.5094377533659L343.45333835895246,308.60009053447726L358.38609220064603,315.1126409858656" fill="none"></path></g><g><path style="fill: none;" stroke="rgb(204, 51, 17)" stroke-width="2px" d="M149.32753841693585,54.96631733456218L164.26029225862945,75.52576429085195L179.19304610032302,76.76093291018032L194.1257999420166,84.12280344433503L209.0585537837102,91.4411288741141L223.99130762540378,98.3742676689638L238.92406146709737,106.92655826055733L253.85681530879094,118.39496681155845L268.78956915048457,131.14626107231166L283.72232299217814,145.5058358969336L298.6550768338717,162.1540058179973L313.58783067556527,179.85739737363252L328.5205845172589,198.63295925715926L343.45333835895246,219.36703792751968L358.38609220064603,236.3723739810654L373.31884604233966,252.15458601923388L388.2515998840332,269.9376013326285L403.1843537257268,282.63824507526795L418.1171075674204,294.55345979311016L433.049861409114,302.9841761037744L447.98261525080756,310.1529217933959L462.9153690925012,316.0187141192221L477.84812293419475,318.5070543301248L492.78087677588826,321.179828165828L507.7136306175819,324.7380571497522L522.6463844592754,325.0256032650587L537.5791383009691,327.35367239475516L552.5118921426626,326.84882259450063L567.4446459843563,327.7156636397068L582.3773998260498,328.6213136825311L597.3101536677434,329.3573263599672L612.2429075094369,330.86161565862454L627.1756613511305,330.4690559660206L642.1084151928242,330.3510055591241L657.0411690345178,330.78770080244647L671.9739228762113,331.2208558749156L686.9066767179049,331.7981494298977L701.8394305595984,331.410174471661L716.7721844012921,332.24096193551503L731.7049382429857,332.26111232726237L746.6376920846793,332.81350308691907L761.5704459263728,333.47376782927125L776.5031997680665,333.60140045322134L791.43595360976,333.340421602734L806.3687074514536,333.75970212635025L821.3014612931471,334.259989757066L836.2342151348408,335.00211781639473" fill="none"></path></g></g></g></g></g></g><g transform="translate(30, 378)" clip-path="url(#clip_1)"><clipPath id="clip_1"><rect width="1941" height="21"></rect></clipPath><g><g><line x1="0" y1="0" x2="0" y2="5" style="visibility: inherit;" fill="rgb(0, 0, 0)" stroke="rgb(204, 204, 204)" stroke-width="1px"></line><line x1="149.32753841693585" y1="0" x2="149.32753841693585" y2="5" style="visibility: inherit;" fill="rgb(0, 0, 0)" stroke="rgb(204, 204, 204)" stroke-width="1px"></line><line x1="298.6550768338717" y1="0" x2="298.6550768338717" y2="5" style="visibility: inherit;" fill="rgb(0, 0, 0)" stroke="rgb(204, 204, 204)" stroke-width="1px"></line><line x1="447.98261525080756" y1="0" x2="447.98261525080756" y2="5" style="visibility: inherit;" fill="rgb(0, 0, 0)" stroke="rgb(204, 204, 204)" stroke-width="1px"></line><line x1="597.3101536677434" y1="0" x2="597.3101536677434" y2="5" style="visibility: inherit;" fill="rgb(0, 0, 0)" stroke="rgb(204, 204, 204)" stroke-width="1px"></line><line x1="746.6376920846793" y1="0" x2="746.6376920846793" y2="5" style="visibility: inherit;" fill="rgb(0, 0, 0)" stroke="rgb(204, 204, 204)" stroke-width="1px"></line><line x1="895.9652305016151" y1="0" x2="895.9652305016151" y2="5" style="visibility: inherit;" fill="rgb(0, 0, 0)" stroke="rgb(204, 204, 204)" stroke-width="1px"></line><line x1="1045.2927689185508" y1="0" x2="1045.2927689185508" y2="5" style="visibility: inherit;" fill="rgb(0, 0, 0)" stroke="rgb(204, 204, 204)" stroke-width="1px"></line><line x1="1194.6203073354868" y1="0" x2="1194.6203073354868" y2="5" style="visibility: inherit;" fill="rgb(0, 0, 0)" stroke="rgb(204, 204, 204)" stroke-width="1px"></line><line x1="1343.9478457524226" y1="0" x2="1343.9478457524226" y2="5" style="visibility: inherit;" fill="rgb(0, 0, 0)" stroke="rgb(204, 204, 204)" stroke-width="1px"></line><line x1="1493.2753841693586" y1="0" x2="1493.2753841693586" y2="5" style="visibility: inherit;" fill="rgb(0, 0, 0)" stroke="rgb(204, 204, 204)" stroke-width="1px"></line><line x1="1642.6029225862942" y1="0" x2="1642.6029225862942" y2="5" style="visibility: inherit;" fill="rgb(0, 0, 0)" stroke="rgb(204, 204, 204)" stroke-width="1px"></line><line x1="1791.9304610032302" y1="0" x2="1791.9304610032302" y2="5" style="visibility: inherit;" fill="rgb(0, 0, 0)" stroke="rgb(204, 204, 204)" stroke-width="1px"></line><line x1="1941.257999420166" y1="0" x2="1941.257999420166" y2="5" style="visibility: inherit;" fill="rgb(0, 0, 0)" stroke="rgb(204, 204, 204)" stroke-width="1px"></line></g><g transform="translate(0, 8)"><text style="text-anchor: middle; visibility: hidden; font-family: &quot;Helvetica Neue&quot;, sans-serif; font-size: 12px; font-weight: 200;" x="0" y="0" dx="0em" dy="0.95em" fill="rgb(50, 49, 63)" stroke="none" stroke-width="1px">-10</text><text style="text-anchor: middle; visibility: hidden; font-family: &quot;Helvetica Neue&quot;, sans-serif; font-size: 12px; font-weight: 200;" x="149.32753841693585" y="0" dx="0em" dy="0.95em" fill="rgb(50, 49, 63)" stroke="none" stroke-width="1px">0</text><text style="text-anchor: middle; visibility: hidden; font-family: &quot;Helvetica Neue&quot;, sans-serif; font-size: 12px; font-weight: 200;" x="298.6550768338717" y="0" dx="0em" dy="0.95em" fill="rgb(50, 49, 63)" stroke="none" stroke-width="1px">10</text><text style="text-anchor: middle; visibility: hidden; font-family: &quot;Helvetica Neue&quot;, sans-serif; font-size: 12px; font-weight: 200;" x="447.98261525080756" y="0" dx="0em" dy="0.95em" fill="rgb(50, 49, 63)" stroke="none" stroke-width="1px">20</text><text style="text-anchor: middle; visibility: hidden; font-family: &quot;Helvetica Neue&quot;, sans-serif; font-size: 12px; font-weight: 200;" x="597.3101536677434" y="0" dx="0em" dy="0.95em" fill="rgb(50, 49, 63)" stroke="none" stroke-width="1px">30</text><text style="text-anchor: middle; visibility: hidden; font-family: &quot;Helvetica Neue&quot;, sans-serif; font-size: 12px; font-weight: 200;" x="746.6376920846793" y="0" dx="0em" dy="0.95em" fill="rgb(50, 49, 63)" stroke="none" stroke-width="1px">40</text><text style="text-anchor: middle; visibility: hidden; font-family: &quot;Helvetica Neue&quot;, sans-serif; font-size: 12px; font-weight: 200;" x="895.9652305016151" y="0" dx="0em" dy="0.95em" fill="rgb(50, 49, 63)" stroke="none" stroke-width="1px">50</text><text style="text-anchor: middle; visibility: hidden; font-family: &quot;Helvetica Neue&quot;, sans-serif; font-size: 12px; font-weight: 200;" x="1045.2927689185508" y="0" dx="0em" dy="0.95em" fill="rgb(50, 49, 63)" stroke="none" stroke-width="1px">60</text><text style="text-anchor: middle; visibility: hidden; font-family: &quot;Helvetica Neue&quot;, sans-serif; font-size: 12px; font-weight: 200;" x="1194.6203073354868" y="0" dx="0em" dy="0.95em" fill="rgb(50, 49, 63)" stroke="none" stroke-width="1px">70</text><text style="text-anchor: middle; visibility: hidden; font-family: &quot;Helvetica Neue&quot;, sans-serif; font-size: 12px; font-weight: 200;" x="1343.9478457524226" y="0" dx="0em" dy="0.95em" fill="rgb(50, 49, 63)" stroke="none" stroke-width="1px">80</text><text style="text-anchor: middle; visibility: hidden; font-family: &quot;Helvetica Neue&quot;, sans-serif; font-size: 12px; font-weight: 200;" x="1493.2753841693586" y="0" dx="0em" dy="0.95em" fill="rgb(50, 49, 63)" stroke="none" stroke-width="1px">90</text><text style="text-anchor: middle; visibility: hidden; font-family: &quot;Helvetica Neue&quot;, sans-serif; font-size: 12px; font-weight: 200;" x="1642.6029225862942" y="0" dx="0em" dy="0.95em" fill="rgb(50, 49, 63)" stroke="none" stroke-width="1px">100</text><text style="text-anchor: middle; visibility: hidden; font-family: &quot;Helvetica Neue&quot;, sans-serif; font-size: 12px; font-weight: 200;" x="1791.9304610032302" y="0" dx="0em" dy="0.95em" fill="rgb(50, 49, 63)" stroke="none" stroke-width="1px">110</text><text style="text-anchor: middle; visibility: hidden; font-family: &quot;Helvetica Neue&quot;, sans-serif; font-size: 12px; font-weight: 200;" x="1941.257999420166" y="0" dx="0em" dy="0.95em" fill="rgb(50, 49, 63)" stroke="none" stroke-width="1px">120</text></g><line x1="0" y1="0" x2="1941.257999420166" y2="0" fill="rgb(0, 0, 0)" stroke="rgb(204, 204, 204)" stroke-width="1px"></line></g></g></g></g></svg>