<svg viewBox="0 0 1971.25 400" xmlns="http://www.w3.org/2000/svg"><g><g><g><g><g><line x1="49.98400115966797" y1="378.57499980926514" x2="44.98400115966797" y2="378.57499980926514" style="visibility: inherit;" fill="rgb(0, 0, 0)" stroke="rgb(204, 204, 204)" stroke-width="1px"></line><line x1="49.98400115966797" y1="349.4538459777832" x2="44.98400115966797" y2="349.4538459777832" style="visibility: inherit;" fill="rgb(0, 0, 0)" stroke="rgb(204, 204, 204)" stroke-width="1px"></line><line x1="49.98400115966797" y1="320.33269214630127" x2="44.98400115966797" y2="320.33269214630127" style="visibility: inherit;" fill="rgb(0, 0, 0)" stroke="rgb(204, 204, 204)" stroke-width="1px"></line><line x1="49.98400115966797" y1="291.21153831481934" x2="44.98400115966797" y2="291.21153831481934" style="visibility: inherit;" fill="rgb(0, 0, 0)" stroke="rgb(204, 204, 204)" stroke-width="1px"></line><line x1="49.98400115966797" y1="262.0903844833374" x2="44.98400115966797" y2="262.0903844833374" style="visibility: inherit;" fill="rgb(0, 0, 0)" stroke="rgb(204, 204, 204)" stroke-width="1px"></line><line x1="49.98400115966797" y1="232.96923065185547" x2="44.98400115966797" y2="232.96923065185547" style="visibility: inherit;" fill="rgb(0, 0, 0)" stroke="rgb(204, 204, 204)" stroke-width="1px"></line><line x1="49.98400115966797" y1="203.84807682037354" x2="44.98400115966797" y2="203.84807682037354" style="visibility: inherit;" fill="rgb(0, 0, 0)" stroke="rgb(204, 204, 204)" stroke-width="1px"></line><line x1="49.98400115966797" y1="174.7269229888916" x2="44.98400115966797" y2="174.7269229888916" style="visibility: inherit;" fill="rgb(0, 0, 0)" stroke="rgb(204, 204, 204)" stroke-width="1px"></line><line x1="49.98400115966797" y1="145.6057691574097" x2="44.98400115966797" y2="145.6057691574097" style="visibility: inherit;" fill="rgb(0, 0, 0)" stroke="rgb(204, 204, 204)" stroke-width="1px"></line><line x1="49.98400115966797" y1="116.48461532592773" x2="44.98400115966797" y2="116.48461532592773" style="visibility: inherit;" fill="rgb(0, 0, 0)" stroke="rgb(204, 204, 204)" stroke-width="1px"></line><line x1="49.98400115966797" y1="87.3634614944458" x2="44.98400115966797" y2="87.3634614944458" style="visibility: inherit;" fill="rgb(0, 0, 0)" stroke="rgb(204, 204, 204)" stroke-width="1px"></line><line x1="49.98400115966797" y1="58.24230766296387" x2="44.98400115966797" y2="58.24230766296387" style="visibility: inherit;" fill="rgb(0, 0, 0)" stroke="rgb(204, 204, 204)" stroke-width="1px"></line><line x1="49.98400115966797" y1="29.121153831481934" x2="44.98400115966797" y2="29.121153831481934" style="visibility: inherit;" fill="rgb(0, 0, 0)" stroke="rgb(204, 204, 204)" stroke-width="1px"></line><line x1="49.98400115966797" y1="0" x2="44.98400115966797" y2="0" style="visibility: inherit;" fill="rgb(0, 0, 0)" stroke="rgb(204, 204, 204)" stroke-width="1px"></line></g><g transform="translate(39.98400115966797, 0)"><text style="text-anchor: end; visibility: hidden; font-family: &quot;Helvetica Neue&quot;, sans-serif; font-size: 12px; font-weight: 200;" x="0" y="378.57499980926514" dx="0em" dy="0.3em" fill="rgb(50, 49, 63)" stroke="none" stroke-width="1px">-0.1</text><text style="text-anchor: end; visibility: inherit; font-family: &quot;Helvetica Neue&quot;, sans-serif; font-size: 12px; font-weight: 200;" x="0" y="349.4538459777832" dx="0em" dy="0.3em" fill="rgb(50, 49, 63)" stroke="none" stroke-width="1px">0</text><text style="text-anchor: end; visibility: inherit; font-family: &quot;Helvetica Neue&quot;, sans-serif; font-size: 12px; font-weight: 200;" x="0" y="320.33269214630127" dx="0em" dy="0.3em" fill="rgb(50, 49, 63)" stroke="none" stroke-width="1px">0.1</text><text style="text-anchor: end; visibility: inherit; font-family: &quot;Helvetica Neue&quot;, sans-serif; font-size: 12px; font-weight: 200;" x="0" y="291.21153831481934" dx="0em" dy="0.3em" fill="rgb(50, 49, 63)" stroke="none" stroke-width="1px">0.2</text><text style="text-anchor: end; visibility: inherit; font-family: &quot;Helvetica Neue&quot;, sans-serif; font-size: 12px; font-weight: 200;" x="0" y="262.0903844833374" dx="0em" dy="0.3em" fill="rgb(50, 49, 63)" stroke="none" stroke-width="1px">0.3</text><text style="text-anchor: end; visibility: inherit; font-family: &quot;Helvetica Neue&quot;, sans-serif; font-size: 12px; font-weight: 200;" x="0" y="232.96923065185547" dx="0em" dy="0.3em" fill="rgb(50, 49, 63)" stroke="none" stroke-width="1px">0.4</text><text style="text-anchor: end; visibility: inherit; font-family: &quot;Helvetica Neue&quot;, sans-serif; font-size: 12px; font-weight: 200;" x="0" y="203.84807682037354" dx="0em" dy="0.3em" fill="rgb(50, 49, 63)" stroke="none" stroke-width="1px">0.5</text><text style="text-anchor: end; visibility: inherit; font-family: &quot;Helvetica Neue&quot;, sans-serif; font-size: 12px; font-weight: 200;" x="0" y="174.7269229888916" dx="0em" dy="0.3em" fill="rgb(50, 49, 63)" stroke="none" stroke-width="1px">0.6</text><text style="text-anchor: end; visibility: inherit; font-family: &quot;Helvetica Neue&quot;, sans-serif; font-size: 12px; font-weight: 200;" x="0" y="145.6057691574097" dx="0em" dy="0.3em" fill="rgb(50, 49, 63)" stroke="none" stroke-width="1px">0.7</text><text style="text-anchor: end; visibility: inherit; font-family: &quot;Helvetica Neue&quot;, sans-serif; font-size: 12px; font-weight: 200;" x="0" y="116.48461532592773" dx="0em" dy="0.3em" fill="rgb(50, 49, 63)" stroke="none" stroke-width="1px">0.8</text><text style="text-anchor: end; visibility: inherit; font-family: &quot;Helvetica Neue&quot;, sans-serif; font-size: 12px; font-weight: 200;" x="0" y="87.3634614944458" dx="0em" dy="0.3em" fill="rgb(50, 49, 63)" stroke="none" stroke-width="1px">0.9</text><text style="text-anchor: end; visibility: inherit; font-family: &quot;Helvetica Neue&quot;, sans-serif; font-size: 12px; font-weight: 200;" x="0" y="58.24230766296387" dx="0em" dy="0.3em" fill="rgb(50, 49, 63)" stroke="none" stroke-width="1px">1</text><text style="text-anchor: end; visibility: inherit; font-family: &quot;Helvetica Neue&quot;, sans-serif; font-size: 12px; font-weight: 200;" x="0" y="29.121153831481934" dx="0em" dy="0.3em" fill="rgb(50, 49, 63)" stroke="none" stroke-width="1px">1.1</text><text style="text-anchor: end; visibility: hidden; font-family: &quot;Helvetica Neue&quot;, sans-serif; font-size: 12px; font-weight: 200;" x="0" y="0" dx="0em" dy="0.3em" fill="rgb(50, 49, 63)" stroke="none" stroke-width="1px">1.2</text></g><line x1="49.98400115966797" y1="0" x2="49.98400115966797" y2="378.57499980926514" fill="rgb(0, 0, 0)" stroke="rgb(204, 204, 204)" stroke-width="1px"></line></g></g><g transform="translate(49, 0)" clip-path="url(#clip_0)"><clipPath id="clip_0"><rect width="1921" height="378"></rect></clipPath><g><g><g><line x1="0" y1="0" x2="0" y2="378.57499980926514" fill="rgb(0, 0, 0)" stroke="rgb(60, 60, 60)" stroke-width="1px" opacity="0.25"></line><line x1="147.7896922184871" y1="0" x2="147.7896922184871" y2="378.57499980926514" fill="rgb(0, 0, 0)" stroke="rgb(60, 60, 60)" stroke-width="1px" opacity="0.25"></line><line x1="295.5793844369742" y1="0" x2="295.5793844369742" y2="378.57499980926514" fill="rgb(0, 0, 0)" stroke="rgb(60, 60, 60)" stroke-width="1px" opacity="0.25"></line><line x1="443.36907665546124" y1="0" x2="443.36907665546124" y2="378.57499980926514" fill="rgb(0, 0, 0)" stroke="rgb(60, 60, 60)" stroke-width="1px" opacity="0.25"></line><line x1="591.1587688739484" y1="0" x2="591.1587688739484" y2="378.57499980926514" fill="rgb(0, 0, 0)" stroke="rgb(60, 60, 60)" stroke-width="1px" opacity="0.25"></line><line x1="738.9484610924354" y1="0" x2="738.9484610924354" y2="378.57499980926514" fill="rgb(0, 0, 0)" stroke="rgb(60, 60, 60)" stroke-width="1px" opacity="0.25"></line><line x1="886.7381533109225" y1="0" x2="886.7381533109225" y2="378.57499980926514" fill="rgb(0, 0, 0)" stroke="rgb(60, 60, 60)" stroke-width="1px" opacity="0.25"></line><line x1="1034.5278455294094" y1="0" x2="1034.5278455294094" y2="378.57499980926514" fill="rgb(0, 0, 0)" stroke="rgb(60, 60, 60)" stroke-width="1px" opacity="0.25"></line><line x1="1182.3175377478967" y1="0" x2="1182.3175377478967" y2="378.57499980926514" fill="rgb(0, 0, 0)" stroke="rgb(60, 60, 60)" stroke-width="1px" opacity="0.25"></line><line x1="1330.1072299663838" y1="0" x2="1330.1072299663838" y2="378.57499980926514" fill="rgb(0, 0, 0)" stroke="rgb(60, 60, 60)" stroke-width="1px" opacity="0.25"></line><line x1="1477.8969221848708" y1="0" x2="1477.8969221848708" y2="378.57499980926514" fill="rgb(0, 0, 0)" stroke="rgb(60, 60, 60)" stroke-width="1px" opacity="0.25"></line><line x1="1625.686614403358" y1="0" x2="1625.686614403358" y2="378.57499980926514" fill="rgb(0, 0, 0)" stroke="rgb(60, 60, 60)" stroke-width="1px" opacity="0.25"></line><line x1="1773.476306621845" y1="0" x2="1773.476306621845" y2="378.57499980926514" fill="rgb(0, 0, 0)" stroke="rgb(60, 60, 60)" stroke-width="1px" opacity="0.25"></line><line x1="1921.265998840332" y1="0" x2="1921.265998840332" y2="378.57499980926514" fill="rgb(0, 0, 0)" stroke="rgb(60, 60, 60)" stroke-width="1px" opacity="0.25"></line></g><g><line x1="0" y1="378.57499980926514" x2="1921.265998840332" y2="378.57499980926514" fill="rgb(0, 0, 0)" stroke="rgb(60, 60, 60)" stroke-width="1px" opacity="0.25"></line><line x1="0" y1="349.4538459777832" x2="1921.265998840332" y2="349.4538459777832" fill="rgb(0, 0, 0)" stroke="rgb(60, 60, 60)" stroke-width="1px" opacity="0.25"></line><line x1="0" y1="320.33269214630127" x2="1921.265998840332" y2="320.33269214630127" fill="rgb(0, 0, 0)" stroke="rgb(60, 60, 60)" stroke-width="1px" opacity="0.25"></line><line x1="0" y1="291.21153831481934" x2="1921.265998840332" y2="291.21153831481934" fill="rgb(0, 0, 0)" stroke="rgb(60, 60, 60)" stroke-width="1px" opacity="0.25"></line><line x1="0" y1="262.0903844833374" x2="1921.265998840332" y2="262.0903844833374" fill="rgb(0, 0, 0)" stroke="rgb(60, 60, 60)" stroke-width="1px" opacity="0.25"></line><line x1="0" y1="232.96923065185547" x2="1921.265998840332" y2="232.96923065185547" fill="rgb(0, 0, 0)" stroke="rgb(60, 60, 60)" stroke-width="1px" opacity="0.25"></line><line x1="0" y1="203.84807682037354" x2="1921.265998840332" y2="203.84807682037354" fill="rgb(0, 0, 0)" stroke="rgb(60, 60, 60)" stroke-width="1px" opacity="0.25"></line><line x1="0" y1="174.7269229888916" x2="1921.265998840332" y2="174.7269229888916" fill="rgb(0, 0, 0)" stroke="rgb(60, 60, 60)" stroke-width="1px" opacity="0.25"></line><line x1="0" y1="145.6057691574097" x2="1921.265998840332" y2="145.6057691574097" fill="rgb(0, 0, 0)" stroke="rgb(60, 60, 60)" stroke-width="1px" opacity="0.25"></line><line x1="0" y1="116.48461532592773" x2="1921.265998840332" y2="116.48461532592773" fill="rgb(0, 0, 0)" stroke="rgb(60, 60, 60)" stroke-width="1px" opacity="0.25"></line><line x1="0" y1="87.3634614944458" x2="1921.265998840332" y2="87.3634614944458" fill="rgb(0, 0, 0)" stroke="rgb(60, 60, 60)" stroke-width="1px" opacity="0.25"></line><line x1="0" y1="58.24230766296387" x2="1921.265998840332" y2="58.24230766296387" fill="rgb(0, 0, 0)" stroke="rgb(60, 60, 60)" stroke-width="1px" opacity="0.25"></line><line x1="0" y1="29.121153831481934" x2="1921.265998840332" y2="29.121153831481934" fill="rgb(0, 0, 0)" stroke="rgb(60, 60, 60)" stroke-width="1px" opacity="0.25"></line><line x1="0" y1="0" x2="1921.265998840332" y2="0" fill="rgb(0, 0, 0)" stroke="rgb(60, 60, 60)" stroke-width="1px" opacity="0.25"></line></g></g></g><g><g><line x1="0" y1="349.4538459777832" x2="1921.265998840332" y2="349.4538459777832" fill="rgb(0, 0, 0)" stroke="rgb(153, 153, 153)" stroke-width="1.5px"></line></g></g><g><g><line x1="147.7896922184871" y1="0" x2="147.7896922184871" y2="378.57499980926514" fill="rgb(0, 0, 0)" stroke="rgb(153, 153, 153)" stroke-width="1.5px"></line></g></g><g><g><g><g><g><path style="fill: none;" stroke="rgb(0, 119, 187)" stroke-width="2px" d="M147.7896922184871,336.79653943451945L162.5686614403358,333.59094519910036L177.3476306621845,332.77829243208885L192.12659988403323,329.81395526661044L206.9055691058819,325.9423080487427L221.68453832773062,323.3635191822485L236.46350754957933,322.8002034294954L251.24247677142804,319.5357366889432L266.02144599327676,317.18781639255275L280.80041521512544,315.28200617506525L295.5793844369742,314.00415343456734L310.35835365882286,312.34652812327363L325.1373228806716,311.2071952230209L339.9162921025203,309.6765448046806L354.695261324369,308.55568468797264L369.4742305462177,307.62990619142863L384.25319976806645,306.0623145453889L399.03216898991514,304.1865177193478L413.8111382117638,302.50926534674966L428.59010743361256,301.1090526546419L443.36907665546124,300.05052787634605L458.14804587731,298.83962975499395L472.92701509915867,298.3236372206921L487.70598432100735,298.6987991895344L502.4849535428561,296.32201977945715L517.2639227647047,294.9044929209544L532.0428919865535,294.0606724847368L546.8218612084022,293.04023887251L561.6008304302509,291.96785842170806L576.3797996520996,291.30642255029807L591.1587688739484,290.4152767259341L605.937738095797,289.6903512383523L620.7167073176457,290.0193377574178L635.4956765394944,288.7714984083663L650.2746457613432,287.73144207422513L665.0536149831919,286.86915319385287L679.8325842050406,286.49168266949124L694.6115534268893,285.5820684009726L709.390522648738,284.9206325295626L724.1694918705866,284.20378698629855L738.9484610924354,283.6843359581078L753.7274303142841,283.2422258792048L768.5063995361329,282.67890795675663L783.2853687579815,281.97245525271956L798.0643379798303,281.5141809457912L812.843307201679,280.8839149132823L827.6222764235276,280.07010569881606L842.4012456453763,279.9512107501803" fill="none"></path></g><g><path style="fill: none;" stroke="rgb(0, 153, 136)" stroke-width="2px" d="M147.7896922184871,340.7120361890843L162.5686614403358,334.5375462589142L177.3476306621845,334.0675566836337L192.12659988403323,333.32732182787106L206.9055691058819,333.4800694433212L221.68453832773062,333.673939288807L236.46350754957933,333.4683194598485L251.24247677142804,333.16870084795585L266.02144599327676,333.1334519823853L280.80041521512544,332.0054763508036L295.5793844369742,331.2123692815326L310.35835365882286,330.41338559325396L325.1373228806716,329.5204042068887L339.9162921025203,328.7860470549813L354.695261324369,327.1939552125841L369.4742305462177,325.4784923406899L384.25319976806645,323.6102829381931L399.03216898991514,322.22968862860955L413.8111382117638,320.77859658788486L428.59010743361256,320.0266128334971L443.36907665546124,318.3875232269042L458.14804587731,316.795431384507L472.92701509915867,315.7555790016993L487.70598432100735,314.9507219489556L502.4849535428561,313.68762530440415L517.2639227647047,312.5537730538148L532.0428919865535,311.7312937379808L546.8218612084022,310.66206802376263L561.6008304302509,310.05695309612224L576.3797996520996,309.23447378028834L591.1587688739484,308.1887458633205L605.937738095797,307.4896354072886L620.7167073176457,306.77290268816637L635.4956765394944,305.9915434326731L650.2746457613432,304.79894451926276L665.0536149831919,303.35372367330814L679.8325842050406,302.5782399519749L694.6115534268893,301.6088896396985L709.390522648738,301.06840124842927L724.1694918705866,300.21066872763464L738.9484610924354,299.1238164109361L753.7274303142841,298.5069547543656L768.5063995361329,296.77386744968607L783.2853687579815,296.2568811950573L798.0643379798303,295.3227754089614L812.843307201679,294.7529136862817L827.6222764235276,294.0949276299805L842.4012456453763,292.8435777143591L857.1802148672251,292.2208448630186L871.9591840890738,290.7462506856534L886.7381533109225,290.16463789465354L901.5171225327712,289.18940770882693L916.29609175462,288.3375507221924L931.0750609764686,287.71481787085185L945.8540301983173,286.4575924210704L960.632999420166,285.66448643664694L975.4119686420147,284.5776341199484L990.1909378638634,282.8856712149996L1004.9699070857122,282.32755622125L1019.7488763075609,281.75181896441023L1034.5278455294094,280.29485138952543L1049.3068147512581,279.1668790124863L1064.085783973107,278.25627102364075L1078.8647531949557,277.6570359695506L1093.6437224168044,276.16481952909515L1108.422691638653,274.96046520797455L1123.2016608605018,274.64909661260924L1137.9806300823504,272.63989825691516L1152.7595993041991,272.49889411585264L1167.5385685260478,271.20642413989066L1182.3175377478967,270.3134470929155L1197.0965069697454,269.28534143903795L1211.875476191594,268.1926135881793L1226.6544454134428,267.2585078020834L1241.4334146352915,265.6429181624359L1256.2123838571401,265.22580730974886L1270.9913530789888,263.3164756772164L1285.7703223008375,262.2766189550186L1300.5492915226864,261.26613990362137L1315.328260744535,259.92079879899853L1330.1072299663838,259.03368860740335L1344.8861991882322,257.65896983197996L1359.6651684100812,257.6178497716393L1374.4441376319298,256.366499856018L1389.2231068537785,254.55115941248698L1404.0020760756272,253.4055604329675L1418.781045297476,252.58308111713353L1433.5600145193248,251.97209499472314L1448.3389837411733,250.6561228821207L1463.117952963022,250.14501216165206L1477.8969221848708,248.67629351844707L1492.6758914067195,247.36032140584462L1507.4548606285682,246.19122028968468L1522.233829850417,244.17613772105034L1537.0127990722658,244.47575524809542L1551.7917682941143,243.43590720467782L1566.570737515963,242.161055152416L1581.3497067378116,242.02005969013365L1596.1286759596605,240.95670951007557L1610.9076451815092,239.5291196059913L1625.686614403358,238.8711292103L1640.4655836252066,238.53625847829426L1655.2445528470553,237.220295044472L1670.023522068904,235.62232332852466L1684.8024912907526,234.62359534544768L1699.5814605126013,234.44147982282468L1714.3604297344502,233.31349876700534L1729.139398956299,232.52626397735193L1743.9183681781476,231.48641593393427L1758.6973373999963,231.69203359319772L1773.476306621845,229.86495076012667L1788.2552758436937,229.2245869669157L1803.0342450655423,228.37272998028118L1817.813214287391,226.86289127673552" fill="none"></path></g><g><path style="fill: none;" stroke="rgb(51, 187, 238)" stroke-width="2px" d="M147.7896922184871,320.3357119278537L162.5686614403358,303.26284816637974L177.3476306621845,295.2741872583035L192.12659988403323,288.5150578125569L206.9055691058819,281.58796359521835L221.68453832773062,274.17302212759756L236.46350754957933,266.70146029829203L251.24247677142804,257.13129999898916L266.02144599327676,246.89021792157467L280.80041521512544,235.60927912196243L295.5793844369742,222.7024836857877L310.35835365882286,208.39442108571725L325.1373228806716,192.78511426295532L339.9162921025203,178.298702730846L354.695261324369,164.69740527089792L369.4742305462177,152.95503308838343L384.25319976806645,143.00836994870545L399.03216898991514,134.6441435085101L413.8111382117638,128.32474181651583L428.59010743361256,122.59981920709072L443.36907665546124,118.39222508847894" fill="none"></path></g><g><path style="fill: none;" stroke="rgb(255, 112, 67)" stroke-width="2px" d="M147.7896922184871,331.83399016416666L162.5686614403358,318.2100291547099L177.3476306621845,307.84863748749547L192.12659988403323,297.2328230408561L206.9055691058819,286.31769048508664L221.68453832773062,276.0311315996973L236.46350754957933,263.2702004214679L251.24247677142804,246.21905313761894L266.02144599327676,222.68766032929514L280.80041521512544,194.26241621972656L295.5793844369742,166.93967226746318L310.35835365882286,142.4305194088996L325.1373228806716,123.31906443306573L339.9162921025203,108.05383652804647L354.695261324369,97.40809764745711" fill="none"></path></g><g><path style="fill: none;" stroke="rgb(204, 51, 17)" stroke-width="2px" d="M147.7896922184871,342.45677204399357L162.5686614403358,339.7912208699374L177.3476306621845,340.39096959932755L192.12659988403323,339.5246651558656L206.9055691058819,337.5255016397175L221.68453832773062,333.5271735225738L236.46350754957933,329.5288464902776L251.24247677142804,325.9969887030644L266.02144599327676,320.53260741306855L280.80041521512544,311.66964836259046L295.5793844369742,301.9403843262267L310.35835365882286,289.7454831892417L325.1373228806716,270.28695077712405L339.9162921025203,251.6947298599772L354.695261324369,226.37198475645113L369.4742305462177,204.58110394922338L384.25319976806645,177.85894894075318L399.03216898991514,160.7327649237457L413.8111382117638,140.6078540749238L428.59010743361256,123.548323089452L443.36907665546124,109.08770489194217L458.14804587731,98.2255866647061L472.92701509915867,91.82824952698388L487.70598432100735,85.56420109477278L502.4849535428561,80.49966422435978L517.2639227647047,79.10024564063548L532.0428919865535,76.03486577728546L546.8218612084022,75.90157707177445L561.6008304302509,73.63586001124958L576.3797996520996,72.76956153444905L591.1587688739484,71.70333867816203L605.937738095797,68.7045944887874L620.7167073176457,69.57089296558792L635.4956765394944,70.17064874648702L650.2746457613432,69.57089296558792L665.0536149831919,68.3047630873748L679.8325842050406,68.03820303391291L694.6115534268893,67.23854023108777L709.390522648738,65.5725615939017L724.1694918705866,65.83912164736347L738.9484610924354,64.83955182261212L753.7274303142841,63.70667593478947L768.5063995361329,63.24020885940149L783.2853687579815,63.50676891286332L798.0643379798303,63.64004026081409L812.843307201679,62.77374178401345L827.6222764235276,60.97449179887667" fill="none"></path></g></g></g></g></g></g><g transform="translate(49, 378)" clip-path="url(#clip_1)"><clipPath id="clip_1"><rect width="1921" height="21"></rect></clipPath><g><g><line x1="0" y1="0" x2="0" y2="5" style="visibility: inherit;" fill="rgb(0, 0, 0)" stroke="rgb(204, 204, 204)" stroke-width="1px"></line><line x1="147.7896922184871" y1="0" x2="147.7896922184871" y2="5" style="visibility: inherit;" fill="rgb(0, 0, 0)" stroke="rgb(204, 204, 204)" stroke-width="1px"></line><line x1="295.5793844369742" y1="0" x2="295.5793844369742" y2="5" style="visibility: inherit;" fill="rgb(0, 0, 0)" stroke="rgb(204, 204, 204)" stroke-width="1px"></line><line x1="443.36907665546124" y1="0" x2="443.36907665546124" y2="5" style="visibility: inherit;" fill="rgb(0, 0, 0)" stroke="rgb(204, 204, 204)" stroke-width="1px"></line><line x1="591.1587688739484" y1="0" x2="591.1587688739484" y2="5" style="visibility: inherit;" fill="rgb(0, 0, 0)" stroke="rgb(204, 204, 204)" stroke-width="1px"></line><line x1="738.9484610924354" y1="0" x2="738.9484610924354" y2="5" style="visibility: inherit;" fill="rgb(0, 0, 0)" stroke="rgb(204, 204, 204)" stroke-width="1px"></line><line x1="886.7381533109225" y1="0" x2="886.7381533109225" y2="5" style="visibility: inherit;" fill="rgb(0, 0, 0)" stroke="rgb(204, 204, 204)" stroke-width="1px"></line><line x1="1034.5278455294094" y1="0" x2="1034.5278455294094" y2="5" style="visibility: inherit;" fill="rgb(0, 0, 0)" stroke="rgb(204, 204, 204)" stroke-width="1px"></line><line x1="1182.3175377478967" y1="0" x2="1182.3175377478967" y2="5" style="visibility: inherit;" fill="rgb(0, 0, 0)" stroke="rgb(204, 204, 204)" stroke-width="1px"></line><line x1="1330.1072299663838" y1="0" x2="1330.1072299663838" y2="5" style="visibility: inherit;" fill="rgb(0, 0, 0)" stroke="rgb(204, 204, 204)" stroke-width="1px"></line><line x1="1477.8969221848708" y1="0" x2="1477.8969221848708" y2="5" style="visibility: inherit;" fill="rgb(0, 0, 0)" stroke="rgb(204, 204, 204)" stroke-width="1px"></line><line x1="1625.686614403358" y1="0" x2="1625.686614403358" y2="5" style="visibility: inherit;" fill="rgb(0, 0, 0)" stroke="rgb(204, 204, 204)" stroke-width="1px"></line><line x1="1773.476306621845" y1="0" x2="1773.476306621845" y2="5" style="visibility: inherit;" fill="rgb(0, 0, 0)" stroke="rgb(204, 204, 204)" stroke-width="1px"></line><line x1="1921.265998840332" y1="0" x2="1921.265998840332" y2="5" style="visibility: inherit;" fill="rgb(0, 0, 0)" stroke="rgb(204, 204, 204)" stroke-width="1px"></line></g><g transform="translate(0, 8)"><text style="text-anchor: middle; visibility: hidden; font-family: &quot;Helvetica Neue&quot;, sans-serif; font-size: 12px; font-weight: 200;" x="0" y="0" dx="0em" dy="0.95em" fill="rgb(50, 49, 63)" stroke="none" stroke-width="1px">-10</text><text style="text-anchor: middle; visibility: hidden; font-family: &quot;Helvetica Neue&quot;, sans-serif; font-size: 12px; font-weight: 200;" x="147.7896922184871" y="0" dx="0em" dy="0.95em" fill="rgb(50, 49, 63)" stroke="none" stroke-width="1px">0</text><text style="text-anchor: middle; visibility: hidden; font-family: &quot;Helvetica Neue&quot;, sans-serif; font-size: 12px; font-weight: 200;" x="295.5793844369742" y="0" dx="0em" dy="0.95em" fill="rgb(50, 49, 63)" stroke="none" stroke-width="1px">10</text><text style="text-anchor: middle; visibility: hidden; font-family: &quot;Helvetica Neue&quot;, sans-serif; font-size: 12px; font-weight: 200;" x="443.36907665546124" y="0" dx="0em" dy="0.95em" fill="rgb(50, 49, 63)" stroke="none" stroke-width="1px">20</text><text style="text-anchor: middle; visibility: hidden; font-family: &quot;Helvetica Neue&quot;, sans-serif; font-size: 12px; font-weight: 200;" x="591.1587688739484" y="0" dx="0em" dy="0.95em" fill="rgb(50, 49, 63)" stroke="none" stroke-width="1px">30</text><text style="text-anchor: middle; visibility: hidden; font-family: &quot;Helvetica Neue&quot;, sans-serif; font-size: 12px; font-weight: 200;" x="738.9484610924354" y="0" dx="0em" dy="0.95em" fill="rgb(50, 49, 63)" stroke="none" stroke-width="1px">40</text><text style="text-anchor: middle; visibility: hidden; font-family: &quot;Helvetica Neue&quot;, sans-serif; font-size: 12px; font-weight: 200;" x="886.7381533109225" y="0" dx="0em" dy="0.95em" fill="rgb(50, 49, 63)" stroke="none" stroke-width="1px">50</text><text style="text-anchor: middle; visibility: hidden; font-family: &quot;Helvetica Neue&quot;, sans-serif; font-size: 12px; font-weight: 200;" x="1034.5278455294094" y="0" dx="0em" dy="0.95em" fill="rgb(50, 49, 63)" stroke="none" stroke-width="1px">60</text><text style="text-anchor: middle; visibility: hidden; font-family: &quot;Helvetica Neue&quot;, sans-serif; font-size: 12px; font-weight: 200;" x="1182.3175377478967" y="0" dx="0em" dy="0.95em" fill="rgb(50, 49, 63)" stroke="none" stroke-width="1px">70</text><text style="text-anchor: middle; visibility: hidden; font-family: &quot;Helvetica Neue&quot;, sans-serif; font-size: 12px; font-weight: 200;" x="1330.1072299663838" y="0" dx="0em" dy="0.95em" fill="rgb(50, 49, 63)" stroke="none" stroke-width="1px">80</text><text style="text-anchor: middle; visibility: hidden; font-family: &quot;Helvetica Neue&quot;, sans-serif; font-size: 12px; font-weight: 200;" x="1477.8969221848708" y="0" dx="0em" dy="0.95em" fill="rgb(50, 49, 63)" stroke="none" stroke-width="1px">90</text><text style="text-anchor: middle; visibility: hidden; font-family: &quot;Helvetica Neue&quot;, sans-serif; font-size: 12px; font-weight: 200;" x="1625.686614403358" y="0" dx="0em" dy="0.95em" fill="rgb(50, 49, 63)" stroke="none" stroke-width="1px">100</text><text style="text-anchor: middle; visibility: hidden; font-family: &quot;Helvetica Neue&quot;, sans-serif; font-size: 12px; font-weight: 200;" x="1773.476306621845" y="0" dx="0em" dy="0.95em" fill="rgb(50, 49, 63)" stroke="none" stroke-width="1px">110</text><text style="text-anchor: middle; visibility: hidden; font-family: &quot;Helvetica Neue&quot;, sans-serif; font-size: 12px; font-weight: 200;" x="1921.265998840332" y="0" dx="0em" dy="0.95em" fill="rgb(50, 49, 63)" stroke="none" stroke-width="1px">120</text></g><line x1="0" y1="0" x2="1921.265998840332" y2="0" fill="rgb(0, 0, 0)" stroke="rgb(204, 204, 204)" stroke-width="1px"></line></g></g></g></g></svg>