<svg viewBox="0 0 330 200" xmlns="http://www.w3.org/2000/svg"><g><g><g><g><g><line x1="59.98000144958496" y1="178.57499980926514" x2="54.98000144958496" y2="178.57499980926514" style="visibility: inherit;" fill="rgb(0, 0, 0)" stroke="rgb(204, 204, 204)" stroke-width="1px"></line><line x1="59.98000144958496" y1="156.253124833107" x2="54.98000144958496" y2="156.253124833107" style="visibility: inherit;" fill="rgb(0, 0, 0)" stroke="rgb(204, 204, 204)" stroke-width="1px"></line><line x1="59.98000144958496" y1="133.93124985694885" x2="54.98000144958496" y2="133.93124985694885" style="visibility: inherit;" fill="rgb(0, 0, 0)" stroke="rgb(204, 204, 204)" stroke-width="1px"></line><line x1="59.98000144958496" y1="111.60937488079071" x2="54.98000144958496" y2="111.60937488079071" style="visibility: inherit;" fill="rgb(0, 0, 0)" stroke="rgb(204, 204, 204)" stroke-width="1px"></line><line x1="59.98000144958496" y1="89.28749990463257" x2="54.98000144958496" y2="89.28749990463257" style="visibility: inherit;" fill="rgb(0, 0, 0)" stroke="rgb(204, 204, 204)" stroke-width="1px"></line><line x1="59.98000144958496" y1="66.96562492847443" x2="54.98000144958496" y2="66.96562492847443" style="visibility: inherit;" fill="rgb(0, 0, 0)" stroke="rgb(204, 204, 204)" stroke-width="1px"></line><line x1="59.98000144958496" y1="44.643749952316284" x2="54.98000144958496" y2="44.643749952316284" style="visibility: inherit;" fill="rgb(0, 0, 0)" stroke="rgb(204, 204, 204)" stroke-width="1px"></line><line x1="59.98000144958496" y1="22.32187497615817" x2="54.98000144958496" y2="22.32187497615817" style="visibility: inherit;" fill="rgb(0, 0, 0)" stroke="rgb(204, 204, 204)" stroke-width="1px"></line><line x1="59.98000144958496" y1="0" x2="54.98000144958496" y2="0" style="visibility: inherit;" fill="rgb(0, 0, 0)" stroke="rgb(204, 204, 204)" stroke-width="1px"></line></g><g transform="translate(49.98000144958496, 0)"><text style="text-anchor: end; visibility: hidden; font-family: &quot;Helvetica Neue&quot;, sans-serif; font-size: 12px; font-weight: 200;" x="0" y="178.57499980926514" dx="0em" dy="0.3em" fill="rgb(50, 49, 63)" stroke="none" stroke-width="1px">-0.01</text><text style="text-anchor: end; visibility: inherit; font-family: &quot;Helvetica Neue&quot;, sans-serif; font-size: 12px; font-weight: 200;" x="0" y="156.253124833107" dx="0em" dy="0.3em" fill="rgb(50, 49, 63)" stroke="none" stroke-width="1px">0</text><text style="text-anchor: end; visibility: hidden; font-family: &quot;Helvetica Neue&quot;, sans-serif; font-size: 12px; font-weight: 200;" x="0" y="133.93124985694885" dx="0em" dy="0.3em" fill="rgb(50, 49, 63)" stroke="none" stroke-width="1px">0.01</text><text style="text-anchor: end; visibility: inherit; font-family: &quot;Helvetica Neue&quot;, sans-serif; font-size: 12px; font-weight: 200;" x="0" y="111.60937488079071" dx="0em" dy="0.3em" fill="rgb(50, 49, 63)" stroke="none" stroke-width="1px">0.02</text><text style="text-anchor: end; visibility: hidden; font-family: &quot;Helvetica Neue&quot;, sans-serif; font-size: 12px; font-weight: 200;" x="0" y="89.28749990463257" dx="0em" dy="0.3em" fill="rgb(50, 49, 63)" stroke="none" stroke-width="1px">0.03</text><text style="text-anchor: end; visibility: inherit; font-family: &quot;Helvetica Neue&quot;, sans-serif; font-size: 12px; font-weight: 200;" x="0" y="66.96562492847443" dx="0em" dy="0.3em" fill="rgb(50, 49, 63)" stroke="none" stroke-width="1px">0.04</text><text style="text-anchor: end; visibility: hidden; font-family: &quot;Helvetica Neue&quot;, sans-serif; font-size: 12px; font-weight: 200;" x="0" y="44.643749952316284" dx="0em" dy="0.3em" fill="rgb(50, 49, 63)" stroke="none" stroke-width="1px">0.05</text><text style="text-anchor: end; visibility: inherit; font-family: &quot;Helvetica Neue&quot;, sans-serif; font-size: 12px; font-weight: 200;" x="0" y="22.32187497615817" dx="0em" dy="0.3em" fill="rgb(50, 49, 63)" stroke="none" stroke-width="1px">0.06</text><text style="text-anchor: end; visibility: hidden; font-family: &quot;Helvetica Neue&quot;, sans-serif; font-size: 12px; font-weight: 200;" x="0" y="0" dx="0em" dy="0.3em" fill="rgb(50, 49, 63)" stroke="none" stroke-width="1px">0.07</text></g><line x1="59.98000144958496" y1="0" x2="59.98000144958496" y2="178.57499980926514" fill="rgb(0, 0, 0)" stroke="rgb(204, 204, 204)" stroke-width="1px"></line></g></g><g transform="translate(59, 0)" clip-path="url(#clip_0)"><clipPath id="clip_0"><rect width="270" height="178"></rect></clipPath><g><g><g><line x1="0" y1="0" x2="0" y2="178.57499980926514" fill="rgb(0, 0, 0)" stroke="rgb(60, 60, 60)" stroke-width="1px" opacity="0.25"></line><line x1="33.75249981880188" y1="0" x2="33.75249981880188" y2="178.57499980926514" fill="rgb(0, 0, 0)" stroke="rgb(60, 60, 60)" stroke-width="1px" opacity="0.25"></line><line x1="67.50499963760376" y1="0" x2="67.50499963760376" y2="178.57499980926514" fill="rgb(0, 0, 0)" stroke="rgb(60, 60, 60)" stroke-width="1px" opacity="0.25"></line><line x1="101.25749945640564" y1="0" x2="101.25749945640564" y2="178.57499980926514" fill="rgb(0, 0, 0)" stroke="rgb(60, 60, 60)" stroke-width="1px" opacity="0.25"></line><line x1="135.00999927520752" y1="0" x2="135.00999927520752" y2="178.57499980926514" fill="rgb(0, 0, 0)" stroke="rgb(60, 60, 60)" stroke-width="1px" opacity="0.25"></line><line x1="168.7624990940094" y1="0" x2="168.7624990940094" y2="178.57499980926514" fill="rgb(0, 0, 0)" stroke="rgb(60, 60, 60)" stroke-width="1px" opacity="0.25"></line><line x1="202.51499891281128" y1="0" x2="202.51499891281128" y2="178.57499980926514" fill="rgb(0, 0, 0)" stroke="rgb(60, 60, 60)" stroke-width="1px" opacity="0.25"></line><line x1="236.26749873161316" y1="0" x2="236.26749873161316" y2="178.57499980926514" fill="rgb(0, 0, 0)" stroke="rgb(60, 60, 60)" stroke-width="1px" opacity="0.25"></line><line x1="270.01999855041504" y1="0" x2="270.01999855041504" y2="178.57499980926514" fill="rgb(0, 0, 0)" stroke="rgb(60, 60, 60)" stroke-width="1px" opacity="0.25"></line></g><g><line x1="0" y1="178.57499980926514" x2="270.01999855041504" y2="178.57499980926514" fill="rgb(0, 0, 0)" stroke="rgb(60, 60, 60)" stroke-width="1px" opacity="0.25"></line><line x1="0" y1="156.253124833107" x2="270.01999855041504" y2="156.253124833107" fill="rgb(0, 0, 0)" stroke="rgb(60, 60, 60)" stroke-width="1px" opacity="0.25"></line><line x1="0" y1="133.93124985694885" x2="270.01999855041504" y2="133.93124985694885" fill="rgb(0, 0, 0)" stroke="rgb(60, 60, 60)" stroke-width="1px" opacity="0.25"></line><line x1="0" y1="111.60937488079071" x2="270.01999855041504" y2="111.60937488079071" fill="rgb(0, 0, 0)" stroke="rgb(60, 60, 60)" stroke-width="1px" opacity="0.25"></line><line x1="0" y1="89.28749990463257" x2="270.01999855041504" y2="89.28749990463257" fill="rgb(0, 0, 0)" stroke="rgb(60, 60, 60)" stroke-width="1px" opacity="0.25"></line><line x1="0" y1="66.96562492847443" x2="270.01999855041504" y2="66.96562492847443" fill="rgb(0, 0, 0)" stroke="rgb(60, 60, 60)" stroke-width="1px" opacity="0.25"></line><line x1="0" y1="44.643749952316284" x2="270.01999855041504" y2="44.643749952316284" fill="rgb(0, 0, 0)" stroke="rgb(60, 60, 60)" stroke-width="1px" opacity="0.25"></line><line x1="0" y1="22.32187497615817" x2="270.01999855041504" y2="22.32187497615817" fill="rgb(0, 0, 0)" stroke="rgb(60, 60, 60)" stroke-width="1px" opacity="0.25"></line><line x1="0" y1="0" x2="270.01999855041504" y2="0" fill="rgb(0, 0, 0)" stroke="rgb(60, 60, 60)" stroke-width="1px" opacity="0.25"></line></g></g></g><g><g><line x1="0" y1="156.253124833107" x2="270.01999855041504" y2="156.253124833107" fill="rgb(0, 0, 0)" stroke="rgb(153, 153, 153)" stroke-width="1.5px"></line></g></g><g><g><line x1="33.75249981880188" y1="0" x2="33.75249981880188" y2="178.57499980926514" fill="rgb(0, 0, 0)" stroke="rgb(153, 153, 153)" stroke-width="1.5px"></line></g></g><g><g><g><g><g><path style="fill: none;" stroke="rgb(238, 51, 119)" stroke-width="2px" d="M33.75249981880188,133.8378522172753L37.12774980068207,60.98822089331712L40.502999782562256,38.57295035637205L43.878249764442444,36.70500421533791L47.25349974632263,36.70500421533791L50.62874972820282,36.70500421533791L54.00399971008301,36.70500421533791L57.379249691963196,36.70500421533791L60.754499673843384,36.70500421533791L64.12974965572357,36.70500421533791L67.50499963760376,100.21494433297103L70.88024961948395,102.08288631623194L74.25549960136414,102.08288631623194L77.63074958324432,102.08288631623194L81.00599956512451,102.08288631623194L84.3812495470047,102.08288631623194L87.75649952888489,102.08288631623194L91.13174951076508,102.08288631623194L94.50699949264526,102.08288631623194L97.88224947452545,36.70500421533791L101.25749945640564,36.70500421533791L104.63274943828583,36.70500421533791L108.00799942016602,36.70500421533791L111.3832494020462,36.70500421533791L114.75849938392639,36.70500421533791L118.13374936580658,36.70500421533791L121.50899934768677,36.70500421533791L124.88424932956696,36.70500421533791L128.25949931144714,36.70500421533791L131.63474929332733,36.70500421533791L135.00999927520752,36.70500421533791L138.3852492570877,36.70500421533791L141.7604992389679,36.70500421533791L145.13574922084808,36.70500421533791L148.51099920272827,36.70500421533791L151.88624918460846,36.70500421533791L155.26149916648865,36.70500421533791L158.63674914836884,36.70500421533791L162.01199913024902,36.70500421533791L165.3872491121292,36.70500421533791L168.7624990940094,36.70500421533791L172.1377490758896,36.70500421533791L175.51299905776978,36.70500421533791L178.88824903964996,36.70500421533791L182.26349902153015,36.70500421533791L185.63874900341034,36.70500421533791L189.01399898529053,36.70500421533791L192.38924896717072,36.70500421533791L195.7644989490509,36.70500421533791L199.1397489309311,36.70500421533791L202.51499891281128,36.70500421533791L205.89024889469147,36.70500421533791L209.26549887657166,36.70500421533791L212.64074885845184,36.70500421533791L216.01599884033203,36.70500421533791L219.39124882221222,36.70500421533791L222.7664988040924,36.70500421533791L226.1417487859726,36.70500421533791L229.51699876785278,36.70500421533791L232.89224874973297,36.70500421533791L236.26749873161316,36.70500421533791L239.64274871349335,36.70500421533791L243.01799869537354,36.70500421533791L246.39324867725372,36.70500421533791L249.7684986591339,36.70500421533791L253.1437486410141,36.70500421533791L256.5189986228943,36.70500421533791L259.8942486047745,36.70500421533791L263.26949858665466,36.70500421533791" fill="none"></path></g><g><path style="fill: none;" stroke="rgb(51, 187, 238)" stroke-width="2px" d="M33.75249981880188,152.51646440243735L37.12774980068207,129.6294186149338L40.502999782562256,105.34112529585957L43.878249764442444,88.99323915994026L47.25349974632263,86.65782626084132L50.62874972820282,101.60446798351984L54.00399971008301,101.13738374059076L57.379249691963196,112.81444823608543L60.754499673843384,109.54487100890157L64.12974965572357,123.55734632460855L67.50499963760376,108.61070668081663L70.88024961948395,122.15609983248116L74.25549960136414,127.76108995876396L77.63074958324432,113.2815324790145L81.00599956512451,103.93988088261878L84.3812495470047,109.54487100890157L87.75649952888489,108.14362243788757L91.13174951076508,103.4727966396897L94.50699949264526,101.13738374059076L97.88224947452545,75.91492609343159L101.25749945640564,88.05907483185533L104.63274943828583,71.7111845381628L108.00799942016602,65.63911432672415L111.3832494020462,69.84285588199293L114.75849938392639,54.896210001541206L118.13374936580658,61.902448698838L121.50899934768677,59.567035799739074L124.88424932956696,55.36329424447027L128.25949931144714,50.22538420334334L131.63474929332733,50.22538420334334L135.00999927520752,46.955811133932684L138.3852492570877,64.23786159793693L141.7604992389679,59.567035799739074L145.13574922084808,54.42912575861213L148.51099920272827,49.75829996041426L151.88624918460846,54.896210001541206L155.26149916648865,63.77077735500785L158.63674914836884,53.96204983122949L162.01199913024902,53.96204983122949L165.3872491121292,60.034120042668135L168.7624990940094,45.554558405145485L172.1377490758896,48.82413979010255L175.51299905776978,56.29746273032842L178.88824903964996,57.69870714356921L182.26349902153015,61.435364455908925L185.63874900341034,59.567035799739074L189.01399898529053,59.567035799739074L192.38924896717072,48.35705554717347L195.7644989490509,53.02788134537134L199.1397489309311,43.219145506046544L202.51499891281128,53.02788134537134L205.89024889469147,58.165791386498285L209.26549887657166,50.692468446272414L212.64074885845184,54.42912575861213L216.01599884033203,51.62663693213055L219.39124882221222,56.29746273032842L222.7664988040924,50.692468446272414L226.1417487859726,55.830378487399344L229.51699876785278,53.96204983122949L232.89224874973297,50.22538420334334L236.26749873161316,55.36329424447027L239.64274871349335,53.49496558830042L243.01799869537354,56.29746273032842L246.39324867725372,59.09995155681L249.7684986591339,40.8837326069476L253.1437486410141,52.093712859513204L256.5189986228943,46.48872689100361L259.8942486047745,52.093712859513204L263.26949858665466,50.22538420334334" fill="none"></path></g></g></g></g></g></g><g transform="translate(59, 178)" clip-path="url(#clip_1)"><clipPath id="clip_1"><rect width="270" height="21"></rect></clipPath><g><g><line x1="0" y1="0" x2="0" y2="5" style="visibility: inherit;" fill="rgb(0, 0, 0)" stroke="rgb(204, 204, 204)" stroke-width="1px"></line><line x1="33.75249981880188" y1="0" x2="33.75249981880188" y2="5" style="visibility: inherit;" fill="rgb(0, 0, 0)" stroke="rgb(204, 204, 204)" stroke-width="1px"></line><line x1="67.50499963760376" y1="0" x2="67.50499963760376" y2="5" style="visibility: inherit;" fill="rgb(0, 0, 0)" stroke="rgb(204, 204, 204)" stroke-width="1px"></line><line x1="101.25749945640564" y1="0" x2="101.25749945640564" y2="5" style="visibility: inherit;" fill="rgb(0, 0, 0)" stroke="rgb(204, 204, 204)" stroke-width="1px"></line><line x1="135.00999927520752" y1="0" x2="135.00999927520752" y2="5" style="visibility: inherit;" fill="rgb(0, 0, 0)" stroke="rgb(204, 204, 204)" stroke-width="1px"></line><line x1="168.7624990940094" y1="0" x2="168.7624990940094" y2="5" style="visibility: inherit;" fill="rgb(0, 0, 0)" stroke="rgb(204, 204, 204)" stroke-width="1px"></line><line x1="202.51499891281128" y1="0" x2="202.51499891281128" y2="5" style="visibility: inherit;" fill="rgb(0, 0, 0)" stroke="rgb(204, 204, 204)" stroke-width="1px"></line><line x1="236.26749873161316" y1="0" x2="236.26749873161316" y2="5" style="visibility: inherit;" fill="rgb(0, 0, 0)" stroke="rgb(204, 204, 204)" stroke-width="1px"></line><line x1="270.01999855041504" y1="0" x2="270.01999855041504" y2="5" style="visibility: inherit;" fill="rgb(0, 0, 0)" stroke="rgb(204, 204, 204)" stroke-width="1px"></line></g><g transform="translate(0, 8)"><text style="text-anchor: middle; visibility: hidden; font-family: &quot;Helvetica Neue&quot;, sans-serif; font-size: 12px; font-weight: 200;" x="0" y="0" dx="0em" dy="0.95em" fill="rgb(50, 49, 63)" stroke="none" stroke-width="1px">-10</text><text style="text-anchor: middle; visibility: hidden; font-family: &quot;Helvetica Neue&quot;, sans-serif; font-size: 12px; font-weight: 200;" x="33.75249981880188" y="0" dx="0em" dy="0.95em" fill="rgb(50, 49, 63)" stroke="none" stroke-width="1px">0</text><text style="text-anchor: middle; visibility: hidden; font-family: &quot;Helvetica Neue&quot;, sans-serif; font-size: 12px; font-weight: 200;" x="67.50499963760376" y="0" dx="0em" dy="0.95em" fill="rgb(50, 49, 63)" stroke="none" stroke-width="1px">10</text><text style="text-anchor: middle; visibility: hidden; font-family: &quot;Helvetica Neue&quot;, sans-serif; font-size: 12px; font-weight: 200;" x="101.25749945640564" y="0" dx="0em" dy="0.95em" fill="rgb(50, 49, 63)" stroke="none" stroke-width="1px">20</text><text style="text-anchor: middle; visibility: hidden; font-family: &quot;Helvetica Neue&quot;, sans-serif; font-size: 12px; font-weight: 200;" x="135.00999927520752" y="0" dx="0em" dy="0.95em" fill="rgb(50, 49, 63)" stroke="none" stroke-width="1px">30</text><text style="text-anchor: middle; visibility: hidden; font-family: &quot;Helvetica Neue&quot;, sans-serif; font-size: 12px; font-weight: 200;" x="168.7624990940094" y="0" dx="0em" dy="0.95em" fill="rgb(50, 49, 63)" stroke="none" stroke-width="1px">40</text><text style="text-anchor: middle; visibility: hidden; font-family: &quot;Helvetica Neue&quot;, sans-serif; font-size: 12px; font-weight: 200;" x="202.51499891281128" y="0" dx="0em" dy="0.95em" fill="rgb(50, 49, 63)" stroke="none" stroke-width="1px">50</text><text style="text-anchor: middle; visibility: hidden; font-family: &quot;Helvetica Neue&quot;, sans-serif; font-size: 12px; font-weight: 200;" x="236.26749873161316" y="0" dx="0em" dy="0.95em" fill="rgb(50, 49, 63)" stroke="none" stroke-width="1px">60</text><text style="text-anchor: middle; visibility: hidden; font-family: &quot;Helvetica Neue&quot;, sans-serif; font-size: 12px; font-weight: 200;" x="270.01999855041504" y="0" dx="0em" dy="0.95em" fill="rgb(50, 49, 63)" stroke="none" stroke-width="1px">70</text></g><line x1="0" y1="0" x2="270.01999855041504" y2="0" fill="rgb(0, 0, 0)" stroke="rgb(204, 204, 204)" stroke-width="1px"></line></g></g></g></g></svg>