<svg viewBox="0 0 330 200" xmlns="http://www.w3.org/2000/svg"><g><g><g><g><g><line x1="39.98800086975098" y1="178.57499980926514" x2="34.98800086975098" y2="178.57499980926514" style="visibility: inherit;" fill="rgb(0, 0, 0)" stroke="rgb(204, 204, 204)" stroke-width="1px"></line><line x1="39.98800086975098" y1="162.34090891751381" x2="34.98800086975098" y2="162.34090891751381" style="visibility: inherit;" fill="rgb(0, 0, 0)" stroke="rgb(204, 204, 204)" stroke-width="1px"></line><line x1="39.98800086975098" y1="146.1068180257624" x2="34.98800086975098" y2="146.1068180257624" style="visibility: inherit;" fill="rgb(0, 0, 0)" stroke="rgb(204, 204, 204)" stroke-width="1px"></line><line x1="39.98800086975098" y1="129.87272713401103" x2="34.98800086975098" y2="129.87272713401103" style="visibility: inherit;" fill="rgb(0, 0, 0)" stroke="rgb(204, 204, 204)" stroke-width="1px"></line><line x1="39.98800086975098" y1="113.63863624225964" x2="34.98800086975098" y2="113.63863624225964" style="visibility: inherit;" fill="rgb(0, 0, 0)" stroke="rgb(204, 204, 204)" stroke-width="1px"></line><line x1="39.98800086975098" y1="97.40454535050823" x2="34.98800086975098" y2="97.40454535050823" style="visibility: inherit;" fill="rgb(0, 0, 0)" stroke="rgb(204, 204, 204)" stroke-width="1px"></line><line x1="39.98800086975098" y1="81.17045445875691" x2="34.98800086975098" y2="81.17045445875691" style="visibility: inherit;" fill="rgb(0, 0, 0)" stroke="rgb(204, 204, 204)" stroke-width="1px"></line><line x1="39.98800086975098" y1="64.9363635670055" x2="34.98800086975098" y2="64.9363635670055" style="visibility: inherit;" fill="rgb(0, 0, 0)" stroke="rgb(204, 204, 204)" stroke-width="1px"></line><line x1="39.98800086975098" y1="48.702272675254136" x2="34.98800086975098" y2="48.702272675254136" style="visibility: inherit;" fill="rgb(0, 0, 0)" stroke="rgb(204, 204, 204)" stroke-width="1px"></line><line x1="39.98800086975098" y1="32.46818178350273" x2="34.98800086975098" y2="32.46818178350273" style="visibility: inherit;" fill="rgb(0, 0, 0)" stroke="rgb(204, 204, 204)" stroke-width="1px"></line><line x1="39.98800086975098" y1="16.234090891751322" x2="34.98800086975098" y2="16.234090891751322" style="visibility: inherit;" fill="rgb(0, 0, 0)" stroke="rgb(204, 204, 204)" stroke-width="1px"></line><line x1="39.98800086975098" y1="0" x2="34.98800086975098" y2="0" style="visibility: inherit;" fill="rgb(0, 0, 0)" stroke="rgb(204, 204, 204)" stroke-width="1px"></line></g><g transform="translate(29.988000869750977, 0)"><text style="text-anchor: end; visibility: hidden; font-family: &quot;Helvetica Neue&quot;, sans-serif; font-size: 12px; font-weight: 200;" x="0" y="178.57499980926514" dx="0em" dy="0.3em" fill="rgb(50, 49, 63)" stroke="none" stroke-width="1px">5.4</text><text style="text-anchor: end; visibility: inherit; font-family: &quot;Helvetica Neue&quot;, sans-serif; font-size: 12px; font-weight: 200;" x="0" y="162.34090891751381" dx="0em" dy="0.3em" fill="rgb(50, 49, 63)" stroke="none" stroke-width="1px">5.6</text><text style="text-anchor: end; visibility: hidden; font-family: &quot;Helvetica Neue&quot;, sans-serif; font-size: 12px; font-weight: 200;" x="0" y="146.1068180257624" dx="0em" dy="0.3em" fill="rgb(50, 49, 63)" stroke="none" stroke-width="1px">5.8</text><text style="text-anchor: end; visibility: inherit; font-family: &quot;Helvetica Neue&quot;, sans-serif; font-size: 12px; font-weight: 200;" x="0" y="129.87272713401103" dx="0em" dy="0.3em" fill="rgb(50, 49, 63)" stroke="none" stroke-width="1px">6</text><text style="text-anchor: end; visibility: hidden; font-family: &quot;Helvetica Neue&quot;, sans-serif; font-size: 12px; font-weight: 200;" x="0" y="113.63863624225964" dx="0em" dy="0.3em" fill="rgb(50, 49, 63)" stroke="none" stroke-width="1px">6.2</text><text style="text-anchor: end; visibility: inherit; font-family: &quot;Helvetica Neue&quot;, sans-serif; font-size: 12px; font-weight: 200;" x="0" y="97.40454535050823" dx="0em" dy="0.3em" fill="rgb(50, 49, 63)" stroke="none" stroke-width="1px">6.4</text><text style="text-anchor: end; visibility: hidden; font-family: &quot;Helvetica Neue&quot;, sans-serif; font-size: 12px; font-weight: 200;" x="0" y="81.17045445875691" dx="0em" dy="0.3em" fill="rgb(50, 49, 63)" stroke="none" stroke-width="1px">6.6</text><text style="text-anchor: end; visibility: inherit; font-family: &quot;Helvetica Neue&quot;, sans-serif; font-size: 12px; font-weight: 200;" x="0" y="64.9363635670055" dx="0em" dy="0.3em" fill="rgb(50, 49, 63)" stroke="none" stroke-width="1px">6.8</text><text style="text-anchor: end; visibility: hidden; font-family: &quot;Helvetica Neue&quot;, sans-serif; font-size: 12px; font-weight: 200;" x="0" y="48.702272675254136" dx="0em" dy="0.3em" fill="rgb(50, 49, 63)" stroke="none" stroke-width="1px">7</text><text style="text-anchor: end; visibility: inherit; font-family: &quot;Helvetica Neue&quot;, sans-serif; font-size: 12px; font-weight: 200;" x="0" y="32.46818178350273" dx="0em" dy="0.3em" fill="rgb(50, 49, 63)" stroke="none" stroke-width="1px">7.2</text><text style="text-anchor: end; visibility: hidden; font-family: &quot;Helvetica Neue&quot;, sans-serif; font-size: 12px; font-weight: 200;" x="0" y="16.234090891751322" dx="0em" dy="0.3em" fill="rgb(50, 49, 63)" stroke="none" stroke-width="1px">7.4</text><text style="text-anchor: end; visibility: hidden; font-family: &quot;Helvetica Neue&quot;, sans-serif; font-size: 12px; font-weight: 200;" x="0" y="0" dx="0em" dy="0.3em" fill="rgb(50, 49, 63)" stroke="none" stroke-width="1px">7.6</text></g><line x1="39.98800086975098" y1="0" x2="39.98800086975098" y2="178.57499980926514" fill="rgb(0, 0, 0)" stroke="rgb(204, 204, 204)" stroke-width="1px"></line></g></g><g transform="translate(39, 0)" clip-path="url(#clip_0)"><clipPath id="clip_0"><rect width="290" height="178"></rect></clipPath><g><g><g><line x1="0" y1="0" x2="0" y2="178.57499980926514" fill="rgb(0, 0, 0)" stroke="rgb(60, 60, 60)" stroke-width="1px" opacity="0.25"></line><line x1="36.25149989128113" y1="0" x2="36.25149989128113" y2="178.57499980926514" fill="rgb(0, 0, 0)" stroke="rgb(60, 60, 60)" stroke-width="1px" opacity="0.25"></line><line x1="72.50299978256226" y1="0" x2="72.50299978256226" y2="178.57499980926514" fill="rgb(0, 0, 0)" stroke="rgb(60, 60, 60)" stroke-width="1px" opacity="0.25"></line><line x1="108.75449967384338" y1="0" x2="108.75449967384338" y2="178.57499980926514" fill="rgb(0, 0, 0)" stroke="rgb(60, 60, 60)" stroke-width="1px" opacity="0.25"></line><line x1="145.0059995651245" y1="0" x2="145.0059995651245" y2="178.57499980926514" fill="rgb(0, 0, 0)" stroke="rgb(60, 60, 60)" stroke-width="1px" opacity="0.25"></line><line x1="181.25749945640564" y1="0" x2="181.25749945640564" y2="178.57499980926514" fill="rgb(0, 0, 0)" stroke="rgb(60, 60, 60)" stroke-width="1px" opacity="0.25"></line><line x1="217.50899934768677" y1="0" x2="217.50899934768677" y2="178.57499980926514" fill="rgb(0, 0, 0)" stroke="rgb(60, 60, 60)" stroke-width="1px" opacity="0.25"></line><line x1="253.7604992389679" y1="0" x2="253.7604992389679" y2="178.57499980926514" fill="rgb(0, 0, 0)" stroke="rgb(60, 60, 60)" stroke-width="1px" opacity="0.25"></line><line x1="290.011999130249" y1="0" x2="290.011999130249" y2="178.57499980926514" fill="rgb(0, 0, 0)" stroke="rgb(60, 60, 60)" stroke-width="1px" opacity="0.25"></line></g><g><line x1="0" y1="178.57499980926514" x2="290.011999130249" y2="178.57499980926514" fill="rgb(0, 0, 0)" stroke="rgb(60, 60, 60)" stroke-width="1px" opacity="0.25"></line><line x1="0" y1="162.34090891751381" x2="290.011999130249" y2="162.34090891751381" fill="rgb(0, 0, 0)" stroke="rgb(60, 60, 60)" stroke-width="1px" opacity="0.25"></line><line x1="0" y1="146.1068180257624" x2="290.011999130249" y2="146.1068180257624" fill="rgb(0, 0, 0)" stroke="rgb(60, 60, 60)" stroke-width="1px" opacity="0.25"></line><line x1="0" y1="129.87272713401103" x2="290.011999130249" y2="129.87272713401103" fill="rgb(0, 0, 0)" stroke="rgb(60, 60, 60)" stroke-width="1px" opacity="0.25"></line><line x1="0" y1="113.63863624225964" x2="290.011999130249" y2="113.63863624225964" fill="rgb(0, 0, 0)" stroke="rgb(60, 60, 60)" stroke-width="1px" opacity="0.25"></line><line x1="0" y1="97.40454535050823" x2="290.011999130249" y2="97.40454535050823" fill="rgb(0, 0, 0)" stroke="rgb(60, 60, 60)" stroke-width="1px" opacity="0.25"></line><line x1="0" y1="81.17045445875691" x2="290.011999130249" y2="81.17045445875691" fill="rgb(0, 0, 0)" stroke="rgb(60, 60, 60)" stroke-width="1px" opacity="0.25"></line><line x1="0" y1="64.9363635670055" x2="290.011999130249" y2="64.9363635670055" fill="rgb(0, 0, 0)" stroke="rgb(60, 60, 60)" stroke-width="1px" opacity="0.25"></line><line x1="0" y1="48.702272675254136" x2="290.011999130249" y2="48.702272675254136" fill="rgb(0, 0, 0)" stroke="rgb(60, 60, 60)" stroke-width="1px" opacity="0.25"></line><line x1="0" y1="32.46818178350273" x2="290.011999130249" y2="32.46818178350273" fill="rgb(0, 0, 0)" stroke="rgb(60, 60, 60)" stroke-width="1px" opacity="0.25"></line><line x1="0" y1="16.234090891751322" x2="290.011999130249" y2="16.234090891751322" fill="rgb(0, 0, 0)" stroke="rgb(60, 60, 60)" stroke-width="1px" opacity="0.25"></line><line x1="0" y1="0" x2="290.011999130249" y2="0" fill="rgb(0, 0, 0)" stroke="rgb(60, 60, 60)" stroke-width="1px" opacity="0.25"></line></g></g></g><g><g><line x1="0" y1="616.8954538865524" x2="290.011999130249" y2="616.8954538865524" fill="rgb(0, 0, 0)" stroke="rgb(153, 153, 153)" stroke-width="1.5px"></line></g></g><g><g><line x1="36.25149989128113" y1="0" x2="36.25149989128113" y2="178.57499980926514" fill="rgb(0, 0, 0)" stroke="rgb(153, 153, 153)" stroke-width="1.5px"></line></g></g><g><g><g><g><g><path style="fill: none;" stroke="rgb(238, 51, 119)" stroke-width="2px" d="M36.25149989128113,27.03729272577172L39.876649880409246,27.30164848250911L43.50179986953735,27.65645803185194L47.12694985866547,28.171738879501248L50.75209984779357,28.981178402290254L54.37724983692169,30.353235096372714L58.00239982604981,32.81611730906863L61.627549815177915,37.06314929666439L65.25269980430603,43.2085110712209L68.87784979343414,50.52942380384877L72.50299978256226,58.329466831154846L76.12814977169037,66.25259204095359L79.75329976081849,73.92808209239129L83.37844974994658,81.05202462794207L87.0035997390747,87.29825186400042L90.62874972820282,92.34214422051409L94.25389971733094,95.87998286540137L97.87904970645906,97.806335136678L101.50419969558715,98.3160424515352L105.12934968471527,98.06442066902426L108.75449967384338,97.78721482279393L112.3796496629715,98.00198936073474L116.00479965209962,98.69782944779544L119.62994964122771,99.6587993933702L123.25509963035583,100.5215745285727L126.88024961948395,101.06332965698456L130.50539960861207,101.2430373844416L134.13054959774018,101.2315806781467L137.75569958686827,101.21126050650876L141.3808495759964,101.24203105213192L145.0059995651245,101.34645738180652L148.6311495542526,101.49167887511231L152.25629954338075,101.58995109566227L155.88144953250884,101.62652740461057L159.50659952163699,101.64800872891354L163.13174951076508,101.68102416968908L166.75689949989317,101.82492968997452L170.3820494890213,102.11293425598959L174.0071994781494,102.5580040724937L177.63234946727755,103.11253188022086L181.25749945640564,103.67580703802453L184.88264944553373,104.27534886406582L188.50779943466188,104.88267041296277L192.13294942378997,105.5314064069123L195.7580994129181,106.22836894154919L199.3832494020462,106.99020120507215L203.0083993911743,107.76093563902698L206.63354938030244,108.56367918144767L210.25869936943053,109.40524392796901L213.88384935855868,110.28617174983472L217.50899934768677,111.17809181692932L221.13414933681486,112.09598299863167L224.759299325943,112.98581299092923L228.3844493150711,113.82610046951905L232.00959930419924,114.55255628184759L235.63474929332733,115.16150344447558L239.25989928245542,115.66575334180715L242.88504927158357,116.0704150455684L246.51019926071166,116.37850755268838L250.1353492498398,116.64499208931164L253.7604992389679,116.83004111902781L257.385649228096,116.96349626532802L261.01079921722413,117.03204297765333L264.6359492063522,117.05665941415188L268.26109919548037,116.99771156385744L271.88624918460846,116.91345058546545L275.51139917373655,116.8199390908421L279.1365491628647,116.68636782927538L282.7616991519928,116.54648763822868" fill="none"></path></g><g><path style="fill: none;" stroke="rgb(51, 187, 238)" stroke-width="2px" d="M36.25149989128113,26.86749350105623L39.876649880409246,27.143344669177367L43.50179986953735,27.484800962872413L47.12694985866547,27.936063593589978L50.75209984779357,28.59165038826316L54.37724983692169,29.662542786126977L58.00239982604981,31.423005046660336L61.627549815177915,34.57561194238116L65.25269980430603,39.7958446836233L68.87784979343414,46.95868583345242L72.50299978256226,55.38486108282888L76.12814977169037,64.4037660626118L79.75329976081849,73.28824826887363L83.37844974994658,82.1748979601102L87.0035997390747,91.11600571133641L90.62874972820282,98.46196063644001L94.25389971733094,104.49109102922748L97.87904970645906,108.92239794476275L101.50419969558715,111.62308422325579L105.12934968471527,115.43329057826912L108.75449967384338,114.18868974171757L112.3796496629715,115.67477162750552L116.00479965209962,116.09135449862768L119.62994964122771,117.57085651931382L123.25509963035583,119.9553222220317L126.88024961948395,120.11772877477986L130.50539960861207,121.57304011494466L134.13054959774018,121.56835679919573L137.75569958686827,121.98764902653627L141.3808495759964,122.10407393374946L145.0059995651245,123.28128921064074L148.6311495542526,123.41300262794341L152.25629954338075,123.33601820625225L155.88144953250884,124.77437671750766L159.50659952163699,125.3628488881424L163.13174951076508,126.73664731122241L166.75689949989317,126.3485513854822L170.3820494890213,126.0342273590599L174.0071994781494,127.65488683872425L177.63234946727755,128.17906985680543L181.25749945640564,129.79299465101263L184.88264944553373,130.2022235552563L188.50779943466188,131.1734116442833L192.13294942378997,132.05654565621256L195.7580994129181,131.87633476260066L199.3832494020462,132.86157279887445L203.0083993911743,134.49937863289233L206.63354938030244,136.50085748159609L210.25869936943053,136.41798988640215L213.88384935855868,138.84986932294186L217.50899934768677,139.35071317245604L221.13414933681486,140.0857228094169L224.759299325943,141.38783940797606L228.3844493150711,142.63100815624074L232.00959930419924,144.33708976696212L235.63474929332733,144.49992207568746L239.25989928245542,145.69865738197055L242.88504927158357,146.25902965811167L246.51019926071166,146.77701986197934L250.1353492498398,147.23288839826822L253.7604992389679,148.08521315948548L257.385649228096,148.96037392311487L261.01079921722413,148.47868909257363L264.6359492063522,149.48838874499063L268.26109919548037,150.35224762268047L271.88624918460846,150.81825689224385L275.51139917373655,150.52266612881732L279.1365491628647,151.80895234604327L282.7616991519928,151.99849116606418" fill="none"></path></g></g></g></g></g></g><g transform="translate(39, 178)" clip-path="url(#clip_1)"><clipPath id="clip_1"><rect width="290" height="21"></rect></clipPath><g><g><line x1="0" y1="0" x2="0" y2="5" style="visibility: inherit;" fill="rgb(0, 0, 0)" stroke="rgb(204, 204, 204)" stroke-width="1px"></line><line x1="36.25149989128113" y1="0" x2="36.25149989128113" y2="5" style="visibility: inherit;" fill="rgb(0, 0, 0)" stroke="rgb(204, 204, 204)" stroke-width="1px"></line><line x1="72.50299978256226" y1="0" x2="72.50299978256226" y2="5" style="visibility: inherit;" fill="rgb(0, 0, 0)" stroke="rgb(204, 204, 204)" stroke-width="1px"></line><line x1="108.75449967384338" y1="0" x2="108.75449967384338" y2="5" style="visibility: inherit;" fill="rgb(0, 0, 0)" stroke="rgb(204, 204, 204)" stroke-width="1px"></line><line x1="145.0059995651245" y1="0" x2="145.0059995651245" y2="5" style="visibility: inherit;" fill="rgb(0, 0, 0)" stroke="rgb(204, 204, 204)" stroke-width="1px"></line><line x1="181.25749945640564" y1="0" x2="181.25749945640564" y2="5" style="visibility: inherit;" fill="rgb(0, 0, 0)" stroke="rgb(204, 204, 204)" stroke-width="1px"></line><line x1="217.50899934768677" y1="0" x2="217.50899934768677" y2="5" style="visibility: inherit;" fill="rgb(0, 0, 0)" stroke="rgb(204, 204, 204)" stroke-width="1px"></line><line x1="253.7604992389679" y1="0" x2="253.7604992389679" y2="5" style="visibility: inherit;" fill="rgb(0, 0, 0)" stroke="rgb(204, 204, 204)" stroke-width="1px"></line><line x1="290.011999130249" y1="0" x2="290.011999130249" y2="5" style="visibility: inherit;" fill="rgb(0, 0, 0)" stroke="rgb(204, 204, 204)" stroke-width="1px"></line></g><g transform="translate(0, 8)"><text style="text-anchor: middle; visibility: hidden; font-family: &quot;Helvetica Neue&quot;, sans-serif; font-size: 12px; font-weight: 200;" x="0" y="0" dx="0em" dy="0.95em" fill="rgb(50, 49, 63)" stroke="none" stroke-width="1px">-10</text><text style="text-anchor: middle; visibility: hidden; font-family: &quot;Helvetica Neue&quot;, sans-serif; font-size: 12px; font-weight: 200;" x="36.25149989128113" y="0" dx="0em" dy="0.95em" fill="rgb(50, 49, 63)" stroke="none" stroke-width="1px">0</text><text style="text-anchor: middle; visibility: hidden; font-family: &quot;Helvetica Neue&quot;, sans-serif; font-size: 12px; font-weight: 200;" x="72.50299978256226" y="0" dx="0em" dy="0.95em" fill="rgb(50, 49, 63)" stroke="none" stroke-width="1px">10</text><text style="text-anchor: middle; visibility: hidden; font-family: &quot;Helvetica Neue&quot;, sans-serif; font-size: 12px; font-weight: 200;" x="108.75449967384338" y="0" dx="0em" dy="0.95em" fill="rgb(50, 49, 63)" stroke="none" stroke-width="1px">20</text><text style="text-anchor: middle; visibility: hidden; font-family: &quot;Helvetica Neue&quot;, sans-serif; font-size: 12px; font-weight: 200;" x="145.0059995651245" y="0" dx="0em" dy="0.95em" fill="rgb(50, 49, 63)" stroke="none" stroke-width="1px">30</text><text style="text-anchor: middle; visibility: hidden; font-family: &quot;Helvetica Neue&quot;, sans-serif; font-size: 12px; font-weight: 200;" x="181.25749945640564" y="0" dx="0em" dy="0.95em" fill="rgb(50, 49, 63)" stroke="none" stroke-width="1px">40</text><text style="text-anchor: middle; visibility: hidden; font-family: &quot;Helvetica Neue&quot;, sans-serif; font-size: 12px; font-weight: 200;" x="217.50899934768677" y="0" dx="0em" dy="0.95em" fill="rgb(50, 49, 63)" stroke="none" stroke-width="1px">50</text><text style="text-anchor: middle; visibility: hidden; font-family: &quot;Helvetica Neue&quot;, sans-serif; font-size: 12px; font-weight: 200;" x="253.7604992389679" y="0" dx="0em" dy="0.95em" fill="rgb(50, 49, 63)" stroke="none" stroke-width="1px">60</text><text style="text-anchor: middle; visibility: hidden; font-family: &quot;Helvetica Neue&quot;, sans-serif; font-size: 12px; font-weight: 200;" x="290.011999130249" y="0" dx="0em" dy="0.95em" fill="rgb(50, 49, 63)" stroke="none" stroke-width="1px">70</text></g><line x1="0" y1="0" x2="290.011999130249" y2="0" fill="rgb(0, 0, 0)" stroke="rgb(204, 204, 204)" stroke-width="1px"></line></g></g></g></g></svg>